<svg width="380" height="228" viewBox="0 0 380 228" xmlns="http://www.w3.org/2000/svg"><title>Page 1</title><g fill="none" fill-rule="evenodd"><path d="M181.108 178.572c0 26.724 21.664 48.388 48.388 48.388 26.725 0 48.39-21.664 48.39-48.388 0-26.724-21.665-48.388-48.39-48.388-26.724 0-48.388 21.664-48.388 48.388z" fill="#4088DA"/><path d="M229.497 131.188c-26.128 0-47.385 21.257-47.385 47.384 0 26.128 21.257 47.384 47.385 47.384 26.128 0 47.384-21.256 47.384-47.384 0-26.127-21.255-47.384-47.383-47.384m0 96.777c-27.236 0-49.394-22.157-49.394-49.393 0-27.235 22.158-49.393 49.394-49.393 27.235 0 49.393 22.157 49.393 49.392 0 27.236-22.158 49.393-49.393 49.393" fill="#1C3E58"/><path d="M267.348 148.444c-1.602.454-3.246.802-4.513 1.85-1.46 1.205-2.196 3.186-3.816 4.166-1.4.845-3.32.715-4.592-.312-.76-.612-1.265-1.475-1.89-2.224-1.77-2.125-4.6-3.318-7.358-3.103-2.757.216-5.37 1.835-6.787 4.21-.53.883-.904 1.867-1.562 2.66-1.408 1.697-3.78 2.175-5.968 2.46-.64.084-1.317.174-1.83.57-.694.535-.905 1.524-.744 2.387.16.863.628 1.633 1.087 2.38l3.96 6.46c.985 1.608 3.443 1.25 3.892-.584.227-.922.372-1.864.43-2.812.03-.477.108-.954.3-1.392 1.477-3.387 4.7-1.923 6.195.08 1.376 1.843 1.968 4.634.44 6.354-.667.75-1.62 1.167-2.435 1.753-.815.586-1.547 1.502-1.396 2.494.118.773.747 1.394.87 2.167.132.84-.385 1.68-1.086 2.163-.7.484-1.554.68-2.39.84-4.775.923-10.412 1.423-12.136 6.78-.795 2.47-.414 5.166.874 7.42.84 1.472 1.965 3.794 3.95 4.375 1.453.426 3.202-.133 4.412.777.913.685 1.495 2.15 2.622 1.973.496-.08.877-.49 1.356-.64.904-.283 1.836.437 2.3 1.263.466.826-1.415 2.664-.725 3.313 2.62 2.464-1.877 12.082 3.518 13.148 1.504.297 3.832-10.8 8.6-13.498.728-.41 2.32-.154 2.95-.702.596-.517.973-1.236 1.337-1.937l2.573-4.958c.312-.604.614-1.38.19-1.913-.185-.234-.47-.358-.745-.472l-6.458-2.7c-2.016-.845-4.382-2.212-4.337-4.367.036-1.748 1.59-2.985 3.294-2.592 1.887.437 2.492 2.586 3.98 3.643.723.512 1.605.733 2.465.944l2.944.72c.43.107.895.212 1.312.054.478-.182.775-.675.892-1.173.318-1.35-.448-2.745-1.46-3.692-1.014-.947-2.272-1.59-3.352-2.46-1.117-.9-2.036-2.042-2.678-3.325-.163-.327-.312-.695-.224-1.05.106-.427.522-.702.932-.86 2.412-.936 4.97.724 7.496 1.275 1.958.428 4.274.29 5.613 1.782 1.077 1.2 1.064 3.027.688 4.594-.375 1.566-1.05 3.085-1.09 4.696-.063 2.457 1.98 6.418 3.9 8.05 3.035-6.328 4.737-13.417 4.737-20.904 0-11.394-3.948-21.86-10.537-30.128" fill="#ECF0F7"/><path d="M241.697 205.75c1.216 1.385 1.067 3.748.91 6.243-.22 3.526-.22 5.768 1.588 6.356.38-.538 1.008-2 1.524-3.205 1.503-3.51 3.563-8.32 6.712-10.1.517-.292 1.148-.353 1.76-.41.332-.032.888-.085 1.033-.182.452-.393.78-1.024 1.096-1.635l2.573-4.958c.332-.64.286-.842.284-.85-.032-.02-.236-.105-.334-.145l-6.46-2.7c-1.24-.52-5.02-2.102-4.953-5.314.043-2.046 1.65-3.65 3.663-3.65.287 0 .577.034.862.1 1.488.344 2.32 1.438 3.057 2.404.417.547.81 1.064 1.28 1.397.575.41 1.362.6 2.122.788l2.944.722c.233.057.602.132.718.088.073-.028.206-.19.27-.464.233-.988-.45-2.057-1.17-2.727-.522-.49-1.134-.9-1.783-1.333-.5-.336-1.018-.682-1.512-1.08-1.223-.987-2.24-2.25-2.944-3.656-.228-.456-.47-1.066-.302-1.742.17-.684.72-1.236 1.545-1.556.594-.23 1.24-.347 1.915-.347 1.37 0 2.698.464 3.984.912.754.265 1.47.513 2.172.667.467.102.963.17 1.488.242 1.602.22 3.42.47 4.658 1.85 1.138 1.266 1.463 3.22.918 5.5-.126.523-.283 1.04-.44 1.56-.31 1.013-.6 1.97-.624 2.927-.043 1.66 1.18 4.475 2.602 6.264 2.673-6.036 4.027-12.467 4.027-19.142 0-10.61-3.423-20.616-9.91-28.98-1.317.36-2.562.704-3.495 1.475-.552.457-1.005 1.075-1.487 1.73-.677.92-1.377 1.874-2.45 2.523-1.716 1.038-4.183.87-5.74-.39-.618-.498-1.064-1.095-1.496-1.672-.175-.234-.35-.468-.535-.69-1.563-1.877-4.05-2.937-6.51-2.746-2.444.19-4.744 1.617-6.002 3.722-.174.29-.33.594-.486.897-.33.635-.67 1.292-1.166 1.89-1.596 1.925-4.122 2.492-6.612 2.816-.515.067-1.046.137-1.346.37-.326.25-.478.83-.37 1.407.128.69.548 1.377.955 2.04l3.96 6.46c.29.47.73.542.966.542.41 0 .944-.22 1.096-.84.213-.87.35-1.756.403-2.636.043-.686.164-1.237.38-1.734.997-2.283 2.643-2.624 3.535-2.624 1.858 0 3.525 1.35 4.387 2.504 1.624 2.176 2.278 5.493.386 7.623-.543.61-1.19 1.007-1.815 1.392-.266.164-.533.327-.785.51-.508.364-1.072.984-.99 1.527.033.215.176.48.327.762.213.396.454.845.54 1.398.184 1.152-.407 2.387-1.504 3.146-.864.597-1.843.822-2.77 1.002-.454.087-.914.17-1.378.255-4.43.804-8.617 1.565-9.994 5.844-.685 2.127-.397 4.538.79 6.614l.254.452c.76 1.358 1.705 3.05 3.105 3.46.455.133 1 .143 1.576.154 1.018.02 2.173.043 3.158.782.4.3.725.687 1.01 1.026.257.303.642.76.82.76.11-.014.276-.115.423-.204.22-.134.49-.3.82-.403.23-.072.47-.11.714-.11 1.276 0 2.287.99 2.764 1.838.488.867 0 1.828-.392 2.6-.098.195-.247.49-.32.684m2.69 14.678c-.066 0-.192-.012-.255-.025-4.012-.793-3.743-5.086-3.526-8.535.122-1.952.26-4.164-.486-4.865-.905-.852-.296-2.05.106-2.846.122-.24.314-.618.367-.817-.297-.456-.754-.78-1.057-.686-.097.03-.233.114-.377.2-.29.178-.65.398-1.123.473-1.3.207-2.09-.725-2.7-1.448-.24-.284-.464-.552-.682-.716-.464-.35-1.172-.363-1.99-.38-.683-.012-1.39-.026-2.1-.235-2.19-.642-3.407-2.818-4.296-4.408l-.244-.434c-1.466-2.565-1.816-5.564-.958-8.227 1.746-5.424 6.953-6.37 11.547-7.203.455-.084.91-.166 1.354-.252.72-.14 1.465-.306 2.01-.68.45-.314.724-.798.663-1.18-.034-.218-.176-.483-.326-.762-.214-.4-.458-.853-.542-1.413-.186-1.22.488-2.514 1.802-3.46.29-.21.598-.4.906-.59.524-.32 1.02-.626 1.365-1.016 1.167-1.31.617-3.6-.493-5.086-.746-1-1.888-1.697-2.777-1.697-.266 0-1.074 0-1.693 1.42-.12.275-.19.61-.216 1.054-.062 1-.215 2.005-.457 2.988-.347 1.42-1.572 2.372-3.047 2.372-1.1 0-2.102-.562-2.68-1.502l-3.958-6.46c-.478-.78-1.02-1.664-1.218-2.72-.247-1.33.192-2.653 1.12-3.37.73-.56 1.606-.676 2.312-.768 2.084-.272 4.172-.715 5.326-2.106.36-.433.634-.966.926-1.53.175-.34.352-.678.546-1.005 1.587-2.655 4.488-4.453 7.57-4.693 3.1-.243 6.236 1.092 8.21 3.46.208.25.404.513.6.775.375.5.728.972 1.15 1.312.917.74 2.427.844 3.44.233.73-.44 1.283-1.195 1.87-1.993.532-.724 1.082-1.473 1.825-2.088 1.273-1.053 2.802-1.472 4.28-1.876l.6-.166c.388-.112.806.024 1.06.34 7.035 8.83 10.755 19.463 10.755 30.754 0 7.47-1.628 14.65-4.837 21.338-.135.28-.393.484-.697.55-.302.065-.622-.016-.86-.22-2.027-1.723-4.326-5.96-4.253-8.84.03-1.23.376-2.364.71-3.462.146-.48.293-.96.41-1.443.223-.937.462-2.663-.46-3.69-.748-.832-2.054-1.01-3.437-1.2-.54-.075-1.098-.152-1.643-.27-.82-.18-1.627-.46-2.407-.733-1.675-.585-3.27-1.07-4.512-.59-.204.08-.302.163-.328.194.02-.005.033.086.156.332.575 1.15 1.41 2.184 2.41 2.992.424.34.883.65 1.37.974.686.46 1.395.935 2.037 1.535 1.46 1.365 2.117 3.106 1.752 4.655-.213.9-.78 1.603-1.514 1.882-.585.222-1.29.136-1.908-.016l-2.944-.72c-.9-.222-1.92-.47-2.806-1.1-.72-.51-1.226-1.176-1.716-1.82-.607-.795-1.13-1.482-1.91-1.663-1.077-.248-2.043.536-2.065 1.635-.026 1.225 1.225 2.374 3.72 3.418l6.457 2.7c.315.132.794.332 1.144.773.89 1.12.157 2.536-.084 3l-2.573 4.96c-.383.74-.82 1.582-1.57 2.234-.587.51-1.42.588-2.152.657-.324.03-.815.078-.96.16-2.557 1.446-4.463 5.894-5.855 9.142-1.28 2.99-1.925 4.492-3.18 4.492" fill="#1C3E58"/><path d="M181.108 178.572c0 2.68.228 5.305.646 7.866 1.342-.303 2.77-.23 4.044.292 2.264.926 3.915 3.034 6.228 3.83 1.948.672 4.104.315 6.064-.325.927-.303 1.97-.825 2.124-1.79.093-.583-.18-1.154-.352-1.72-.73-2.376.497-5.194 2.732-6.282 1.284-.624 2.768-.706 4.094-1.234 1.327-.53 2.578-1.814 2.277-3.21-.217-1.003-1.146-1.676-2.053-2.154-.794-.42-1.712-.864-1.966-1.725-.16-.543-.007-1.124.02-1.69.084-1.61-1.108-3.29-2.713-3.426-2.11-.18-3.743 2.072-5.855 2.202-1.057.065-2.068-.418-2.973-.967-1.268-.77-2.53-1.825-2.8-3.283-.27-1.468.542-2.915 1.473-4.082.528-.66 1.254-1.342 2.09-1.214.588.092 1.032.56 1.477.954 1.877 1.662 5.07 2.186 6.782.354 1.35-1.445 1.317-3.77 2.57-5.302 1.264-1.548 3.45-1.873 5.396-2.327 2.563-.598 5.032-1.603 7.284-2.966.495-.3 1.016-.664 1.17-1.222.106-.387.01-.803-.148-1.17-.777-1.794-3.252-2.594-4.93-1.595-1.05.625-2.058 1.86-3.203 1.43-.526-.196-.868-.712-1.36-.986-1.156-.645-2.533.228-3.832.49-1.79.358-3.76-.646-4.524-2.305-.706-1.538-.408-3.408-.542-5.048-11.674 8.834-19.22 22.836-19.22 38.605" fill="#ECF0F7"/><path d="M183.34 185.255c1 0 1.954.183 2.84.545 1.197.49 2.202 1.25 3.176 1.984.995.75 1.935 1.46 2.997 1.826 1.446.5 3.213.394 5.424-.33.863-.28 1.39-.643 1.445-.992.034-.216-.077-.54-.195-.884-.043-.128-.087-.256-.126-.384-.866-2.83.594-6.185 3.255-7.48.807-.392 1.64-.588 2.448-.777.61-.142 1.185-.277 1.714-.487.955-.38 1.84-1.257 1.666-2.064-.11-.505-.613-.99-1.54-1.478l-.118-.062c-.835-.44-1.98-1.04-2.342-2.266-.173-.585-.11-1.15-.058-1.603.016-.142.032-.283.04-.425.058-1.136-.815-2.29-1.798-2.374-.812-.07-1.616.423-2.494.948-.927.553-1.977 1.18-3.214 1.257-1.38.083-2.64-.557-3.555-1.112-1.92-1.164-2.99-2.46-3.267-3.958-.282-1.526.266-3.126 1.675-4.892.97-1.218 1.952-1.747 3.028-1.58.81.125 1.373.635 1.825 1.045l.166.15c.875.773 2.12 1.254 3.246 1.254.62 0 1.492-.144 2.137-.835.552-.59.837-1.45 1.14-2.363.328-.99.667-2.01 1.385-2.89 1.342-1.642 3.438-2.108 5.288-2.52l.66-.15c2.47-.574 4.82-1.532 6.99-2.845.18-.11.658-.398.722-.63.01-.04.035-.19-.1-.505-.364-.838-1.336-1.424-2.365-1.424-.416 0-.807.102-1.13.294-.23.138-.48.325-.74.524-.704.532-1.5 1.137-2.493 1.137-.284 0-.565-.05-.835-.15-.473-.178-.814-.483-1.09-.728-.148-.133-.29-.258-.406-.324-.423-.234-1.123-.018-1.89.237-.405.134-.822.272-1.258.36-.304.06-.62.09-.937.09-1.994 0-3.882-1.19-4.697-2.96-.508-1.105-.578-2.315-.59-3.432-10.992 9.044-17.256 22.26-17.256 36.57 0 2.216.163 4.47.482 6.716.25-.024.5-.035.747-.035m10.965 6.67c-.93 0-1.806-.14-2.606-.415-1.365-.47-2.478-1.31-3.554-2.122-.91-.688-1.77-1.337-2.73-1.73-1.036-.423-2.256-.508-3.44-.24-.27.06-.554.008-.783-.147-.23-.154-.386-.397-.43-.67-.438-2.677-.66-5.378-.66-8.028 0-15.608 7.15-29.97 19.62-39.406.292-.222.682-.266 1.016-.116.334.15.56.47.59.835.043.532.045 1.078.045 1.605.003 1.146.005 2.228.408 3.106.56 1.216 2.095 2 3.415 1.738.314-.063.657-.176 1.02-.296.66-.22 1.342-.444 2.068-.444.52 0 1.004.12 1.432.36.31.174.55.39.764.578.173.154.337.3.458.346.045.016.086.024.13.024.317 0 .828-.387 1.28-.73.293-.222.597-.453.925-.648.634-.378 1.38-.577 2.158-.577 1.835 0 3.525 1.06 4.207 2.635.284.656.35 1.274.195 1.836-.276 1.004-1.183 1.552-1.62 1.816-2.35 1.422-4.898 2.46-7.574 3.084l-.678.153c-1.68.375-3.267.728-4.17 1.83-.482.593-.75 1.4-1.032 2.252-.357 1.076-.727 2.19-1.58 3.102-.887.95-2.167 1.472-3.604 1.472-1.62 0-3.332-.658-4.577-1.76l-.185-.165c-.278-.252-.566-.513-.78-.546-.16.013-.538.08-1.15.847-1.012 1.267-1.44 2.37-1.272 3.274.168.903.93 1.756 2.333 2.606.636.385 1.467.828 2.26.828l.13-.004c.75-.046 1.505-.5 2.306-.977 1.053-.63 2.265-1.347 3.696-1.224 2.085.178 3.748 2.23 3.633 4.477-.008.182-.028.364-.05.548-.034.316-.068.614-.01.81.12.41.746.738 1.35 1.056l.12.063c.546.288 2.207 1.165 2.566 2.83.42 1.938-1.135 3.657-2.887 4.355-.668.266-1.344.424-2 .578-.73.17-1.422.333-2.026.627-1.78.865-2.792 3.193-2.212 5.084.032.108.07.215.106.323.174.508.39 1.14.278 1.852-.187 1.17-1.13 2.038-2.805 2.585-1.514.495-2.853.735-4.095.735" fill="#1C3E58"/><path d="M209.32 211.8c-.93-.85-1.625-1.956-1.99-3.163-.256-.847-.352-1.735-.59-2.587-.236-.852-.646-1.702-1.37-2.212-.368-.26-.798-.42-1.22-.58-1.52-.573-3.077-1.255-4.118-2.5-.908-1.087-1.42-2.586-2.673-3.24-.096-.05-.197-.095-.304-.092-.142.006-.266.095-.376.185-1.21.977-2.066 2.376-3.406 3.165-.806.475-1.735.694-2.647.906-1.102.258-2.208.527-3.293.628 3.346 5.93 7.898 11.088 13.336 15.128.456-1.005 1.635-1.55 2.302-1.67.937-.168 1.898.012 2.834.19.825.16 1.65.318 2.477.476.506.097 1.028.194 1.532.09 1.04-.216 1.77-1.397 1.495-2.424-.265-.995-1.23-1.602-1.99-2.297" fill="#ECF0F7"/><path d="M188.95 203.08c3.004 4.954 6.95 9.39 11.512 12.936.677-.68 1.59-1.105 2.333-1.238 1.02-.183 2.23.007 3.2.193l2.478.476c.41.08.847.153 1.138.092.225-.046.445-.215.59-.452.146-.236.2-.51.14-.73-.128-.48-.633-.904-1.168-1.355-.18-.15-.36-.303-.53-.458-1.067-.978-1.854-2.228-2.273-3.614-.152-.498-.25-.994-.344-1.472-.075-.38-.15-.763-.253-1.137-.222-.8-.552-1.36-.98-1.662-.253-.178-.594-.306-.954-.442-1.598-.604-3.356-1.352-4.58-2.816-.35-.42-.635-.872-.91-1.31-.403-.637-.757-1.2-1.224-1.54-.39.342-.732.713-1.09 1.102-.66.714-1.34 1.452-2.252 1.988-.946.557-2 .803-2.93 1.02l-.206.048c-.558.13-1.125.263-1.698.373m11.72 15.36c-.213 0-.424-.068-.6-.198-5.518-4.1-10.225-9.44-13.61-15.44-.168-.298-.174-.658-.016-.96.157-.302.457-.503.797-.534.95-.09 1.922-.316 2.952-.557l.207-.047c.827-.193 1.683-.393 2.365-.794.655-.387 1.208-.986 1.794-1.62.457-.497.93-1.01 1.49-1.46.142-.117.48-.39.97-.407h.005c.373 0 .632.116.8.203 1.067.558 1.682 1.534 2.224 2.394.25.398.488.775.753 1.092.91 1.09 2.388 1.71 3.7 2.208.486.183.986.372 1.447.697.817.577 1.41 1.507 1.758 2.763.12.425.205.857.29 1.288.088.45.17.876.293 1.278.316 1.04.907 1.98 1.71 2.714.15.137.308.27.467.405.714.6 1.524 1.284 1.814 2.375.202.754.067 1.593-.37 2.3-.436.71-1.125 1.206-1.89 1.365-.215.045-.435.066-.673.066-.458 0-.898-.083-1.253-.15l-2.478-.476c-.845-.162-1.76-.314-2.467-.19-.47.085-1.29.49-1.565 1.097-.126.278-.37.483-.663.56-.084.02-.168.03-.252.03" fill="#1C3E58"/><path d="M94.778 95.117v46.73h29.66v30.22c0 2.927-2.373 5.3-5.3 5.3H94.78v4.616h104.785V95.117H94.778z" fill="#FFD102"/><path d="M95.782 180.98H198.56V96.12H95.78v44.72h28.656c.554 0 1.004.45 1.004 1.004v30.222c0 3.475-2.828 6.302-6.303 6.302H95.78v2.61zm103.78 2.008H94.78c-.555 0-1.004-.45-1.004-1.005v-4.617c0-.555.45-1.005 1.004-1.005h24.36c2.37 0 4.295-1.925 4.295-4.292V142.85H94.778c-.555 0-1.004-.45-1.004-1.004v-46.73c0-.553.45-1.003 1.004-1.003h104.785c.555 0 1.004.45 1.004 1.004v86.866c0 .555-.45 1.005-1.004 1.005z" fill="#1C3E58"/><path d="M263.165 20.98h22.137c3.196 0 5.787 2.592 5.787 5.79 0 3.195-2.592 5.786-5.788 5.786h-8.33c-1.957 0-3.544 1.587-3.544 3.545 0 1.96 1.587 3.546 3.545 3.546h30.948c3.57 0 6.464 2.893 6.464 6.463 0 3.568-2.894 6.46-6.463 6.46h-57.585c-3.57 0-6.462-2.892-6.462-6.46 0-3.57 2.893-6.464 6.462-6.464h11.696c1.96 0 3.546-1.587 3.546-3.545 0-1.957-1.587-3.544-3.545-3.544h-32.027c-3.196 0-5.788-2.59-5.788-5.787 0-3.198 2.592-5.79 5.788-5.79h33.162z" fill="#ECF0F7"/><path d="M307.92 53.576h-57.585c-4.117 0-7.467-3.35-7.467-7.467 0-4.12 3.35-7.47 7.467-7.47h11.696c1.402 0 2.54-1.138 2.54-2.54 0-1.4-1.138-2.54-2.54-2.54h-32.027c-3.745 0-6.792-3.046-6.792-6.792 0-3.745 3.048-6.79 6.793-6.79h26.216c.554 0 1.004.45 1.004 1.003 0 .556-.45 1.006-1.005 1.006h-26.217c-2.637 0-4.783 2.145-4.783 4.782 0 2.638 2.146 4.784 4.783 4.784h32.028c2.51 0 4.55 2.04 4.55 4.55 0 2.508-2.04 4.548-4.55 4.548h-11.695c-3.01 0-5.458 2.45-5.458 5.46 0 3.008 2.448 5.457 5.458 5.457h57.586c3.01 0 5.46-2.45 5.46-5.458 0-3.01-2.45-5.46-5.46-5.46h-30.947c-2.508 0-4.55-2.04-4.55-4.55 0-2.507 2.042-4.548 4.55-4.548h8.33c2.636 0 4.78-2.146 4.78-4.784 0-2.637-2.144-4.782-4.78-4.782h-22.138c-.555 0-1.005-.45-1.005-1.005 0-.553.45-1.003 1.005-1.003h22.137c3.744 0 6.79 3.046 6.79 6.79 0 3.747-3.046 6.794-6.79 6.794h-8.33c-1.4 0-2.54 1.14-2.54 2.54 0 1.402 1.14 2.54 2.54 2.54h30.95c4.116 0 7.467 3.35 7.467 7.47 0 4.116-3.352 7.466-7.47 7.466" fill="#1C3E58"/><path d="M310.21 60.422h-42.586c-.554 0-1.004-.45-1.004-1.005 0-.554.45-1.004 1.004-1.004h42.585c6.808 0 12.348-5.54 12.348-12.348 0-6.81-5.54-12.35-12.35-12.35-.554 0-1.003-.448-1.003-1.003 0-.555.45-1.004 1.004-1.004 7.916 0 14.357 6.44 14.357 14.357 0 7.916-6.44 14.357-14.358 14.357" fill="#1C3E58"/><path d="M271.906 93.716H238.28l-27.35-9.236v-5.505h149.71c1.838 0 5.957.71 8.237 1.657l6.478 3.074c2.446 1.16 3.776 3.994 2.83 6.532-.722 1.94-2.53 3.478-5.006 3.478H271.905z" fill="#ECF0F7"/><path d="M238.445 92.71H373.18c2.222 0 3.557-1.457 4.064-2.823.742-1.99-.278-4.305-2.32-5.273l-6.48-3.074c-2.16-.897-6.174-1.56-7.805-1.56H211.933v3.78l26.51 8.95zm134.735 2.01h-134.9c-.11 0-.218-.017-.322-.053l-27.35-9.235c-.41-.138-.683-.52-.683-.95v-5.507c0-.555.45-1.005 1.004-1.005h149.71c2.058 0 6.272.758 8.62 1.735l6.526 3.094c2.975 1.41 4.442 4.83 3.342 7.788-.935 2.51-3.27 4.132-5.948 4.132z" fill="#1C3E58"/><path d="M265.394 78.975s-34.928-15.51-43.216-24.036h-11.25l12.197 24.035h42.27z" fill="#ECF0F7"/><path d="M223.74 77.97h37.017c-9.477-4.373-31.956-15.145-38.996-22.026h-9.195L223.74 77.97zm41.654 2.01h-42.27c-.378 0-.724-.213-.895-.55l-12.197-24.036c-.157-.31-.142-.683.04-.98.183-.298.507-.48.856-.48h11.247c.272 0 .53.11.72.305 8.06 8.288 42.558 23.663 42.905 23.817.434.192.673.662.575 1.126-.098.465-.508.796-.983.796zM215.186 86.922c-.554 0-1.004-.45-1.004-1.004v-6.943c0-.555.45-1.005 1.004-1.005.555 0 1.005.45 1.005 1.005v6.943c0 .555-.45 1.004-1.004 1.004" fill="#1C3E58"/><path fill="#ECF0F7" d="M306.953 89.276L263.5 124.322h-15.896l28.527-35.046"/><path d="M249.716 123.318h13.43l40.96-33.038H276.61l-26.894 33.038zm13.784 2.01h-15.896c-.388 0-.74-.224-.907-.574-.167-.35-.117-.765.128-1.065l28.527-35.048c.19-.235.477-.37.78-.37h30.82c.427 0 .806.267.948.67.142.4.015.848-.316 1.116l-43.453 35.047c-.178.143-.4.222-.63.222z" fill="#1C3E58"/><path d="M272.272 118.25h-27.065c-.555 0-1.005-.448-1.005-1.003 0-.555.45-1.005 1.005-1.005h27.065c.555 0 1.005.45 1.005 1.005 0 .555-.45 1.004-1.005 1.004M259.68 109.638h-7.96c-.556 0-1.005-.45-1.005-1.004 0-.555.45-1.004 1.004-1.004h7.96c.554 0 1.004.45 1.004 1.004 0 .555-.45 1.004-1.005 1.004M265.303 103.304h-7.96c-.555 0-1.004-.45-1.004-1.004 0-.555.448-1.004 1.003-1.004h7.96c.555 0 1.005.45 1.005 1.004 0 .555-.45 1.004-1.005 1.004M352.3 85.426H247.604c-.555 0-1.005-.45-1.005-1.005 0-.554.45-1.003 1.004-1.003H352.3c.555 0 1.004.45 1.004 1.004 0 .556-.45 1.006-1.004 1.006M355.97 101.765h-50.793c-.555 0-1.005-.45-1.005-1.004s.45-1.004 1.005-1.004h50.794c.556 0 1.005.45 1.005 1.005 0 .556-.45 1.005-1.004 1.005" fill="#1C3E58"/><path d="M119.14 177.366H63.667c-2.926 0-5.298-2.372-5.298-5.298v-30.222h66.068v30.222c0 2.926-2.373 5.298-5.3 5.298" fill="#ECF0F7"/><path d="M59.374 142.85v29.217c0 2.368 1.927 4.295 4.294 4.295h55.47c2.37 0 4.295-1.927 4.295-4.295V142.85h-64.06zm59.765 35.52H63.667c-3.475 0-6.302-2.827-6.302-6.303v-30.22c0-.556.45-1.006 1.004-1.006h66.068c.555 0 1.004.45 1.004 1.006v30.22c0 3.477-2.827 6.304-6.303 6.304z" fill="#1C3E58"/><path d="M91.404 164.873c-.194 0-.39-.056-.557-.17l-33.034-22.02c-.462-.31-.586-.933-.28-1.394.31-.464.933-.588 1.394-.28l32.477 21.65 32.476-21.65c.462-.307 1.086-.183 1.393.28.308.46.183 1.084-.278 1.392L91.96 164.704c-.168.113-.362.17-.556.17M113.915 172.865h-41.16c-.554 0-1.004-.45-1.004-1.005 0-.555.45-1.004 1.006-1.004h41.16c1.82 0 3.3-1.482 3.3-3.303v-4.395c0-.555.45-1.004 1.005-1.004.556 0 1.006.45 1.006 1.004v4.395c0 2.93-2.383 5.312-5.31 5.312M190.86 172.865c-.554 0-1.004-.45-1.004-1.005v-54.613c0-.555.45-1.005 1.005-1.005.556 0 1.005.45 1.005 1.005v54.613c0 .555-.45 1.005-1.004 1.005M170.48 178.37h-35.208c-.555 0-1.005-.45-1.005-1.004 0-.555.45-1.005 1.005-1.005h35.21c.554 0 1.003.45 1.003 1.006 0 .555-.45 1.004-1.004 1.004" fill="#1C3E58"/><path d="M138.586 178.37c-.554 0-1.004-.45-1.004-1.004v-16.93c0-.556.45-1.006 1.004-1.006.555 0 1.005.45 1.005 1.005v16.93c0 .556-.45 1.005-1.004 1.005M143.574 178.37c-.555 0-1.004-.45-1.004-1.004v-16.93c0-.556.45-1.006 1.004-1.006.555 0 1.004.45 1.004 1.005v16.93c0 .556-.45 1.005-1.004 1.005M148.562 178.37c-.555 0-1.005-.45-1.005-1.004v-13.054c0-.554.45-1.004 1.005-1.004.555 0 1.004.45 1.004 1.004v13.054c0 .555-.45 1.004-1.004 1.004M153.55 178.37c-.556 0-1.005-.45-1.005-1.004v-13.054c0-.554.45-1.004 1.004-1.004s1.004.45 1.004 1.004v13.054c0 .555-.45 1.004-1.005 1.004M158.537 178.37c-.555 0-1.004-.45-1.004-1.004v-11.944c0-.554.45-1.004 1.004-1.004.555 0 1.004.45 1.004 1.004v11.944c0 .555-.448 1.004-1.003 1.004M163.525 178.37c-.555 0-1.005-.45-1.005-1.004v-11.01c0-.556.45-1.006 1.005-1.006.555 0 1.004.45 1.004 1.005v11.01c0 .556-.45 1.005-1.005 1.005M168.512 178.37c-.555 0-1.004-.45-1.004-1.004v-8.17c0-.554.45-1.004 1.004-1.004.555 0 1.005.45 1.005 1.004v8.17c0 .555-.45 1.004-1.005 1.004M105.196 127.787h23.92v-23.92h-23.92v23.92zm24.925 2.01h-25.93c-.554 0-1.003-.45-1.003-1.005v-25.93c0-.555.45-1.005 1.004-1.005h25.93c.556 0 1.006.45 1.006 1.005v25.93c0 .555-.45 1.004-1.005 1.004z" fill="#1C3E58"/><path d="M131.126 127.787h23.92v-23.92h-23.92v23.92zm24.925 2.01h-25.93c-.554 0-1.004-.45-1.004-1.005v-25.93c0-.555.45-1.005 1.005-1.005h25.93c.556 0 1.005.45 1.005 1.005v25.93c0 .555-.45 1.004-1.004 1.004z" fill="#1C3E58"/><path d="M157.055 127.787h23.92v-23.92h-23.92v23.92zm24.926 2.01h-25.93c-.554 0-1.004-.45-1.004-1.005v-25.93c0-.555.45-1.005 1.005-1.005h25.93c.555 0 1.005.45 1.005 1.005v25.93c0 .555-.45 1.004-1.004 1.004zM142.8 89.08c-.37 0-.726-.207-.9-.56-2.826-5.7-4.26-11.84-4.26-18.248 0-22.685 18.458-41.142 41.143-41.142 11.77 0 23 5.057 30.81 13.875.368.415.33 1.05-.086 1.418-.414.368-1.05.33-1.418-.086-7.43-8.388-18.11-13.198-29.307-13.198-21.578 0-39.133 17.554-39.133 39.132 0 6.096 1.362 11.935 4.05 17.356.245.497.043 1.1-.455 1.346-.143.07-.295.105-.445.105" fill="#1C3E58"/><path d="M155.486 86.922c-.322 0-.64-.155-.834-.444-3.228-4.796-4.934-10.4-4.934-16.206 0-13.613 9.647-25.564 22.936-28.418.54-.12 1.077.23 1.193.772.117.542-.228 1.076-.77 1.192-12.37 2.656-21.35 13.782-21.35 26.454 0 5.405 1.588 10.62 4.592 15.085.308.46.187 1.084-.274 1.394-.17.117-.366.172-.56.172M202.29 55.942c-.33 0-.65-.16-.843-.455-3.444-5.268-8.635-9.194-14.616-11.055-.53-.165-.824-.727-.66-1.257.165-.53.727-.826 1.258-.66 6.425 1.998 12 6.215 15.7 11.873.304.464.174 1.086-.29 1.39-.17.11-.36.164-.55.164M139.257 32.696c-.253 0-.506-.095-.7-.286-.398-.387-.406-1.023-.018-1.42 4.427-4.536 9.538-8.264 15.19-11.082.5-.247 1.1-.045 1.348.45.248.498.046 1.1-.45 1.348-5.452 2.717-10.38 6.312-14.652 10.687-.197.202-.458.303-.72.303M115.314 65.173c-.03 0-.063-.002-.096-.004-.552-.054-.957-.544-.905-1.096.428-4.507 1.332-8.973 2.686-13.272.165-.53.73-.822 1.258-.656.53.166.823.73.657 1.26-1.312 4.164-2.187 8.49-2.6 12.857-.05.52-.488.91-1 .91M131.347 28.673c-.24 0-.48-.084-.67-.257-.414-.37-.448-1.006-.077-1.418 6.39-7.113 14.41-12.815 23.19-16.49.51-.216 1.1.026 1.316.538.214.512-.027 1.1-.538 1.314-8.51 3.562-16.28 9.088-22.474 15.98-.198.22-.472.333-.747.333" fill="#1C3E58"/><path d="M188.315 23.83H171.62c-1.96 0-3.55-1.59-3.55-3.553v-7.932c0-1.962 1.59-3.552 3.55-3.552h16.695c1.96 0 3.552 1.59 3.552 3.552v7.932c0 1.962-1.59 3.553-3.552 3.553" fill="#FABF62"/><path d="M171.62 9.797c-1.404 0-2.548 1.143-2.548 2.548v7.933c0 1.404 1.144 2.547 2.548 2.547h16.695c1.405 0 2.548-1.143 2.548-2.547v-7.933c0-1.405-1.143-2.548-2.548-2.548H171.62zm16.695 15.037H171.62c-2.512 0-4.556-2.044-4.556-4.556v-7.933c0-2.513 2.044-4.557 4.556-4.557h16.695c2.512 0 4.556 2.044 4.556 4.557v7.933c0 2.512-2.043 4.556-4.555 4.556z" fill="#1C3E58"/><path d="M188.892 9.797c-.555 0-1.004-.45-1.004-1.004 0-3.527-3.553-6.396-7.92-6.396-4.368 0-7.92 2.87-7.92 6.396 0 .555-.45 1.004-1.005 1.004-.555 0-1.004-.45-1.004-1.004 0-4.634 4.453-8.405 9.927-8.405 5.476 0 9.93 3.77 9.93 8.405 0 .555-.45 1.004-1.005 1.004M172.33 20.572c-.554 0-1.004-.45-1.004-1.005v-6.75c0-.553.45-1.003 1.005-1.003.556 0 1.005.45 1.005 1.004v6.75c0 .554-.45 1.004-1.004 1.004M177.54 20.572c-.554 0-1.004-.45-1.004-1.005v-6.75c0-.553.45-1.003 1.005-1.003.555 0 1.005.45 1.005 1.004v6.75c0 .554-.45 1.004-1.004 1.004M182.75 20.572c-.555 0-1.004-.45-1.004-1.005v-6.75c0-.553.45-1.003 1.004-1.003.555 0 1.005.45 1.005 1.004v6.75c0 .554-.45 1.004-1.005 1.004M187.96 20.572c-.555 0-1.005-.45-1.005-1.005v-6.75c0-.553.45-1.003 1.005-1.003.555 0 1.004.45 1.004 1.004v6.75c0 .554-.45 1.004-1.004 1.004M175.054 31.25c-.555 0-1.004-.448-1.004-1.003V23.83c0-.556.45-1.005 1.004-1.005.555 0 1.005.45 1.005 1.004v6.417c0 .555-.45 1.004-1.006 1.004M185.177 31.25c-.555 0-1.004-.448-1.004-1.003V23.83c0-.556.45-1.005 1.004-1.005.555 0 1.005.45 1.005 1.004v6.417c0 .555-.45 1.004-1.005 1.004M179.687 89.096c-.555 0-1.004-.45-1.004-1.004V37.594c0-.555.45-1.005 1.004-1.005.555 0 1.004.45 1.004 1.004v50.498c0 .555-.448 1.004-1.003 1.004" fill="#1C3E58"/><path d="M174.118 71.43c0 3.077 2.493 5.57 5.57 5.57 3.075 0 5.568-2.493 5.568-5.57 0-3.074-2.493-5.568-5.57-5.568-3.075 0-5.568 2.494-5.568 5.57" fill="#4088DA"/><path d="M179.687 66.866c-2.517 0-4.564 2.048-4.564 4.565 0 2.518 2.047 4.565 4.564 4.565s4.565-2.047 4.565-4.564c0-2.516-2.048-4.564-4.565-4.564m0 11.138c-3.624 0-6.574-2.948-6.574-6.573 0-3.624 2.95-6.572 6.574-6.572 3.625 0 6.573 2.948 6.573 6.573 0 3.626-2.948 6.574-6.573 6.574" fill="#1C3E58"/><path d="M138.63 44.194l-4.023 7.314c-.615 1.118-2.02 1.525-3.136.91l-5.29-2.91c-1.117-.614-1.525-2.018-.91-3.135l4.022-7.314c.615-1.118 2.02-1.526 3.136-.912l5.29 2.91c1.118.615 1.526 2.02.91 3.136" fill="#FABF62"/><path d="M131.317 38.867c-.477 0-.915.26-1.145.676l-4.022 7.314c-.347.63-.116 1.425.514 1.772l5.29 2.908c.618.34 1.437.096 1.772-.514l4.023-7.314c.346-.63.115-1.425-.515-1.772l-5.29-2.91c-.196-.107-.407-.16-.628-.16m1.265 14.84c-.556 0-1.107-.14-1.595-.41l-5.29-2.91c-1.6-.88-2.188-2.898-1.307-4.5l4.022-7.313c.582-1.06 1.696-1.717 2.905-1.717.555 0 1.106.142 1.595.41l5.29 2.91c1.6.88 2.188 2.9 1.307 4.5l-4.023 7.315c-.582 1.058-1.696 1.716-2.905 1.716" fill="#1C3E58"/><path d="M132.886 49.743c-.163 0-.33-.04-.483-.125l-4.72-2.596c-.486-.267-.664-.878-.396-1.364.267-.486.876-.663 1.364-.396l4.72 2.596c.487.267.664.878.397 1.364-.183.333-.527.52-.88.52M135.54 44.92c-.164 0-.33-.042-.484-.126l-4.72-2.596c-.487-.267-.664-.878-.396-1.364.267-.486.877-.663 1.364-.396l4.72 2.596c.487.267.664.878.396 1.364-.183.333-.526.52-.88.52M141.912 54.707c-.163 0-.33-.04-.483-.125l-6.537-3.595c-.486-.266-.663-.877-.396-1.363s.877-.663 1.364-.397l6.537 3.595c.487.267.664.878.396 1.364-.183.333-.526.52-.88.52M144.566 49.882c-.164 0-.33-.04-.484-.124l-6.536-3.595c-.486-.266-.663-.877-.396-1.363.268-.487.877-.663 1.364-.397l6.537 3.595c.486.267.664.878.396 1.364-.182.332-.526.52-.88.52M46.944 167.36h-21.43c-6.56 0-11.897-5.338-11.897-11.898s5.336-11.897 11.896-11.897H42.74c4.834 0 8.765-3.932 8.765-8.764 0-4.83-3.93-8.763-8.764-8.763H11.603c-6.397 0-11.602-5.204-11.602-11.6 0-6.398 5.205-11.603 11.602-11.603h59.664c3.793 0 6.88-3.085 6.88-6.878 0-3.792-3.087-6.878-6.88-6.878l-22.367.018c-4.93 0-8.94-4.01-8.94-8.937 0-4.93 4.01-8.94 8.938-8.94h76.056c.555 0 1.005.45 1.005 1.006 0 .555-.45 1.005-1.006 1.005H48.898c-3.82 0-6.93 3.108-6.93 6.93 0 3.82 3.11 6.927 6.93 6.927l22.368-.018c4.9 0 8.887 3.986 8.887 8.886 0 4.9-3.986 8.888-8.887 8.888H11.602c-5.29 0-9.593 4.303-9.593 9.592 0 5.29 4.302 9.592 9.592 9.592h31.14c5.94 0 10.77 4.833 10.77 10.773 0 5.94-4.83 10.773-10.77 10.773H25.51c-5.45 0-9.887 4.436-9.887 9.89 0 5.45 4.436 9.887 9.888 9.887h21.43c.556 0 1.005.45 1.005 1.005 0 .555-.45 1.004-1.004 1.004M98.863 63.847H63.52c-.555 0-1.004-.45-1.004-1.004 0-.555.45-1.005 1.004-1.005h35.343c.555 0 1.004.45 1.004 1.005 0 .555-.45 1.004-1.004 1.004" fill="#1C3E58"/><path d="M13.042 118.933c-2.61 0-4.734-2.124-4.734-4.734 0-2.612 2.124-4.735 4.734-4.735h49.965c.555 0 1.005.45 1.005 1.005 0 .554-.45 1.004-1.005 1.004H13.042c-1.502 0-2.725 1.222-2.725 2.725 0 1.502 1.223 2.724 2.725 2.724.555 0 1.005.45 1.005 1.005 0 .554-.45 1.003-1.005 1.003M116.15 124.498c-.555 0-1.005-.45-1.005-1.005v-12.015l-3.075 2.653c-.42.364-1.054.317-1.417-.104-.362-.42-.315-1.054.104-1.417l4.737-4.086c.297-.255.718-.316 1.074-.152.357.163.586.52.586.913v14.208c0 .555-.45 1.005-1.005 1.005" fill="#1C3E58"/><path d="M116.15 124.498c-.555 0-1.005-.45-1.005-1.005v-14.208c0-.392.23-.75.586-.913.357-.164.777-.103 1.075.152l4.736 4.085c.422.362.47.996.106 1.416-.363.42-.996.468-1.416.105l-3.076-2.652v12.015c0 .555-.45 1.005-1.005 1.005M136.337 112.632h10.3c-.452-1.852-2.124-3.23-4.114-3.23h-2.072c-1.988 0-3.66 1.378-4.113 3.23m11.425 2.01h-12.55c-.555 0-1.004-.45-1.004-1.005 0-3.443 2.8-6.244 6.243-6.244h2.073c3.443 0 6.244 2.8 6.244 6.244 0 .554-.45 1.004-1.005 1.004M162.563 110.112c.452 1.852 2.125 3.23 4.114 3.23h2.072c1.988 0 3.66-1.378 4.113-3.23h-10.3zm6.186 5.24h-2.073c-3.443 0-6.244-2.802-6.244-6.244 0-.555.45-1.005 1.005-1.005h12.55c.555 0 1.005.45 1.005 1.005 0 3.442-2.802 6.243-6.244 6.243z" fill="#1C3E58"/><path d="M138.764 127.177c-2.055 0-3.728-1.672-3.728-3.728 0-.556.45-1.005 1.005-1.005.556 0 1.005.45 1.005 1.004 0 .947.77 1.718 1.72 1.718.947 0 1.718-.77 1.718-1.72v-9.81c0-.556.45-1.006 1.004-1.006.555 0 1.005.45 1.005 1.005v9.812c0 2.055-1.672 3.727-3.728 3.727M167.713 124.498c-.555 0-1.005-.45-1.005-1.005v-9.146c0-.555.45-1.004 1.005-1.004.555 0 1.004.45 1.004 1.004v9.146c0 .555-.45 1.005-1.004 1.005" fill="#1C3E58"/><path d="M172.62 124.498h-9.813c-.555 0-1.005-.45-1.005-1.005 0-.554.45-1.004 1.005-1.004h9.812c.554 0 1.004.45 1.004 1.003 0 .555-.45 1.005-1.005 1.005M103.857 64.004c-.55 0-1.026-.39-1.136-.93-.127-.627.28-1.24.906-1.37.08-.014.157-.022.233-.022.548 0 1.026.39 1.136.93.127.626-.28 1.24-.906 1.368-.078.016-.156.024-.233.024M213.05 48.6c-.55 0-1.027-.39-1.137-.928-.128-.627.28-1.24.906-1.37.077-.015.155-.023.232-.023.55 0 1.026.39 1.136.928.128.628-.28 1.242-.905 1.37-.078.015-.157.023-.233.023M190.86 177.688c-.55 0-1.027-.39-1.137-.93-.127-.627.28-1.242.906-1.37.077-.014.155-.022.23-.022.55 0 1.028.39 1.138.93.128.626-.278 1.24-.906 1.368-.078.016-.156.024-.232.024M118.22 159.17c-.548 0-1.026-.392-1.136-.93-.128-.628.28-1.242.906-1.37.078-.016.156-.024.232-.024.55 0 1.027.39 1.137.93.127.627-.28 1.24-.907 1.37-.078.015-.156.023-.232.023M67.968 111.63c-.55 0-1.027-.39-1.137-.928-.06-.305 0-.614.17-.873.172-.26.433-.436.737-.498.078-.016.156-.023.233-.023.548 0 1.026.39 1.136.927.062.304.002.614-.17.873-.17.258-.432.435-.736.497-.077.016-.155.023-.232.023M360.995 101.922c-.55 0-1.027-.39-1.136-.93-.128-.627.278-1.24.904-1.37.08-.014.156-.022.233-.022.55 0 1.028.39 1.136.93.128.626-.278 1.24-.905 1.368-.08.016-.156.024-.233.024M305.636 33.873c-.548 0-1.026-.39-1.136-.93-.128-.627.28-1.24.906-1.37.078-.014.156-.022.233-.022.547 0 1.025.392 1.134.93.062.304.003.614-.17.872-.17.26-.43.435-.735.498-.08.015-.157.023-.234.023" fill="#1C3E58"/><path d="M375.355 83.706l-5.896-2.797-9.725 1.5c-1.497.15-1.685 2.472-.237 2.91l18.707 1.55c-.468-1.347-1.485-2.516-2.85-3.164" fill="#4088DA"/><path d="M359.72 84.332l16.663 1.38c-.404-.456-.9-.833-1.46-1.098l-5.616-2.665-9.42 1.452c-.307.032-.36.307-.372.424-.007.067-.025.383.206.506m18.485 3.544c-.028 0-.055-.002-.083-.004l-18.707-1.55c-.07-.006-.14-.02-.21-.04-1.114-.338-1.81-1.43-1.69-2.652.12-1.213.97-2.105 2.12-2.22l9.67-1.494c.2-.03.402 0 .584.086l5.896 2.797c1.574.745 2.802 2.11 3.368 3.742.11.32.053.676-.156.945-.19.246-.484.39-.793.39M130.12 82.23H81.193c-.555 0-1.005-.45-1.005-1.004 0-.555.45-1.004 1.005-1.004h48.93c.554 0 1.003.45 1.003 1.004 0 .555-.45 1.004-1.004 1.004M334.656 70.758h-30.18c-.554 0-1.004-.45-1.004-1.004 0-.555.45-1.005 1.004-1.005h30.18c.555 0 1.005.45 1.005 1.004 0 .555-.45 1.004-1.004 1.004M168.29 72.313h-11.013c-.488 0-.883-.395-.883-.882s.395-.88.883-.88h11.013c.487 0 .882.393.882.88 0 .488-.395.883-.882.883M202.097 72.313h-11.013c-.487 0-.882-.395-.882-.882s.395-.88.882-.88h11.013c.487 0 .883.393.883.88 0 .488-.396.883-.883.883M171.628 64.254c-.226 0-.45-.086-.624-.258l-7.787-7.788c-.345-.344-.345-.903 0-1.247.344-.344.902-.344 1.247 0l7.788 7.788c.344.345.344.903 0 1.248-.172.172-.398.258-.624.258M195.533 88.16c-.225 0-.45-.086-.623-.26l-7.788-7.787c-.344-.344-.344-.902 0-1.247.344-.344.904-.344 1.248 0l7.787 7.788c.345.344.345.903 0 1.247-.172.174-.398.26-.624.26M187.746 64.254c-.226 0-.452-.086-.624-.258-.344-.345-.344-.903 0-1.248l7.788-7.787c.344-.344.903-.344 1.247 0 .345.345.345.904 0 1.248l-7.787 7.788c-.172.172-.398.258-.624.258M163.84 88.16c-.226 0-.45-.086-.623-.26-.345-.343-.345-.902 0-1.246l7.787-7.788c.344-.344.903-.344 1.248 0 .344.345.344.903 0 1.247l-7.788 7.788c-.172.174-.398.26-.624.26" fill="#1C3E58"/></g></svg>