<svg width="267" height="249" viewBox="0 0 267 249" xmlns="http://www.w3.org/2000/svg" xmlns:xlink="http://www.w3.org/1999/xlink"><title>Page 1</title><defs><path id="a" d="M28.076 28.106V.492H.462v27.614h27.614z"/><path id="c" d="M.2 61.908h38.45V.158H.2z"/></defs><g fill="none" fill-rule="evenodd"><path d="M56.25 139.31c3.925-3.974 6.36-6.39 6.36-6.39l6.09 6.52c4.567-2.25 7.717-6.94 7.717-12.377 0-7.625-6.18-13.807-13.807-13.807-7.625 0-13.807 6.182-13.807 13.807 0 5.33 3.025 9.947 7.448 12.248" fill="#FABF62"/><path d="M138.705 152.15c-.375 0-.737-.203-.923-.557-.268-.51-.073-1.14.437-1.407.428-.225.852-.456 1.274-.693.5-.28 1.137-.102 1.418.4.28.5.103 1.136-.4 1.417-.437.246-.878.485-1.323.72-.156.08-.322.12-.485.12M146.414 57.542c-.218 0-.44-.068-.627-.21-.835-.632-1.7-1.248-2.573-1.832-.478-.32-.606-.968-.285-1.445.32-.48.967-.605 1.444-.286.905.606 1.803 1.245 2.67 1.9.46.346.55 1 .202 1.458-.204.27-.516.414-.832.414zm9.303 8.86c-.298 0-.593-.13-.8-.375-.67-.8-1.372-1.597-2.092-2.367-.394-.42-.372-1.08.048-1.472.42-.392 1.08-.37 1.47.05.75.796 1.48 1.623 2.173 2.453.37.443.31 1.1-.132 1.468-.194.163-.432.243-.667.243zm7.06 10.733c-.38 0-.75-.21-.932-.573-.468-.93-.974-1.864-1.502-2.78-.288-.498-.117-1.134.38-1.422.5-.288 1.135-.117 1.423.38.55.95 1.073 1.92 1.56 2.884.258.513.053 1.14-.46 1.4-.152.075-.312.11-.47.11zm4.424 12.06c-.47 0-.895-.32-1.01-.798-.246-1.02-.525-2.046-.83-3.048-.165-.552.146-1.134.697-1.3.555-.168 1.132.145 1.3.695.314 1.04.603 2.106.857 3.165.136.56-.208 1.122-.768 1.256-.08.02-.164.03-.245.03zm1.56 12.753c-.572 0-1.038-.46-1.042-1.033-.008-1.046-.046-2.108-.113-3.157-.037-.574.398-1.07.973-1.106.594-.03 1.07.4 1.105.973.07 1.088.11 2.19.12 3.274.003.575-.46 1.044-1.035 1.048h-.008zm-1.354 12.774c-.076 0-.152-.01-.23-.026-.56-.126-.914-.683-.787-1.244.227-1.022.43-2.064.6-3.1.093-.568.63-.953 1.196-.86.567.094.95.63.86 1.197-.177 1.074-.387 2.157-.625 3.218-.107.484-.537.814-1.014.814zm-4.23 12.128c-.153 0-.308-.034-.454-.105-.518-.25-.734-.873-.484-1.39.454-.938.89-1.907 1.295-2.883.22-.53.828-.783 1.363-.56.53.22.78.83.56 1.36-.42 1.013-.872 2.018-1.343 2.99-.18.372-.55.588-.938.588zm-6.886 10.844c-.23 0-.46-.075-.654-.232-.446-.36-.517-1.017-.155-1.465.663-.82 1.308-1.664 1.916-2.512.336-.468.988-.574 1.455-.238.468.336.574.987.24 1.453-.633.88-1.3 1.757-1.988 2.607-.206.255-.508.387-.812.387zm-9.156 9.007c-.31 0-.616-.137-.822-.4-.354-.453-.274-1.108.18-1.462.83-.648 1.65-1.326 2.432-2.014.433-.38 1.092-.336 1.47.095.38.43.338 1.09-.095 1.47-.815.714-1.665 1.418-2.526 2.09-.19.15-.416.22-.64.22zM136.77 51.675c-.152 0-.305-.033-.45-.103-.436-.208-.875-.41-1.317-.608-.526-.235-.762-.85-.527-1.375.233-.527.85-.764 1.375-.53.46.206.916.417 1.37.633.518.248.738.87.49 1.39-.18.373-.552.592-.94.592M163.54 165.712c-.33 0-.656-.158-.858-.452-.326-.474-.206-1.123.27-1.448.4-.276.798-.555 1.194-.838.466-.335 1.118-.227 1.452.24.335.47.228 1.12-.24 1.454-.408.29-.816.578-1.228.86-.18.125-.385.184-.59.184M150.37 30.83c-.138 0-.28-.03-.415-.087-.97-.422-1.958-.828-2.938-1.206-.536-.207-.804-.81-.596-1.347.208-.538.812-.803 1.348-.596 1.006.388 2.022.805 3.02 1.238.526.23.768.843.54 1.37-.172.393-.556.628-.958.628m11.343 6.106c-.196 0-.392-.055-.568-.17-.887-.577-1.795-1.142-2.7-1.678-.494-.294-.658-.933-.364-1.428.295-.495.933-.658 1.428-.364.93.55 1.862 1.13 2.773 1.725.484.315.62.96.307 1.442-.2.307-.534.474-.874.474m10.18 7.902c-.252 0-.503-.09-.704-.274-.78-.716-1.584-1.424-2.387-2.104-.44-.372-.495-1.03-.124-1.468.37-.44 1.027-.495 1.467-.123.827.698 1.65 1.424 2.45 2.16.425.39.453 1.047.064 1.47-.205.224-.484.338-.766.338m8.742 9.475c-.31 0-.617-.138-.822-.4-.645-.828-1.32-1.66-2.01-2.47-.372-.44-.318-1.097.12-1.47.44-.37 1.1-.316 1.47.122.706.833 1.4 1.686 2.064 2.536.353.455.27 1.11-.182 1.463-.19.148-.416.22-.64.22m7.06 10.792c-.37 0-.73-.198-.918-.546-.5-.927-1.03-1.86-1.574-2.77-.294-.495-.133-1.134.36-1.43.495-.293 1.134-.133 1.43.362.558.937 1.102 1.894 1.617 2.846.274.506.086 1.137-.42 1.41-.158.086-.328.127-.495.127m5.167 11.82c-.433 0-.838-.273-.986-.706-.343-1.01-.71-2.018-1.09-2.997-.21-.536.056-1.14.592-1.348.536-.21 1.14.056 1.348.593.392 1.006.77 2.042 1.123 3.078.184.545-.107 1.137-.65 1.322-.113.038-.226.056-.338.056m3.12 12.512c-.5 0-.942-.363-1.026-.875-.168-1.04-.36-2.093-.574-3.128-.116-.564.247-1.114.81-1.23.567-.116 1.115.247 1.23.81.22 1.064.418 2.146.592 3.216.092.568-.294 1.103-.862 1.195-.057.01-.113.013-.17.013m1.005 12.85h-.007c-.576-.004-1.04-.473-1.035-1.048v-.343c0-.95-.017-1.896-.05-2.837-.022-.575.427-1.06 1-1.08.563-.026 1.06.428 1.08 1.003.036.968.054 1.94.054 2.915l-.002.357c-.004.573-.47 1.034-1.04 1.034m-1.102 12.84c-.06 0-.118-.005-.176-.015-.567-.095-.95-.633-.853-1.2.177-1.042.334-2.1.466-3.145.073-.57.603-.975 1.165-.902.57.073.975.594.902 1.165-.136 1.074-.298 2.16-.48 3.23-.085.51-.526.868-1.024.868m-3.207 12.48c-.115 0-.23-.02-.344-.06-.543-.19-.83-.783-.64-1.326.345-.988.676-2.006.983-3.024.165-.55.746-.86 1.297-.697.552.166.863.747.696 1.298-.316 1.047-.655 2.093-1.01 3.108-.15.43-.553.7-.984.7m-5.25 11.77c-.17 0-.344-.043-.503-.13-.504-.28-.687-.912-.41-1.416.505-.916 1.002-1.864 1.478-2.818.257-.516.88-.726 1.397-.468.514.256.724.88.468 1.396-.49.98-1 1.954-1.518 2.896-.19.344-.546.538-.913.538m-7.15 10.726c-.225 0-.454-.074-.646-.226-.45-.358-.525-1.013-.167-1.464.662-.832 1.31-1.684 1.927-2.53.34-.466.99-.568 1.455-.23.464.34.567.99.23 1.455-.636.87-1.302 1.746-1.982 2.602-.206.26-.51.393-.817.393m-8.834 9.386c-.285 0-.57-.116-.775-.346-.384-.428-.348-1.086.08-1.47.79-.71 1.57-1.442 2.322-2.176.41-.402 1.07-.395 1.472.016.402.41.395 1.07-.016 1.473-.772.755-1.576 1.507-2.387 2.236-.197.178-.446.266-.694.266M134.152 25.815c-.064 0-.13-.006-.197-.02-.477-.09-.957-.177-1.437-.26-.567-.097-.947-.636-.85-1.203.1-.568.646-.944 1.203-.85.495.085.985.174 1.476.268.565.108.936.653.828 1.22-.095.497-.532.845-1.022.845M223.407 119.46c-.06 0-.12-.004-.18-.015-.566-.098-.947-.637-.848-1.204.082-.478.162-.96.237-1.442.09-.568.627-.956 1.19-.867.57.09.957.623.868 1.19-.078.494-.16.986-.243 1.476-.088.507-.528.864-1.025.864M144.65 3.467c-.07 0-.142-.008-.214-.022-.885-.184-1.775-.355-2.67-.515-.566-.102-.943-.642-.842-1.21.1-.565.635-.944 1.208-.84.914.162 1.822.338 2.727.524.562.117.924.67.807 1.232-.1.492-.535.83-1.018.83m12.67 3.508c-.113 0-.228-.02-.342-.058-1.023-.358-2.053-.7-3.092-1.022-.548-.172-.855-.756-.683-1.305.172-.55.755-.857 1.305-.685 1.06.33 2.113.68 3.157 1.044.542.188.83.782.64 1.326-.15.43-.553.698-.984.698m12.102 5.137c-.158 0-.318-.035-.468-.11-.967-.488-1.942-.96-2.926-1.416-.522-.242-.75-.862-.507-1.384.242-.52.862-.748 1.384-.507 1.005.466 2 .948 2.987 1.446.514.258.72.884.462 1.397-.183.364-.55.574-.93.574m11.327 6.674c-.203 0-.407-.058-.587-.18-.895-.61-1.8-1.205-2.718-1.786-.486-.31-.63-.952-.323-1.438.306-.485.95-.63 1.437-.323.936.594 1.86 1.202 2.775 1.824.476.325.6.973.275 1.45-.202.295-.53.454-.86.454m10.366 8.092c-.246 0-.494-.087-.692-.264-.81-.72-1.633-1.43-2.466-2.126-.442-.368-.502-1.025-.133-1.467.368-.44 1.025-.502 1.468-.133.85.71 1.69 1.433 2.516 2.17.43.382.466 1.04.084 1.47-.206.23-.49.35-.778.35m9.234 9.367c-.292 0-.583-.122-.788-.36-.71-.82-1.435-1.63-2.17-2.428-.392-.422-.366-1.08.056-1.472.423-.39 1.082-.365 1.472.06.753.813 1.492 1.64 2.217 2.478.377.434.33 1.092-.106 1.47-.197.17-.44.252-.68.252m7.944 10.49c-.338 0-.67-.166-.87-.47-.6-.907-1.212-1.804-1.84-2.69-.332-.47-.22-1.12.25-1.452.47-.333 1.118-.222 1.45.248.634.893 1.266 1.818 1.88 2.748.316.48.183 1.126-.297 1.443-.177.117-.376.173-.573.173m6.513 11.435c-.386 0-.758-.215-.937-.586-.477-.98-.968-1.95-1.475-2.91-.268-.51-.073-1.14.436-1.407.51-.27 1.14-.073 1.408.435.518.982 1.02 1.972 1.505 2.97.25.518.035 1.142-.48 1.393-.148.072-.303.105-.456.105m4.96 12.194c-.436 0-.84-.277-.987-.713-.344-1.036-.704-2.063-1.08-3.083-.2-.54.077-1.138.617-1.337.54-.2 1.138.077 1.337.616.384 1.04.752 2.09 1.103 3.145.182.547-.114 1.137-.66 1.318-.11.036-.22.054-.33.054m3.318 12.73c-.49 0-.928-.347-1.023-.846-.204-1.068-.426-2.13-.664-3.186-.128-.562.224-1.12.785-1.246.56-.13 1.12.225 1.246.786.24 1.065.47 2.16.678 3.255.11.564-.262 1.11-.826 1.218-.067.013-.133.02-.197.02m1.624 13.05c-.55 0-1.008-.427-1.04-.98-.064-1.087-.145-2.17-.244-3.246-.052-.573.37-1.08.942-1.133.578-.058 1.08.37 1.132.942.102 1.1.185 2.205.25 3.315.033.575-.405 1.068-.98 1.102l-.06.002m-.073 13.153c-.024 0-.048 0-.074-.002-.573-.04-1.006-.54-.966-1.112.076-1.08.134-2.164.175-3.253.022-.575.52-1.027 1.08-1 .576.02 1.024.504 1.002 1.08-.042 1.11-.1 2.216-.178 3.318-.04.55-.497.97-1.04.97M137.62 2.27c-.046 0-.093-.003-.14-.01-.483-.065-.968-.126-1.452-.184-.572-.068-.98-.587-.91-1.158.067-.572.583-.977 1.157-.91.494.06.99.12 1.482.187.57.077.97.6.894 1.17-.07.524-.516.904-1.03.904M182.076 184.602c-.327 0-.65-.154-.853-.442-.33-.47-.218-1.12.252-1.45.4-.282.797-.566 1.192-.853.464-.338 1.116-.234 1.455.23.337.466.234 1.118-.23 1.455-.404.294-.81.583-1.217.87-.183.13-.39.19-.6.19M216.35 142.804c-.14 0-.283-.03-.42-.09-.526-.232-.763-.847-.532-1.373.422-.956.83-1.92 1.222-2.89.215-.534.825-.79 1.355-.576.535.215.793.822.577 1.355-.4.99-.816 1.976-1.248 2.952-.17.39-.553.622-.953.622m-6.802 12.817c-.19 0-.38-.05-.552-.158-.488-.306-.635-.948-.33-1.436.63-1.008 1.256-2.043 1.854-3.078.287-.5.925-.67 1.423-.38.498.287.668.924.38 1.422-.61 1.057-1.247 2.114-1.89 3.142-.2.316-.538.49-.885.49m-8.572 11.707c-.238 0-.478-.083-.673-.248-.44-.373-.492-1.03-.12-1.47.774-.91 1.538-1.846 2.275-2.78.355-.45 1.01-.53 1.463-.172.452.356.53 1.01.173 1.463-.75.953-1.533 1.908-2.322 2.838-.205.244-.5.37-.794.37m-10.158 10.363c-.288 0-.574-.12-.78-.35-.38-.433-.34-1.09.09-1.472.9-.793 1.79-1.61 2.65-2.427.414-.395 1.075-.38 1.47.038.398.417.38 1.077-.035 1.473-.877.834-1.787 1.668-2.705 2.48-.198.175-.444.26-.69.26M219.286 135.362c-.114 0-.23-.02-.344-.06-.543-.19-.83-.783-.64-1.326.162-.46.318-.922.472-1.385.18-.545.767-.843 1.317-.66.547.182.843.77.66 1.317-.156.474-.317.946-.48 1.417-.15.43-.554.698-.984.698" fill="#1C3E58"/><g transform="translate(238.19 208.674)"><mask id="b" fill="#fff"><use xlink:href="#a"/></mask><path d="M.462 14.3c0 7.625 6.18 13.806 13.807 13.806 7.624 0 13.806-6.18 13.806-13.807C28.076 6.672 21.894.49 14.27.49 6.642.492.46 6.672.46 14.3" fill="#25CE9E" mask="url(#b)"/></g><path d="M199.766 43.635c0 5.242 4.25 9.492 9.492 9.492 5.243 0 9.492-4.25 9.492-9.492 0-5.243-4.25-9.492-9.492-9.492-5.243 0-9.492 4.25-9.492 9.492" fill="#FABF62"/><path d="M215.393 88.092c0 5.243 4.25 9.492 9.492 9.492 5.243 0 9.493-4.25 9.493-9.492 0-5.242-4.25-9.493-9.493-9.493-5.242 0-9.492 4.25-9.492 9.492" fill="#25CE9E"/><path d="M178.372 133.874c0 5.242 4.25 9.493 9.493 9.493s9.492-4.25 9.492-9.493-4.25-9.492-9.492-9.492c-5.242 0-9.493 4.25-9.493 9.492" fill="#4088DA"/><path d="M163.086 43.635c0 4.22 3.422 7.643 7.643 7.643 4.22 0 7.643-3.422 7.643-7.643 0-4.22-3.423-7.644-7.644-7.644-4.222 0-7.644 3.424-7.644 7.645" fill="#25CE9E"/><path d="M124.813 140.483c-.576 0-1.042-.467-1.042-1.042v-30.375c0-.576.467-1.042 1.043-1.042.575 0 1.04.466 1.04 1.042v30.376c0 .576-.465 1.043-1.04 1.043M124.813 62.644c-.576 0-1.042-.466-1.042-1.04v-38.34c0-.576.467-1.042 1.043-1.042.575 0 1.04.466 1.04 1.04v38.34c0 .576-.465 1.042-1.04 1.042M232.064 237.082c-.273 0-.547-.108-.75-.32l-76.383-79.555-33.46 38.527c-.378.434-1.035.48-1.47.103-.435-.377-.48-1.035-.104-1.47l34.21-39.387c.19-.22.468-.35.76-.358.295-.02.575.11.778.32l77.17 80.377c.4.414.386 1.074-.03 1.47-.2.196-.46.292-.72.292" fill="#1C3E58"/><g transform="translate(171.034 186.64)"><mask id="d" fill="#fff"><use xlink:href="#c"/></mask><path d="M2.976 5.088c-.35 0-.694-.178-.89-.5L.35 1.742C.05 1.252.208.61.7.31 1.19.012 1.83.166 2.13.658l1.735 2.846c.3.49.144 1.132-.348 1.43-.17.105-.356.154-.54.154m6.938 11.384c-.35 0-.694-.177-.89-.5L7.29 13.128c-.3-.49-.144-1.132.348-1.432.49-.3 1.13-.144 1.43.348l1.736 2.846c.3.49.144 1.13-.347 1.43-.17.104-.357.152-.542.152m6.94 11.385c-.35 0-.695-.177-.89-.5l-1.736-2.845c-.3-.49-.145-1.132.347-1.432.49-.3 1.132-.144 1.43.348l1.736 2.846c.3.49.144 1.13-.347 1.43-.17.104-.357.153-.54.153m6.938 11.385c-.352 0-.694-.177-.89-.5l-1.736-2.846c-.3-.49-.144-1.13.348-1.43.49-.3 1.132-.144 1.43.346l1.736 2.847c.3.49.144 1.13-.347 1.43-.17.104-.357.152-.54.152m6.938 11.385c-.352 0-.694-.177-.89-.5l-1.736-2.846c-.3-.49-.143-1.13.348-1.43.492-.3 1.133-.144 1.43.347l1.736 2.847c.3.49.146 1.132-.346 1.43-.17.104-.357.153-.54.153m6.874 11.28c-.35 0-.694-.176-.89-.5l-1.67-2.74c-.3-.492-.145-1.133.346-1.432.492-.3 1.132-.145 1.43.347l1.673 2.742c.3.49.144 1.132-.347 1.432-.17.103-.357.152-.542.152" fill="#1C3E58" mask="url(#d)"/></g><path d="M148.05 225.494c-.278 0-.557-.112-.762-.33l-84.705-90.747c-6.154 6.147-47.7 47.894-60.678 67.134-.322.477-.97.602-1.446.28-.478-.32-.604-.967-.282-1.445C14.25 179.523 61.4 132.65 61.876 132.18c.2-.2.476-.312.754-.303.282.006.55.125.74.33l85.442 91.534c.392.422.37 1.08-.052 1.474-.2.187-.455.28-.71.28" fill="#1C3E58"/><path d="M63.65 120.23v4.218l3.786-1.98-3.785-2.24zm-1.04 13.73c-.575 0-1.042-.466-1.042-1.04v-14.517c0-.374.2-.72.526-.905.324-.185.723-.182 1.046.008l6.966 4.12c.324.192.52.545.51.922-.01.378-.223.72-.558.897L63.65 126.8v6.12c0 .574-.465 1.04-1.04 1.04zM62.61 193.072c-.467 0-.88-.312-1.004-.765l-7.643-27.76-8.43 3.067c-.37.135-.784.05-1.07-.22-.288-.27-.398-.677-.287-1.054l3.742-12.657-5.132.624c-.568.072-1.09-.337-1.16-.908-.07-.572.338-1.09.908-1.16l6.707-.816c.352-.044.695.094.922.362.227.267.303.63.204.968L46.76 164.95l7.552-2.745c.272-.1.576-.08.833.053.26.133.45.37.526.65l6.78 24.62 5.374-26.77c.063-.315.27-.584.56-.728.29-.143.63-.143.92 0l6.656 3.257 3.3-6.377c.202-.388.625-.61 1.062-.553l6.01.795c.57.075.97.6.895 1.17-.076.57-.603.97-1.17.895l-5.283-.7-3.432 6.632c-.26.502-.874.706-1.383.456l-6.36-3.112-5.97 29.74c-.094.474-.5.82-.983.837l-.037.002M74.21 154.18c-.27 0-.54-.103-.744-.31l-11.6-11.808c-.403-.41-.396-1.07.014-1.473.41-.403 1.07-.398 1.473.012l11.6 11.807c.402.41.396 1.07-.015 1.473-.202.2-.465.298-.73.298M155.88 196.894c-.08 0-.162-.01-.242-.028-.442-.106-.766-.486-.8-.94l-1.13-15.746-5.293 1.978c-.492.184-1.05-.03-1.292-.5l-1.862-3.634c-3.58 2.864-10.23 1.742-10.543 1.688-.566-.1-.945-.64-.846-1.205.1-.567.642-.946 1.206-.847 2.023.352 7.69.675 9.598-2.012.21-.296.554-.462.924-.436.363.026.686.24.852.564l2.104 4.105 5.727-2.14c.308-.114.65-.078.928.1.277.177.454.475.477.802l.995 13.83 7.266-12.193c.247-.415.746-.606 1.206-.462l5.562 1.742.535-3.054c.09-.528.57-.9 1.102-.86l5.084.378c.573.043 1.004.542.96 1.116-.04.573-.516 1.01-1.115.962l-4.142-.308-.577 3.294c-.05.295-.227.554-.483.71-.255.155-.567.193-.853.104l-5.91-1.85-8.54 14.333c-.19.32-.534.51-.895.51M5.294 205.276c-.213 0-.43-.065-.614-.2-.464-.34-.565-.992-.226-1.457l11.095-15.163c.338-.465.99-.566 1.455-.226.465.34.565.993.226 1.457L6.137 204.85c-.204.278-.52.426-.842.426" fill="#1C3E58"/><path d="M50.262 176.48c-.1 0-.2-.014-.3-.044-.55-.165-.864-.745-.7-1.296l.956-3.194c.164-.552.746-.864 1.296-.7.55.165.865.745.7 1.297l-.955 3.193c-.136.452-.55.744-.998.744m-3.818 12.775c-.1 0-.2-.014-.3-.044-.55-.164-.863-.744-.7-1.295l.956-3.194c.164-.55.745-.864 1.296-.7.55.166.865.746.7 1.297l-.954 3.194c-.136.453-.55.745-.998.745m-3.82 12.774c-.097 0-.198-.015-.297-.045-.552-.165-.865-.745-.7-1.296l.954-3.195c.166-.55.747-.865 1.298-.7.55.165.864.746.7 1.297l-.955 3.193c-.135.452-.55.744-.998.744m-3.817 12.774c-.1 0-.2-.014-.3-.044-.55-.164-.864-.745-.7-1.296l.955-3.195c.165-.55.747-.87 1.297-.7.55.165.864.745.7 1.297l-.955 3.194c-.135.453-.55.744-.997.744M73.728 172.81c-.436 0-.842-.275-.988-.71l-1.06-3.16c-.184-.546.11-1.136.655-1.32.545-.184 1.136.11 1.32.656l1.06 3.16c.183.545-.11 1.136-.656 1.32-.11.036-.223.054-.332.054m4.246 12.638c-.435 0-.84-.275-.987-.71l-1.062-3.16c-.184-.545.11-1.135.655-1.32.545-.183 1.137.112 1.32.656l1.06 3.16c.185.546-.11 1.137-.654 1.32-.11.037-.222.054-.332.054m4.246 12.64c-.436 0-.842-.276-.988-.71l-1.06-3.16c-.184-.546.11-1.137.655-1.32.547-.183 1.136.11 1.32.656l1.06 3.16c.183.545-.11 1.135-.656 1.32-.11.036-.22.053-.33.053m4.246 12.638c-.435 0-.84-.274-.987-.71l-1.063-3.158c-.184-.546.11-1.136.655-1.32.547-.185 1.136.11 1.32.655l1.06 3.16c.185.545-.11 1.136-.654 1.32-.11.036-.222.053-.332.053m4.245 12.64c-.434 0-.84-.275-.986-.71l-1.06-3.16c-.184-.545.11-1.136.654-1.32.55-.183 1.137.11 1.32.657l1.06 3.158c.183.547-.11 1.136-.655 1.32-.11.037-.222.054-.332.054m4.247 12.64c-.435 0-.84-.275-.986-.71l-1.06-3.16c-.185-.545.108-1.136.653-1.32.547-.184 1.136.11 1.32.656l1.062 3.16c.183.544-.11 1.135-.655 1.32-.11.036-.222.053-.333.053M120.313 157.938h-17.26c-.574 0-1.04-.467-1.04-1.042s.466-1.04 1.04-1.04h17.26c2.382 0 4.32-1.94 4.32-4.322 0-2.383-1.938-4.32-4.32-4.32H91.557c-.576 0-1.042-.468-1.042-1.043 0-.574.466-1.04 1.042-1.04h28.756c3.53 0 6.404 2.873 6.404 6.404 0 3.53-2.873 6.404-6.404 6.404" fill="#1C3E58"/><path d="M132.055 163.485h-29c-2.105 0-3.816-1.71-3.816-3.815 0-2.104 1.71-3.816 3.814-3.816.575 0 1.04.467 1.04 1.042s-.465 1.042-1.04 1.042c-.955 0-1.732.777-1.732 1.732s.777 1.732 1.732 1.732h29c.577 0 1.043.466 1.043 1.04 0 .577-.466 1.043-1.042 1.043" fill="#1C3E58"/><path d="M132.055 173.286H83.052c-.576 0-1.04-.466-1.04-1.04 0-.577.464-1.043 1.04-1.043h49.003c2.128 0 3.86-1.732 3.86-3.86 0-2.127-1.732-3.858-3.86-3.858-.575 0-1.04-.466-1.04-1.04 0-.577.465-1.043 1.04-1.043 3.277 0 5.942 2.666 5.942 5.942 0 3.276-2.665 5.942-5.942 5.942M132.055 152.576c-.575 0-1.04-.467-1.04-1.042v-42.47c0-.574.465-1.04 1.04-1.04.576 0 1.042.466 1.042 1.04v42.47c0 .575-.466 1.042-1.042 1.042M200.848 203.992c-.575 0-1.042-.467-1.042-1.042v-53.924l-3.47 3.693c-.392.42-1.052.44-1.47.045-.42-.394-.44-1.054-.047-1.473l5.265-5.604c.055-.06.12-.115.188-.16.077-.05.16-.09.244-.12.107-.035.22-.053.33-.053h.002c.106 0 .214.016.318.05.096.03.19.076.274.135h.002c.06.044.118.093.168.148l5.265 5.604c.394.42.374 1.08-.046 1.473-.42.394-1.077.372-1.47-.046l-3.47-3.694v53.924c0 .575-.466 1.042-1.042 1.042M224.886 229.602c-.576 0-1.042-.467-1.042-1.042v-34.804c0-.575.466-1.042 1.042-1.042.575 0 1.04.467 1.04 1.042v34.804c0 .575-.465 1.042-1.04 1.042M248.63 190.483c-2.96 0-5.37 2.408-5.37 5.37 0 2.96 2.41 5.368 5.37 5.368s5.37-2.407 5.37-5.368c0-2.96-2.41-5.37-5.37-5.37m0 12.823c-4.11 0-7.452-3.344-7.452-7.453 0-4.11 3.343-7.452 7.452-7.452 4.11 0 7.453 3.343 7.453 7.452 0 4.11-3.343 7.453-7.453 7.453" fill="#1C3E58"/><path d="M224.733 194.675c-.234 0-.468-.078-.662-.238-3.146-2.595-4.77-5.538-4.827-8.745-.1-5.567 4.6-9.797 4.8-9.974.428-.38 1.086-.343 1.468.088.383.43.345 1.087-.084 1.47-.042.037-4.19 3.79-4.1 8.39.05 2.567 1.42 4.977 4.07 7.164.444.366.506 1.022.14 1.466-.205.25-.503.38-.803.38" fill="#1C3E58"/><path d="M219.908 191.368c-.36 0-.67.05-.847.18-.047.036-.16.117-.16.483 0 .81.06 1.684.14 2.503.698-1.136 1.604-2.265 2.68-2.86-.032-.006-.064-.015-.095-.025-.477-.154-1.157-.28-1.717-.28m-1.432 7.744c-.03 0-.06 0-.09-.003-.467-.042-.85-.39-.935-.85-.024-.14-.633-3.454-.633-6.23 0-1.18.556-1.83 1.022-2.17 1.488-1.078 3.954-.348 4.432-.192.546.178.844.767.665 1.314-.037.115-.092.218-.162.31.165-.03.334-.045.505-.045.575 0 1.04.466 1.04 1.04 0 .577-.465 1.043-1.04 1.043-1.312 0-3.06 3.046-3.83 5.105-.152.41-.542.677-.974.677" fill="#1C3E58"/><path d="M225.038 194.675c-.3 0-.598-.13-.803-.38-.366-.443-.304-1.1.14-1.465 2.65-2.187 4.02-4.597 4.07-7.163.09-4.602-4.058-8.354-4.1-8.39-.43-.384-.467-1.04-.085-1.47.38-.432 1.04-.47 1.468-.09.2.178 4.9 4.408 4.8 9.975-.057 3.207-1.68 6.15-4.828 8.745-.194.16-.43.238-.662.238" fill="#1C3E58"/><path d="M228.05 191.674c1.077.594 1.984 1.723 2.683 2.86.08-.82.138-1.694.138-2.504 0-.364-.112-.446-.16-.482-.454-.33-1.782-.154-2.564.1-.032.01-.063.02-.095.026m3.245 7.438c-.43 0-.822-.267-.975-.677-.77-2.06-2.517-5.105-3.83-5.105-.574 0-1.04-.466-1.04-1.042 0-.575.466-1.04 1.04-1.04.173 0 .342.014.507.043-.07-.09-.126-.195-.163-.31-.178-.547.12-1.133.665-1.312.478-.157 2.945-.886 4.432.193.466.34 1.022.99 1.022 2.17 0 2.777-.61 6.09-.634 6.23-.085.46-.468.808-.934.85l-.09.002M128.79 76.267h3.774c-1.545-1.597-3.01-2.71-3.774-3.248-.763.538-2.228 1.65-3.773 3.247h3.773zm-8.153 20.863c1.983.292 4.664.528 8.153.528 3.49 0 6.17-.236 8.153-.528.656-2.41 1.16-5.383 1.16-8.816 0-3.974-1.724-7.365-3.73-9.964h-11.164c-2.008 2.6-3.733 5.99-3.733 9.964 0 3.433.505 6.405 1.16 8.816zm8.153 4.936c3.05 0 4.808.535 5.804 1.07.434-.8 1.06-2.092 1.666-3.81-1.953.242-4.42.416-7.47.416s-5.517-.174-7.47-.415c.605 1.717 1.233 3.008 1.667 3.81.996-.536 2.754-1.07 5.803-1.07zm-9.507-2.208c-.52.694-1.216 1.924-1.94 4.068-.907 2.68.457 4.553 1.61 5.58.5-2.178 1.743-4.005 2.454-4.917-.493-.847-1.337-2.456-2.124-4.732zm16.89 4.73c.712.913 1.955 2.74 2.455 4.92 1.152-1.028 2.517-2.9 1.61-5.582-.724-2.144-1.422-3.374-1.94-4.068-.787 2.276-1.63 3.885-2.124 4.73zm-16.398 7.813c-.162 0-.324-.037-.474-.113-2.06-1.053-5.53-4.295-3.932-9.028.752-2.226 1.52-3.663 2.196-4.59-1.6-.38-2.344-.723-2.41-.755-.52-.246-.74-.867-.495-1.387.245-.518.863-.74 1.382-.497.023.01.742.33 2.325.685-.567-2.373-.973-5.192-.973-8.4 0-10.63 10.407-17.165 10.85-17.438.17-.105.36-.155.545-.155h.002c.186 0 .375.05.545.155.443.273 10.85 6.807 10.85 17.437 0 3.21-.406 6.028-.973 8.4 1.59-.354 2.31-.676 2.326-.683.518-.238 1.138-.015 1.382.504.243.52.023 1.136-.494 1.38-.068.033-.813.377-2.41.757.675.928 1.443 2.364 2.195 4.59 1.6 4.732-1.874 7.974-3.934 9.027-.325.165-.71.15-1.02-.04-.308-.19-.497-.526-.497-.888 0-2.56-1.81-4.98-2.43-5.734-.147-.095-.262-.23-.337-.416-.014 0-1.036-1.06-5.206-1.06-4.095 0-5.153 1.022-5.242 1.117l-.008.012c-.077.19-.19.318-.34.404-.66.813-2.383 3.177-2.383 5.675 0 .36-.19.698-.498.888-.167.1-.356.153-.545.153z" fill="#1C3E58"/><path d="M128.79 84.956c-1.592 0-2.888 1.295-2.888 2.888s1.296 2.888 2.888 2.888c1.593 0 2.89-1.295 2.89-2.888s-1.297-2.888-2.89-2.888m0 7.86c-2.74 0-4.97-2.23-4.97-4.972 0-2.74 2.23-4.97 4.97-4.97 2.742 0 4.972 2.23 4.972 4.97 0 2.74-2.23 4.97-4.972 4.97M221.92 122.58c-1.688 0-3.062 1.372-3.062 3.06 0 1.69 1.374 3.062 3.06 3.062 1.69 0 3.064-1.373 3.064-3.06 0-1.69-1.374-3.063-3.063-3.063m0 8.206c-2.837 0-5.145-2.31-5.145-5.145 0-2.836 2.308-5.144 5.144-5.144 2.837 0 5.145 2.308 5.145 5.145 0 2.837-2.308 5.146-5.146 5.146M62.61 107.826c-.576 0-1.042-.467-1.042-1.042v-5.732c0-.576.466-1.042 1.042-1.042.575 0 1.04.466 1.04 1.042v5.732c0 .575-.465 1.042-1.04 1.042m-20.31 20.31h-5.734c-.575 0-1.04-.466-1.04-1.04 0-.576.465-1.042 1.04-1.042H42.3c.574 0 1.04.466 1.04 1.04 0 .576-.466 1.043-1.04 1.043m46.354 0h-5.732c-.576 0-1.042-.467-1.042-1.042s.466-1.04 1.042-1.04h5.732c.575 0 1.042.465 1.042 1.04s-.467 1.042-1.042 1.042M48.248 113.775c-.267 0-.533-.102-.737-.306l-4.052-4.054c-.407-.407-.407-1.066 0-1.473.407-.407 1.066-.407 1.473 0l4.054 4.053c.407.407.407 1.067 0 1.473-.203.203-.47.305-.736.305m28.724 0c-.267 0-.533-.102-.736-.306-.407-.407-.407-1.067 0-1.474l4.053-4.053c.406-.407 1.065-.407 1.472 0 .407.407.407 1.066 0 1.473l-4.053 4.053c-.205.203-.47.305-.738.305m-32.778 32.778c-.266 0-.533-.102-.736-.306-.407-.406-.407-1.066 0-1.472l4.053-4.053c.408-.407 1.067-.407 1.474 0 .407.406.407 1.066 0 1.473l-4.053 4.052c-.203.204-.47.306-.736.306m36.832 0c-.267 0-.533-.102-.737-.306l-4.054-4.052c-.407-.407-.407-1.067 0-1.473.407-.407 1.066-.407 1.473 0l4.052 4.053c.407.406.407 1.066 0 1.472-.203.204-.47.306-.736.306M54.838 109.372c-.41 0-.797-.242-.963-.643l-2.194-5.298c-.22-.53.033-1.14.565-1.36.532-.222 1.14.032 1.36.563l2.195 5.296c.22.533-.033 1.142-.564 1.362-.13.054-.265.08-.398.08m26.538 10.992c-.41 0-.797-.242-.963-.643-.22-.53.033-1.14.564-1.36l5.296-2.193c.527-.22 1.14.03 1.36.563.22.532-.03 1.14-.563 1.36l-5.296 2.195c-.13.054-.265.08-.398.08m-42.827 17.74c-.41 0-.797-.243-.964-.644-.22-.53.033-1.14.564-1.36l5.296-2.194c.533-.22 1.14.032 1.36.564.22.53-.03 1.14-.562 1.36l-5.296 2.194c-.13.054-.266.08-.4.08M70.382 109.372c-.132 0-.267-.026-.397-.08-.532-.22-.784-.83-.564-1.36l2.194-5.297c.222-.53.83-.783 1.362-.563.53.22.783.83.564 1.36l-2.194 5.297c-.167.4-.555.642-.964.642m-26.537 10.992c-.133 0-.268-.025-.4-.08l-5.295-2.193c-.53-.22-.784-.828-.563-1.36.22-.53.828-.785 1.36-.563l5.296 2.193c.532.22.784.83.564 1.36-.166.402-.554.644-.962.644m42.826 17.74c-.132 0-.267-.026-.397-.08l-5.296-2.193c-.532-.22-.784-.83-.564-1.36.22-.532.83-.785 1.36-.564l5.298 2.193c.532.22.784.83.564 1.36-.167.402-.554.644-.963.644M203.96 44.677c-.576 0-1.042-.467-1.042-1.042 0-3.336 2.713-6.05 6.048-6.05.576 0 1.042.467 1.042 1.043 0 .575-.466 1.04-1.042 1.04-2.186 0-3.965 1.78-3.965 3.967 0 .575-.465 1.042-1.04 1.042M224.082 94.42c-3.49 0-6.327-2.84-6.327-6.328 0-3.488 2.838-6.327 6.327-6.327.576 0 1.042.466 1.042 1.042 0 .575-.466 1.04-1.042 1.04-2.34 0-4.244 1.905-4.244 4.245s1.904 4.244 4.244 4.244c.576 0 1.042.466 1.042 1.042 0 .575-.466 1.04-1.042 1.04M188.933 140.396c-.576 0-1.042-.466-1.042-1.04 0-.577.467-1.043 1.043-1.043 2.448 0 4.44-1.99 4.44-4.44 0-2.446-1.992-4.437-4.44-4.437-.576 0-1.042-.467-1.042-1.042s.467-1.042 1.043-1.042c3.596 0 6.522 2.926 6.522 6.522s-2.926 6.522-6.522 6.522M132.055 158.07c-.648 0-1.174-.526-1.174-1.174 0-.648.527-1.174 1.175-1.174s1.174.526 1.174 1.174c0 .648-.527 1.175-1.175 1.175M225.038 184.735c-.648 0-1.175-.527-1.175-1.174 0-.647.527-1.174 1.175-1.174s1.174.527 1.174 1.175-.526 1.175-1.174 1.175M185.112 140.53c-.648 0-1.174-.528-1.174-1.176 0-.648.526-1.174 1.174-1.174.648 0 1.175.526 1.175 1.174 0 .648-.527 1.175-1.175 1.175M227.994 94.03c-.648 0-1.174-.527-1.174-1.175s.526-1.174 1.174-1.174c.648 0 1.174.527 1.174 1.175s-.526 1.174-1.174 1.174M213.326 40.727c-.648 0-1.174-.527-1.174-1.174 0-.648.526-1.175 1.174-1.175.648 0 1.174.527 1.174 1.175 0 .647-.526 1.174-1.174 1.174" fill="#1C3E58"/></g></svg>
