<svg width="321" height="222" viewBox="0 0 321 222" xmlns="http://www.w3.org/2000/svg" xmlns:xlink="http://www.w3.org/1999/xlink"><title>Page 1</title><defs><path id="a" d="M.307 43.62h1.62V.21H.307V43.62z"/><path id="c" d="M.16 105.884h67.1V.304H.16v105.58z"/><path id="e" d="M1.948 38.53V.12H.328V38.53h1.62z"/></defs><g fill="none" fill-rule="evenodd"><path d="M125.67 48.333s-7.23 5.163-22.09-2.047c-14.863-7.21-16.04-32.814-37.23-30.754-21.19 2.06-23.103 23.397-34.58 23.985-5.886.295-8.976-3.68-8.976-3.68s2.98 8.058 11.367 6.88c8.39-1.177 10.706-15.12 27.04-10.557 16.333 4.56 8.24 24.868 25.604 36.934 17.407 12.097 32.884 8.51 42.487.723l-1.318-2.82-2.3-18.664z" fill="#4088DA"/><path d="M109.4 77.76c-7.663 0-15.412-2.687-23.06-8-8.72-6.06-11.182-14.123-13.354-21.236C70.794 41.35 68.9 35.152 60.982 32.94c-9.88-2.76-14.246 1.408-18.468 5.437-2.518 2.404-4.896 4.673-8.24 5.143-8.93 1.252-12.208-7.314-12.24-7.4-.14-.375.017-.795.366-.99.35-.193.788-.104 1.033.21.116.148 2.924 3.648 8.297 3.368 4.548-.233 7.61-4.17 11.158-8.728 4.87-6.256 10.93-14.043 23.384-15.254 13.14-1.275 18.91 7.74 24.484 16.46 3.635 5.686 7.393 11.566 13.176 14.37 14.264 6.922 21.2 2.168 21.268 2.12.364-.262.87-.177 1.13.187.26.364.175.87-.19 1.13-.31.222-7.795 5.358-22.915-1.98C97.03 44.01 93.147 37.936 89.39 32.06c-5.556-8.693-10.8-16.904-22.962-15.722-11.76 1.143-17.34 8.312-22.26 14.637-3.793 4.872-7.067 9.08-12.356 9.35-2.407.12-4.374-.42-5.89-1.14 1.653 1.713 4.266 3.273 8.127 2.73 2.826-.396 4.92-2.395 7.345-4.71 4.338-4.14 9.255-8.833 20.023-5.825 8.773 2.45 10.883 9.358 13.117 16.67 2.096 6.862 4.47 14.64 12.73 20.38 14.314 9.945 29.833 10.23 41.516.758.348-.282.858-.23 1.14.12.282.346.228.856-.12 1.138-3.802 3.083-10.147 6.847-18.786 7.275-.538.027-1.076.04-1.615.04" fill="#1C3E58"/><path d="M224.992 164.207s-3.23-1.73-7.926-1.73c-4.697 0-10.373 3.253-12.536 13.7-2.163 10.446-.99 16.317-2.956 20.613-1.965 4.296-2.96 6.13-4.32 7.342-1.363 1.212-5.22 4.06-5.22 4.06s7.516-1.523 11.688-6.437c4.17-4.914 4.484-9.85 10.844-12.23 6.36-2.38 8.792-1.314 8.792-1.314l1.634-24.003z" fill="#25CE9E"/><path d="M55.902 221.394v-74.109c0-8.752 9.754-30.657 33.848-30.657s31.634 25.007 31.634 25.007l-2.818 3.11s-3.23.87-4.847 1.99c-1.616 1.118-2.945 1.884-3.327 4.356-.382 2.472-.135 6.798-.135 6.798s2.662-2.978 5.597-4.912c2.935-1.935 6.56-2.803 6.56-2.803v15.43s-2.857 4.423-2.536 8.692c.32 4.27.637 6.22.637 6.22l1.897-1.727v42.604H55.902z" fill="#ECF0F7"/><path d="M2.308 172.485s3.415-9.697 14.476-9.697c11.06 0 21.523 10.736 32.883 10.736 3.28 0 6.388-2.678 6.388-2.678v23.488s-3.107 3.914-9.196 3.914c-6.09 0-16.53-6.648-22.744-14.105-6.214-7.456-10.434-14.37-21.808-11.658" fill="#ECF0F7"/><path d="M189.88 27.97c-.174 0-.35-.055-.498-.172-.352-.275-.413-.785-.138-1.137.115-.145 11.44-14.74 9.225-25.496-.09-.438.19-.866.63-.957.44-.09.866.192.956.63 2.366 11.493-9.05 26.204-9.537 26.824-.16.205-.4.31-.64.31M204.285 29.962c-.247 0-.49-.113-.65-.326-.267-.357-.194-.865.164-1.133.113-.087 2.883-2.28 3.04-7.88.18-6.376-2.596-17.436-2.624-17.547-.11-.434.153-.875.587-.984.432-.11.873.153.983.587.117.46 2.858 11.387 2.674 17.988-.18 6.434-3.547 9.025-3.69 9.132-.146.11-.316.162-.485.162" fill="#1C3E58"/><g transform="translate(121.297 177.772)"><mask id="b" fill="#fff"><use xlink:href="#a"/></mask><path d="M1.927 1.018c0-.447-.363-.81-.81-.81-.448 0-.81.363-.81.81V43.62h1.62V1.02z" fill="#1C3E58" mask="url(#b)"/></g><g transform="translate(54.933 115.51)"><mask id="d" fill="#fff"><use xlink:href="#c"/></mask><path d="M1.78 34.37c0-17.89 14.554-32.446 32.445-32.446 14.848 0 27.778 10.035 31.44 24.403.112.433.552.694.986.584.435-.11.696-.55.586-.984C63.39 10.84 49.814.304 34.226.304 15.44.304.158 15.584.158 34.37v71.514h1.62V34.37z" fill="#1C3E58" mask="url(#d)"/></g><path d="M122.414 166.415c-.448 0-.81-.362-.81-.81v-15.43c0-.447.362-.81.81-.81.447 0 .81.363.81.81v15.43c0 .448-.363.81-.81.81M46.94 199.058c-.41 0-.825-.018-1.245-.053-10-.836-20.344-11.548-24.88-17.746-9.38-12.823-18.983-7.105-19.08-7.046-.306.19-.7.154-.967-.087-.268-.24-.344-.63-.187-.954 2.657-5.494 6.194-8.89 10.814-10.38 5.854-1.888 13.186-.482 21.792 4.18 11.72 6.348 17.258 6.31 19.84 5.16 1.744-.777 2.073-2.07 2.086-2.126.104-.43.537-.704.968-.606.432.1.707.52.614.955-.018.084-.47 2.087-2.93 3.22-4.223 1.95-11.407.207-21.35-5.18-8.2-4.44-15.107-5.808-20.523-4.06-3.607 1.163-6.503 3.65-8.806 7.58 3.71-1.15 11.54-1.863 19.04 8.387 4.372 5.977 14.286 16.302 23.706 17.09 3.61.303 6.81-.88 9.507-3.507.32-.312.833-.306 1.146.015.312.32.305.833-.016 1.145-2.737 2.667-5.937 4.013-9.528 4.013" fill="#1C3E58"/><path d="M46.64 192.07c-.766 0-1.587-.072-2.468-.228-6.635-1.18-9.996-4.956-15.084-10.67-2.337-2.628-4.987-5.604-8.51-8.966-2.692-2.57-5.592-3.784-8.608-3.618-5.68.32-9.996 5.406-10.04 5.457-.286.343-.796.39-1.14.102-.343-.287-.388-.798-.1-1.14.192-.233 4.816-5.678 11.19-6.036 3.486-.192 6.787 1.172 9.818 4.064 3.57 3.408 6.242 6.41 8.6 9.06 5.036 5.656 8.075 9.07 14.158 10.153 8.566 1.524 10.578-6.134 10.66-6.46.108-.434.545-.7.98-.592.434.107.7.544.593.978-.022.087-2.036 7.896-10.05 7.896M142.933 126.216c-4.583 0-8.58-3.407-9.19-8.07l-1.31-9.978c-.66-5.037 2.897-9.7 7.93-10.395l32.98-4.552c4.183-.576 7.115-4.448 6.54-8.63L178.695 76c-.577-4.182-4.45-7.115-8.63-6.538l-32.697 4.513c-2.466.34-4.915-.304-6.895-1.814-1.98-1.51-3.248-3.7-3.572-6.168L124.97 51.24c-.548-4.175.562-8.312 3.127-11.65 2.564-3.338 6.274-5.478 10.448-6.025l53.49-7.014c12.695-1.663 24.384 7.312 26.05 20.01l2.627 20.04c.058.444-.254.85-.698.91-.442.054-.85-.255-.908-.7l-2.628-20.04c-1.55-11.812-12.422-20.163-24.233-18.613l-53.49 7.014c-3.744.492-7.073 2.412-9.374 5.407-2.3 2.995-3.296 6.707-2.805 10.452l1.934 14.75c.266 2.04 1.314 3.847 2.947 5.093 1.634 1.247 3.655 1.778 5.69 1.497l32.697-4.512c5.064-.7 9.757 2.854 10.457 7.92l1.186 8.59c.7 5.068-2.854 9.76-7.92 10.458l-32.982 4.552c-4.154.573-7.09 4.422-6.544 8.58l1.308 9.976c.266 2.028 1.305 3.83 2.928 5.077 1.62 1.247 3.632 1.786 5.66 1.52l36.808-4.827c.438-.055.85.254.908.698.058.445-.254.852-.698.91l-36.81 4.826c-.406.054-.81.08-1.21.08" fill="#1C3E58"/><path d="M141.212 46.992c-3.235 0-5.867 2.632-5.867 5.867 0 3.234 2.632 5.866 5.867 5.866s5.867-2.632 5.867-5.867c0-3.236-2.633-5.868-5.868-5.868m0 13.354c-4.128 0-7.487-3.36-7.487-7.487 0-4.13 3.36-7.488 7.487-7.488 4.128 0 7.487 3.36 7.487 7.487 0 4.127-3.36 7.486-7.488 7.486" fill="#1C3E58"/><path d="M139.165 46.505c-2.685.864-4.63 3.38-4.63 6.354 0 2.972 1.945 5.49 4.63 6.353 2.686-.864 4.63-3.38 4.63-6.354s-1.944-5.49-4.63-6.355" fill="#FABF62"/><path d="M139.165 47.36c-2.296.853-3.82 3.03-3.82 5.5 0 2.467 1.524 4.644 3.82 5.496 2.296-.852 3.82-3.03 3.82-5.497 0-2.47-1.524-4.647-3.82-5.5m0 12.663c-.084 0-.167-.013-.248-.04-3.105-1-5.192-3.862-5.192-7.124 0-3.263 2.087-6.127 5.192-7.126.16-.052.335-.052.497 0 3.105 1 5.19 3.863 5.19 7.125 0 3.26-2.085 6.124-5.19 7.124-.08.026-.165.04-.25.04M171.665 44.393c-3.236 0-5.868 2.633-5.868 5.867 0 3.236 2.632 5.868 5.868 5.868 3.235 0 5.866-2.632 5.866-5.868 0-3.234-2.63-5.867-5.865-5.867m0 13.354c-4.13 0-7.487-3.358-7.487-7.487 0-4.128 3.358-7.486 7.487-7.486 4.128 0 7.486 3.358 7.486 7.486 0 4.13-3.357 7.487-7.485 7.487" fill="#1C3E58"/><path d="M169.618 43.906c-2.686.865-4.63 3.38-4.63 6.354s1.944 5.49 4.63 6.355c2.686-.865 4.63-3.38 4.63-6.355 0-2.973-1.944-5.49-4.63-6.354" fill="#FABF62"/><path d="M169.618 44.763c-2.296.852-3.82 3.03-3.82 5.497 0 2.468 1.524 4.646 3.82 5.498 2.296-.852 3.82-3.03 3.82-5.498 0-2.468-1.524-4.645-3.82-5.497m0 12.662c-.084 0-.168-.013-.25-.04-3.104-1-5.19-3.863-5.19-7.125s2.086-6.125 5.19-7.124c.163-.053.337-.053.498 0 3.105.998 5.192 3.862 5.192 7.124 0 3.263-2.087 6.126-5.192 7.126-.08.026-.164.04-.248.04" fill="#1C3E58"/><path d="M309.588 221.394v-72.84c0-23.81-19.304-43.114-43.115-43.114-23.812 0-43.115 19.303-43.115 43.115v72.84h86.23z" fill="#25CE9E"/><path d="M310.397 148.555c0-24.22-19.704-43.925-43.924-43.925s-43.925 19.704-43.925 43.925v72.838h1.62v-72.838c0-23.327 18.978-42.305 42.305-42.305 23.327 0 42.304 18.978 42.304 42.305v72.838h1.62v-72.838zM159.83 180.704c-.306 0-.616-.05-.916-.155-.942-.33-1.648-1.11-1.886-2.09-.275-1.126-1.01-1.792-2.25-2.035-1.763-.346-2.954-.997-3.54-1.936-.533-.86-.347-1.633-.324-1.72.04-.144.118-.276.23-.38 3.755-3.516 2.953-7.726 2.202-9.82-2.444 2.8-7.846 2.58-12.297 2.397-.848-.035-1.65-.068-2.388-.078-3.175-.032-4.304 1.807-5.217 3.297-.437.712-.782 1.275-1.325 1.546-.402.2-.837.224-1.262.067-1.158-.43-1.94-2.09-2.702-3.9l-.014-.035c-.144-.342-1-.494-1.688-.617-.997-.18-2.03-.364-2.527-1.193-.18-.3-.337-.805-.073-1.52.645-1.745 3.49-3.847 6.617-4.89l.214-.07c2.574-.857 6.097-2.03 6.595-3.74.18-.625-.066-1.345-.755-2.2-5.672-5.675-10.026-2.703-12.12-1.274-.558.382-.894.61-1.244.68-.397.082-1.615.325-5.6-5.252-.174-.244-.2-.565-.064-.834.118-.234 3.015-5.762 14.672-7.282 9.95-1.298 15.675 6.678 17.26 9.28 1.62-.865 5.806-2.093 15.24-.072 11.69 2.505 26.92.953 31.145-5.922 3.16-5.144-.446-13.28-3.343-19.82-1.198-2.705-2.33-5.26-2.823-7.264-1.784-7.254 2.214-9.53 2.385-9.623.393-.213.885-.07 1.1.324.212.39.07.88-.317 1.095-.143.082-3.06 1.86-1.595 7.817.458 1.865 1.563 4.357 2.732 6.995 3.05 6.885 6.847 15.455 3.24 21.323-4.654 7.58-20.365 9.337-32.863 6.658-11.555-2.475-14.574.2-14.604.227-.182.19-.437.273-.7.23-.26-.04-.477-.21-.593-.446-.216-.433-5.417-10.584-16.055-9.196-8.932 1.165-12.29 4.804-13.177 6.013 1.497 2.037 3.088 3.81 3.7 4.122.148-.086.39-.25.59-.39 2.074-1.413 7.577-5.17 14.213 1.5.02.02.037.04.054.06 1.053 1.294 1.416 2.54 1.077 3.705-.735 2.526-4.563 3.8-7.638 4.824l-.213.072c-3.727 1.243-5.646 3.49-5.65 4.062.166.187.938.325 1.407.41 1.073.19 2.41.43 2.895 1.582l.015.035c1.004 2.388 1.52 2.956 1.778 3.014.11-.085.413-.58.636-.944.936-1.527 2.496-4.072 6.484-4.072h.137c.76.012 1.572.045 2.43.08 4.59.19 10.303.424 11.595-2.807.115-.286.383-.483.69-.506.307-.02.604.13.76.398.043.072 4.123 7.205-1.677 12.917.08.408.672 1.106 2.607 1.485 2.363.464 3.213 2.02 3.51 3.242.11.443.425.795.846.94.222.078.66.158 1.086-.176 2.003-1.562 2.655-5.598 3.285-9.5.68-4.2 1.32-8.166 3.57-10.137 3.13-2.745 8.923-1.906 15.63-.937 5.278.764 11.26 1.63 16.553.747 5.074-.845 8.24-2.46 9.684-4.937 1.542-2.647 1.282-6.557-.82-12.306-2.974-8.135 1.116-10.755 5.852-13.79 1.718-1.1 3.495-2.24 5.183-3.756 5.988-5.38 3.07-16.328-.017-27.92l-.225-.845c-3.014-11.328-14.166-12.6-14.64-12.647-.444-.046-.768-.443-.723-.888.044-.445.442-.772.886-.724.128.013 12.737 1.414 16.043 13.842l.225.846c3.22 12.084 6.26 23.498-.466 29.54-1.786 1.606-3.702 2.833-5.393 3.916-4.657 2.983-7.733 4.954-5.205 11.87 2.312 6.32 2.527 10.54.7 13.678-1.702 2.918-5.24 4.79-10.818 5.72-5.545.923-11.658.038-17.052-.743-6.31-.913-11.76-1.702-14.332.55-1.81 1.588-2.434 5.446-3.037 9.178-.68 4.21-1.384 8.566-3.887 10.52-.495.385-1.092.586-1.7.586M131.006 38.537c-.397 0-6.914-.15-8.144-9.062-1.21-8.768 3.277-14.772 3.47-15.023.208-.272.564-.384.89-.28.326.104.55.403.562.745.022.612.727 15.046 17.41 17.812.44.07.74.49.666.93-.073.44-.49.74-.93.666-9.4-1.558-14.005-6.73-16.213-10.797-1.275-2.35-1.914-4.582-2.234-6.18-1.177 2.325-2.748 6.6-2.016 11.903 1.04 7.547 6.21 7.665 6.5 7.665H131c.437 0 .797.347.81.787.012.447-.34.82-.788.832h-.018z" fill="#1C3E58"/><path d="M125.492 29.354c-1.36 0-2.17-.3-2.24-.33-.417-.16-.624-.63-.462-1.046.16-.416.627-.623 1.043-.464.14.05 3.088 1.076 7.487-1.68.38-.235.88-.12 1.117.26.237.378.122.877-.258 1.115-2.772 1.734-5.104 2.144-6.688 2.144M126.34 36.402c-.447 0-.81-.362-.81-.81 0-.445.36-.808.805-.81.204-.003 4.68-.125 8.197-5.545.244-.376.745-.483 1.12-.24.375.244.482.746.24 1.12-4.023 6.203-9.327 6.284-9.55 6.285h-.002z" fill="#1C3E58"/><path d="M64.51 147.286c0 2.102 1.705 3.807 3.808 3.807 2.103 0 3.808-1.705 3.808-3.807 0-2.103-1.705-3.808-3.808-3.808-2.103 0-3.807 1.705-3.807 3.808" fill="#FABF62"/><path d="M68.318 144.288c-1.653 0-2.998 1.345-2.998 2.997 0 1.654 1.345 2.998 2.998 2.998 1.653 0 2.998-1.344 2.998-2.998 0-1.652-1.345-2.997-2.998-2.997m0 7.615c-2.546 0-4.618-2.072-4.618-4.618 0-2.546 2.072-4.617 4.618-4.617 2.546 0 4.617 2.07 4.617 4.617 0 2.546-2.07 4.618-4.617 4.618" fill="#1C3E58"/><path d="M84.508 147.286c0 2.102 1.705 3.807 3.807 3.807 2.103 0 3.808-1.705 3.808-3.807 0-2.103-1.705-3.808-3.808-3.808-2.102 0-3.807 1.705-3.807 3.808" fill="#FABF62"/><path d="M88.315 144.288c-1.652 0-2.997 1.345-2.997 2.997 0 1.654 1.345 2.998 2.997 2.998 1.653 0 2.998-1.344 2.998-2.998 0-1.652-1.345-2.997-2.998-2.997m0 7.615c-2.546 0-4.617-2.072-4.617-4.618 0-2.546 2.07-4.617 4.617-4.617 2.546 0 4.618 2.07 4.618 4.617 0 2.546-2.072 4.618-4.618 4.618" fill="#1C3E58"/><path d="M65.92 169.252c-.32-.967-.43-2.002-.222-2.998.41-1.947 2.075-4.504 8.304-2.91 8.015 2.05 16.922 4.418 22.955 14.2 2.883 4.673 3.98 15.303-2.388 16.112-6.37.81-4.676-5.224-11.96-11.11-8.52-6.885-14.72-7.327-16.69-13.294" fill="#FFF"/><path d="M70.523 163.654c-2.29 0-3.646.93-4.032 2.767-.165.79-.097 1.68.2 2.578 1.1 3.337 3.646 4.796 7.5 7.004 2.47 1.416 5.544 3.18 8.93 5.914 3.25 2.628 4.757 5.246 5.966 7.35 1.457 2.533 2.194 3.653 4.403 3.653.3 0 .627-.023.976-.068 1.446-.184 2.518-.985 3.185-2.38 1.583-3.31.575-9.33-1.382-12.504-5.928-9.61-14.715-11.857-22.467-13.84-1.23-.315-2.332-.474-3.277-.474M93.49 194.54c-3.24 0-4.43-2.07-5.808-4.467-1.142-1.986-2.564-4.46-5.58-6.897-3.286-2.654-6.172-4.308-8.72-5.768-4.026-2.31-6.935-3.976-8.23-7.902-.386-1.168-.47-2.35-.247-3.42.32-1.513 1.472-4.052 5.618-4.052 1.08 0 2.318.176 3.68.525 7.65 1.956 17.172 4.39 23.443 14.558 2.226 3.61 3.347 10.117 1.467 14.052-.907 1.897-2.444 3.035-4.442 3.29-.416.052-.813.08-1.18.08" fill="#1C3E58"/><path d="M168.443 94.71l-.642-4.645c-.165-1.198-1.27-2.034-2.467-1.87l-2.004.278c-1.2.165-2.035 1.27-1.87 2.468l.642 4.647 6.34-.876z" fill="#25CE9E"/><path d="M165.636 88.985c-.063 0-.128.005-.192.013l-2.005.277c-.754.105-1.282.802-1.178 1.555l.53 3.844 4.738-.654-.532-3.845c-.093-.678-.68-1.19-1.362-1.19m-3.534 7.412c-.176 0-.348-.057-.49-.165-.17-.13-.283-.32-.313-.534l-.642-4.647c-.227-1.636.922-3.153 2.56-3.38l2.004-.276c.137-.02.276-.03.414-.03 1.487 0 2.763 1.114 2.967 2.59l.642 4.646c.03.213-.027.43-.157.6-.13.17-.322.284-.535.313l-6.34.876c-.037.004-.075.007-.11.007" fill="#1C3E58"/><path d="M157.583 96.173l-.642-4.646c-.164-1.197-1.27-2.034-2.466-1.868l-2.005.275c-1.198.166-2.035 1.27-1.87 2.468l.643 4.646 6.34-.877z" fill="#25CE9E"/><path d="M154.776 90.447c-.064 0-.127.005-.192.014l-2.004.277c-.365.05-.688.24-.91.534-.223.295-.318.657-.267 1.022l.53 3.844 4.737-.654-.53-3.844c-.095-.68-.68-1.19-1.364-1.19m-3.534 7.41c-.175 0-.347-.055-.488-.163-.17-.13-.284-.322-.314-.535l-.642-4.646c-.11-.794.096-1.582.58-2.22.484-.64 1.187-1.05 1.98-1.16l2.005-.278c.137-.018.276-.03.413-.03 1.488 0 2.764 1.115 2.968 2.59l.642 4.647c.06.443-.25.852-.692.913l-6.34.876c-.037.005-.075.007-.112.007" fill="#1C3E58"/><path d="M146.552 97.548l-.642-4.646c-.165-1.198-1.27-2.034-2.468-1.87l-2.004.278c-1.197.165-2.034 1.27-1.87 2.467l.643 4.647 6.342-.876z" fill="#25CE9E"/><path d="M143.745 91.822c-.064 0-.128.004-.192.013l-2.004.277c-.754.104-1.282.802-1.178 1.555l.53 3.844 4.737-.653-.532-3.845c-.094-.678-.68-1.19-1.363-1.19m-3.534 7.412c-.174 0-.346-.057-.488-.165-.17-.13-.284-.322-.313-.535l-.643-4.647c-.226-1.638.923-3.154 2.56-3.38l2.004-.277c.138-.018.277-.028.415-.028 1.488 0 2.764 1.113 2.968 2.59l.642 4.645c.06.443-.25.852-.692.913l-6.34.876c-.038.005-.075.008-.112.008" fill="#1C3E58"/><path d="M139.316 73.025l.718 4.635c.186 1.195 1.304 2.013 2.5 1.828l1.998-.31c1.195-.186 2.013-1.304 1.828-2.5l-.72-4.634-6.324.98z" fill="#25CE9E"/><path d="M140.24 73.7l.595 3.836c.103.665.688 1.168 1.36 1.168.07 0 .143-.006.214-.017l1.998-.31c.752-.116 1.268-.823 1.152-1.574l-.595-3.835-4.725.733zm1.955 6.624c-1.487 0-2.733-1.07-2.96-2.54l-.72-4.635c-.068-.443.235-.857.676-.925l6.327-.98c.213-.035.43.018.602.146.172.127.29.317.32.53l.72 4.635c.253 1.633-.87 3.17-2.503 3.423l-2 .31c-.153.023-.308.036-.462.036z" fill="#1C3E58"/><path d="M150.64 71.41l.635 4.647c.163 1.197 1.266 2.036 2.464 1.873l2.004-.274c1.198-.163 2.036-1.267 1.873-2.464l-.634-4.647-6.342.864z" fill="#25CE9E"/><path d="M151.553 72.103l.524 3.845c.093.68.68 1.192 1.363 1.192.062 0 .126-.004.19-.013l2.004-.273c.753-.103 1.283-.8 1.18-1.553l-.524-3.843-4.737.646zm1.887 6.656c-1.49 0-2.766-1.115-2.968-2.594l-.634-4.647c-.06-.445.25-.853.694-.913l6.342-.865c.212-.028.428.028.6.158.17.13.283.322.312.535l.633 4.648c.223 1.638-.93 3.152-2.567 3.376l-2.005.272c-.135.02-.272.027-.408.027z" fill="#1C3E58"/><path d="M162.008 69.83l.632 4.647c.163 1.198 1.266 2.037 2.464 1.874l2.005-.272c1.196-.162 2.035-1.266 1.873-2.464l-.633-4.647-6.342.862z" fill="#25CE9E"/><path d="M162.92 70.523l.522 3.845c.102.742.792 1.284 1.552 1.18l2.005-.272c.365-.05.688-.24.91-.532.224-.293.32-.656.27-1.02l-.523-3.846-4.738.645zm1.886 6.658c-1.49 0-2.767-1.114-2.968-2.594l-.633-4.647c-.06-.445.25-.853.694-.913l6.34-.863c.215-.03.43.028.6.158.172.13.285.323.313.535l.632 4.648c.108.794-.1 1.582-.584 2.22-.484.637-1.19 1.048-1.983 1.156l-2.004.273c-.135.02-.272.028-.407.028zM124.032 123.172c-.15 0-.302-.04-.437-.128-.377-.24-.486-.742-.245-1.12 4.54-7.08 4.013-15.61-1.66-26.84-2.304-4.564-2.428-7.88-1.896-10.126-1.537 2.057-2.764 5.7-.944 11.862 3.7 12.537-2.664 18.872-2.936 19.135-.323.31-.835.302-1.146-.02-.31-.32-.302-.833.018-1.143.25-.247 5.917-5.974 2.51-17.513-3.774-12.784 4.744-16.182 4.83-16.215.374-.14.793.01.99.356.2.346.115.785-.195 1.034-.16.134-4.03 3.49.217 11.9 5.874 11.63 6.39 20.936 1.577 28.445-.155.24-.416.372-.682.372" fill="#1C3E58"/><path d="M233.51 147.046c0 2.46 1.994 4.452 4.453 4.452 2.458 0 4.45-1.993 4.45-4.452 0-2.458-1.992-4.45-4.45-4.45-2.46 0-4.452 1.992-4.452 4.45" fill="#FFF"/><path d="M237.962 143.405c-2.007 0-3.64 1.634-3.64 3.642 0 2.007 1.633 3.64 3.64 3.64 2.01 0 3.642-1.633 3.642-3.64 0-2.008-1.633-3.642-3.642-3.642m0 8.902c-2.9 0-5.26-2.36-5.26-5.26 0-2.902 2.36-5.262 5.26-5.262s5.26 2.36 5.26 5.262c0 2.9-2.36 5.26-5.26 5.26" fill="#1C3E58"/><path d="M252.27 147.046c0 2.46 1.992 4.452 4.45 4.452 2.46 0 4.452-1.993 4.452-4.452 0-2.458-1.993-4.45-4.45-4.45-2.46 0-4.452 1.992-4.452 4.45" fill="#FFF"/><path d="M256.72 143.405c-2.007 0-3.64 1.634-3.64 3.642 0 2.007 1.633 3.64 3.64 3.64 2.01 0 3.643-1.633 3.643-3.64 0-2.008-1.634-3.642-3.642-3.642m0 8.902c-2.9 0-5.26-2.36-5.26-5.26 0-2.902 2.36-5.262 5.26-5.262 2.902 0 5.262 2.36 5.262 5.262 0 2.9-2.36 5.26-5.26 5.26M251.905 138.843c-.228 0-.455-.096-.615-.283-.29-.34-.25-.85.088-1.142l11.257-9.638c.34-.29.85-.252 1.142.088.29.34.252.852-.088 1.143l-11.258 9.64c-.153.13-.34.193-.527.193M244.253 136.857c-.354 0-.68-.233-.78-.59l-2.574-9.153c-.123-.43.128-.878.558-1 .433-.12.88.13 1 .56l2.575 9.153c.12.43-.13.88-.56 1-.074.02-.148.03-.22.03M129.477 215.73c-.448 0-.81-.363-.81-.81v-36.634c0-.447.362-.81.81-.81.447 0 .81.363.81.81v36.633c0 .447-.363.81-.81.81" fill="#1C3E58"/><path d="M161.36 214.113c-18.344 0-32.1-6.64-32.24-6.707-.4-.197-.567-.682-.37-1.083.197-.402.682-.568 1.083-.372.136.067 13.578 6.543 31.525 6.543.21 0 .42 0 .632-.002 13.035-.11 19.278-11.347 23.836-19.552 1.253-2.255 2.335-4.203 3.428-5.716 2.77-3.83 5.488-5.26 7.51-5.733-1.408-.377-3.556-.593-6.746-.17-3.017.402-5.83 2.853-9.09 5.692-4.88 4.253-10.952 9.544-20.626 10.398-16.11 1.423-30.825-15.64-31.442-16.367-.29-.34-.25-.852.092-1.142.34-.29.852-.248 1.142.093.146.172 14.786 17.155 30.066 15.803 9.15-.807 14.757-5.694 19.705-10.005 3.456-3.01 6.44-5.61 9.94-6.075 8.245-1.094 10.453 1.752 10.678 2.08.196.287.187.668-.023.946-.21.28-.575.39-.905.28-.168-.054-4.34-1.28-8.987 5.15-1.038 1.436-2.098 3.345-3.326 5.554-4.752 8.554-11.26 20.268-25.238 20.386-.214.002-.43.003-.644.003" fill="#1C3E58"/><path d="M157.712 204.665c-14.96 0-28.147-11.364-28.768-11.908-.337-.294-.37-.806-.077-1.142.294-.337.805-.37 1.143-.077.165.144 16.713 14.392 33.053 10.963 9.143-1.916 13.882-7.45 18.064-12.333 4.748-5.544 9.232-10.78 18.858-8.707.437.094.715.525.62.963-.093.437-.523.715-.962.62-8.68-1.87-12.478 2.564-17.286 8.178-4.35 5.08-9.28 10.835-18.96 12.867-1.908.4-3.812.578-5.685.578" fill="#1C3E58"/><path d="M188.726 209.296c-.2 0-.31-.005-.323-.006-.413-.023-.742-.353-.765-.765-.022-.413.27-.776.678-.843 13.235-2.174 14.085-16.288 14.593-24.72.057-.966.112-1.876.18-2.674.673-7.823 4.372-16.868 10.905-18.237 6.353-1.33 9.707 1.09 9.846 1.195.36.266.435.774.168 1.133-.265.357-.77.433-1.13.17-.054-.04-2.986-2.08-8.55-.912-5.725 1.2-9 9.545-9.624 16.79-.066.778-.12 1.68-.178 2.632-.398 6.61-1.07 17.732-8.57 23.24 3.94-1.55 8.455-4.815 10.932-11.666 5.158-14.267 10.937-15.828 16.414-16.205.45-.03.833.306.864.753.03.446-.306.833-.752.863-4.124.284-9.772.672-15.002 15.14-4.886 13.51-17.5 14.113-19.686 14.113" fill="#1C3E58"/><path d="M206.497 198.396c-.112 0-.226-.024-.335-.074-.407-.185-.587-.665-.4-1.073.05-.115 5.342-11.407 17.698-9.842.444.057.758.462.702.905-.057.444-.46.76-.906.702-11.174-1.416-15.974 8.803-16.02 8.907-.137.297-.432.474-.74.474" fill="#1C3E58"/><g transform="translate(318.897 151.3)"><mask id="f" fill="#fff"><use xlink:href="#e"/></mask><path d="M1.138 38.53c-.447 0-.81-.364-.81-.81V.93c0-.448.363-.81.81-.81.447 0 .81.362.81.81V37.72c0 .446-.363.81-.81.81" fill="#1C3E58" mask="url(#f)"/></g><path d="M290.642 190.713l7.174-12.25s-15.6-14.413-32.89-16.775c-17.766-2.428-25.16-.883-25.933 2.428-.773 3.31-.883 15.658 13.795 16.16 14.678.504 24.772.143 30.35 7.792 4.745 6.507 7.504 2.645 7.504 2.645" fill="#FFF"/><path d="M250.35 161.312c-6.273 0-10.126 1.09-10.57 2.988-.378 1.625-.72 6.68 2.217 10.513 2.236 2.92 5.876 4.486 10.818 4.655 1.2.04 2.368.076 3.506.11 12.84.39 22.116.67 27.47 8.013 2.08 2.852 3.616 3.45 4.537 3.45.958 0 1.532-.645 1.642-.78l6.81-11.633c-2.753-2.4-16.804-14.065-31.962-16.137-5.72-.78-10.588-1.178-14.468-1.178m37.977 31.35c-1.886 0-3.853-1.386-5.844-4.117-4.888-6.703-13.37-6.96-26.21-7.347-1.14-.035-2.31-.07-3.513-.11-5.45-.188-9.504-1.967-12.05-5.29-3.198-4.175-3.038-9.588-2.506-11.866.656-2.813 4.743-4.24 12.146-4.24 3.953 0 8.894.402 14.687 1.193 17.342 2.37 32.684 16.387 33.328 16.983.28.258.34.676.15 1.004l-7.174 12.25-.04.062c-.042.06-1.076 1.477-2.973 1.477" fill="#1C3E58"/><path d="M283.658 189.56c-.142 0-.286-.037-.417-.115-.382-.23-.505-.73-.275-1.112l8.8-14.613c.232-.383.73-.505 1.113-.276.383.23.506.73.276 1.112l-8.8 14.613c-.153.25-.42.39-.696.39M278.973 185.005c-.104 0-.21-.02-.312-.063-.41-.172-.607-.646-.434-1.06l6.21-14.88c.17-.414.645-.61 1.057-.437.414.172.61.647.436 1.06l-6.21 14.882c-.13.31-.43.498-.747.498M272.864 182.61c-.07 0-.144-.008-.215-.028-.433-.12-.686-.565-.567-.996l4.552-16.472c.12-.43.564-.685.996-.565.432.118.685.564.566.995l-4.55 16.472c-.1.36-.426.594-.782.594M261.544 181.377c-.048 0-.096-.004-.144-.012-.44-.08-.733-.5-.655-.94l3.385-18.88c.08-.44.5-.73.94-.654.44.08.734.5.655.94l-3.385 18.88c-.07.392-.412.667-.796.667M252.79 181.087c-.042 0-.084-.003-.126-.01-.442-.068-.745-.48-.677-.924l3.026-19.563c.07-.443.484-.745.924-.677.442.068.745.482.677.924l-3.026 19.564c-.062.4-.406.687-.8.687M243.614 178.327c-.046 0-.092-.004-.14-.012-.44-.076-.735-.496-.66-.936l2.925-16.866c.076-.44.496-.734.935-.66.44.077.736.496.66.937l-2.924 16.865c-.067.394-.41.672-.796.672M228.508 205.98c-.447 0-.81-.362-.81-.81v-17.878c0-.448.363-.81.81-.81.447 0 .81.362.81.81v17.878c0 .448-.363.81-.81.81M124.214 131.72c-.287 0-.565-.153-.712-.424-4.882-8.986-12.924-15.622-22.646-18.683-.426-.135-.664-.59-.53-1.016.135-.427.592-.663 1.017-.53 10.124 3.19 18.498 10.098 23.582 19.456.214.393.068.885-.325 1.098-.123.068-.255.1-.386.1M49.295 147.16c-.025 0-.05-.002-.073-.005-.446-.04-.775-.433-.735-.878 1.163-13 8.586-24.748 19.86-31.423.383-.228.88-.1 1.11.285.226.383.1.88-.286 1.108-10.824 6.41-17.953 17.69-19.07 30.173-.037.42-.39.74-.805.74M143.754 120.67c-2.274 0-4.223-1.645-4.564-3.956-.896-6.072-.896-6.255-.896-6.364 0-.448.362-.81.81-.81.437 0 .794.347.81.78.01.143.124 1.042.88 6.157.24 1.63 1.708 2.75 3.344 2.55l29.7-3.637c.44-.053.847.262.902.705.054.444-.262.85-.706.903l-29.7 3.635c-.195.025-.39.036-.58.036M302.82 159.37c-.45 0-.81-.362-.81-.81v-9.343c0-19.635-15.976-35.61-35.61-35.61-.448 0-.81-.362-.81-.81 0-.447.362-.81.81-.81 20.527 0 37.228 16.702 37.228 37.23v9.344c0 .448-.362.81-.81.81M212.875 54.482c-.396 0-.742-.29-.8-.695l-.696-4.83C210.04 39.65 201.357 33 192.02 34.134l-7.593.923c-.44.055-.848-.262-.902-.706-.054-.443.262-.847.707-.9l7.593-.924c4.97-.605 9.904.74 13.882 3.787 3.978 3.046 6.562 7.454 7.276 12.413l.695 4.83c.064.443-.244.854-.687.918-.038.005-.077.008-.115.008M203.16 13.543c-2.906 0-5.142-1.2-5.275-1.272-.392-.214-.536-.707-.32-1.098.214-.392.705-.536 1.097-.323.04.02 4.004 2.127 7.86.356.405-.188.887-.01 1.074.398.187.406.01.887-.398 1.073-1.393.64-2.78.866-4.038.866M204.62 20.257c-5.84 0-8.59-3.58-8.722-3.758-.268-.36-.194-.867.165-1.135.357-.267.863-.194 1.13.162.135.177 3.303 4.22 10.29 2.81.437-.088.865.196.953.634.09.44-.194.866-.633.955-1.15.232-2.21.332-3.184.332M204.25 28.07c-7.53 0-11.15-5.82-11.31-6.086-.232-.383-.11-.88.272-1.113.382-.23.88-.108 1.112.273.156.255 3.83 6.103 11.504 5.214.442-.053.846.267.898.71.05.446-.268.848-.712.9-.61.07-1.198.102-1.763.102M109.858 68.843c-5.442 0-10.655-1.983-16.695-7.695-7.097-6.712-10.232-13.383-12.997-19.27-2.972-6.324-5.32-11.32-11.68-13.58-16.054-5.708-22.85 6.878-23.13 7.417-.21.396-.698.55-1.093.343-.397-.205-.55-.693-.346-1.09.076-.145 7.704-14.385 25.113-8.198 6.996 2.487 9.594 8.017 12.602 14.42 2.704 5.756 5.77 12.28 12.644 18.78 10.878 10.288 18.615 7.8 31.433 3.678l1.494-.48c.424-.136.882.098 1.02.524.135.426-.1.882-.526 1.02l-1.494.478c-6.18 1.988-11.36 3.653-16.346 3.653M110.42 159.573c-.052 0-.104-.005-.158-.016-.312-.062-.56-.302-.63-.613-.067-.29-1.6-7.143 1.312-10.835 2.432-3.087 7.002-3.58 7.195-3.598.436-.047.84.28.886.725.044.444-.28.84-.724.886-.057.006-4.088.454-6.086 2.988-1.627 2.066-1.536 5.57-1.29 7.688 2.27-2.752 7.468-8.23 12.225-7.347.44.082.73.505.65.945-.083.44-.504.732-.946.648-4.287-.796-9.954 5.642-11.774 8.19-.154.216-.4.34-.66.34M120.685 182.142c-.024 0-.048 0-.072-.003-.348-.033-.637-.283-.717-.623-.05-.218-1.24-5.38-.678-10.05.584-4.844 4.71-8.308 4.887-8.454.344-.284.855-.237 1.14.108.285.346.237.856-.107 1.14-.038.033-3.806 3.21-4.312 7.402-.303 2.52-.048 5.257.225 7.14 1.023-1.834 2.684-4.378 4.724-5.9 2.3-1.716 3.896-4.797 3.912-4.827.204-.4.69-.556 1.09-.352.398.204.555.692.35 1.09-.07.14-1.784 3.45-4.384 5.388-3.047 2.273-5.29 7.402-5.314 7.454-.13.298-.423.488-.743.488M149.302 184.094c-.112 0-.224 0-.34-.003-4.178-.057-6.9-.96-7.015-.997-.317-.107-.535-.396-.55-.73-.017-.333.174-.642.48-.778.076-.034 7.713-3.467 9.48-7.606.175-.412.65-.603 1.062-.428.41.175.6.65.426 1.062-1.406 3.296-5.702 6.032-8.288 7.437 1.118.203 2.634.397 4.427.422l.323.002c7.036 0 8.2-3.343 8.246-3.488.136-.422.587-.66 1.01-.53.425.13.666.57.54.996-.055.192-1.458 4.642-9.802 4.642M151.1 65.52c-.422 0-.79-.302-.875-.717-.047-.234 0-.472.13-.672.132-.198.334-.334.567-.382.06-.012.12-.018.18-.018.423 0 .79.3.876.716.047.234 0 .473-.13.672-.133.2-.334.335-.568.383-.06.013-.12.02-.18.02M155.56 64.997c-.425 0-.793-.3-.878-.716-.047-.233 0-.472.13-.67.133-.2.335-.336.57-.384.057-.012.118-.017.178-.017.423 0 .79.3.875.714.048.234.002.473-.13.672-.132.2-.334.335-.567.383-.06.01-.12.017-.18.017M213.572 59.247c-.423 0-.79-.3-.876-.716-.047-.233 0-.472.13-.67.133-.2.334-.336.568-.384.06-.012.12-.018.18-.018.423 0 .79.3.875.716.097.483-.216.957-.698 1.055-.06.01-.12.017-.18.017M179.642 115.998c-.423 0-.79-.3-.876-.715-.098-.484.215-.957.698-1.055.06-.013.12-.02.18-.02.422 0 .79.303.875.718.046.233 0 .472-.13.672-.133.2-.335.334-.568.382-.06.012-.12.018-.18.018zM302.818 164.31c-.423 0-.79-.3-.876-.714-.098-.484.215-.957.698-1.055.06-.012.12-.018.18-.018.422 0 .79.302.875.716.047.234 0 .473-.13.672-.132.2-.334.335-.568.383-.06.012-.12.018-.18.018zM126.67 136.917c-.423 0-.79-.3-.876-.716-.098-.483.215-.955.698-1.054.06-.012.12-.018.18-.018.422 0 .79.3.875.715.098.484-.215.958-.698 1.056-.06.01-.12.017-.18.017M48.772 153.385c-.423 0-.792-.3-.876-.715-.048-.235-.002-.474.13-.673.132-.2.334-.335.568-.382.06-.012.12-.018.18-.018.422 0 .79.3.874.715.1.484-.214.957-.698 1.055-.06.012-.12.018-.178.018zM228.508 211.473c-.423 0-.79-.302-.876-.716-.048-.234 0-.473.13-.672.132-.2.333-.336.567-.383.06-.013.12-.02.18-.02.422 0 .79.303.875.717.047.233 0 .472-.13.67-.133.2-.334.337-.57.384-.06.013-.118.02-.177.02" fill="#1C3E58"/></g></svg>