<svg width="191" height="252" viewBox="0 0 191 252" xmlns="http://www.w3.org/2000/svg" xmlns:xlink="http://www.w3.org/1999/xlink"><title>Page 1</title><defs><path id="a" d="M0 .125v1.76h33.82V.126H0z"/><path id="c" d="M53.05.03H.19v24.11h52.86V.03z"/></defs><g fill="none" fill-rule="evenodd"><path fill="#FABF62" d="M172.468 4.447l-4.383 11.17v95.486h8.765V15.617"/><path d="M168.966 110.22h7.003V15.784l-3.502-8.924-3.502 8.923v94.438zm7.884 1.763h-8.764c-.487 0-.882-.394-.882-.88V15.616c0-.11.02-.22.06-.322l4.383-11.17c.133-.337.458-.56.82-.56.363 0 .69.223.82.56l4.383 11.17c.04.103.06.212.06.322v95.485c0 .487-.394.88-.88.88z" fill="#1C3E58"/><path d="M172.468 111.983c-.487 0-.88-.394-.88-.88V11.97c0-.486.393-.88.88-.88.486 0 .88.394.88.88v99.132c0 .487-.394.88-.88.88" fill="#FFF"/><path d="M172.468 128.577c-.756 0-1.48-.127-2.16-.353v10.853h4.32v-10.853c-.68.226-1.404.353-2.16.353" fill="#2B71B5"/><path d="M131.808 179.825l-.1.073.042-.264-.048-.155.005.418-1.922 1.76s-1.28 3.363-2.72 8.806c-1.713 6.85-6.58 19.942-11.294 31.99 3.92.178 7.93.153 11.934.027 8.55-.27 13.503-1.376 16.374-2.56l-12.27-40.095zM113.55 169.693s-12.7-37.7-14.26-49.226c-.827-6.105 1.2-9.347 3.287-11.045 0 0-6.57-2.8-8.17 9.986-1.6 12.785 1.28 36.958-10.566 56.828-7.434 12.47-8.323 19.33-4.8 27.045 4.803 10.525 13.754 15.522 24.396 17.732 4.847-23.307 10.113-51.32 10.113-51.32" fill="#4088DA"/><path d="M49.764 29.22c-7.46 0-13.507 6.047-13.507 13.507 0 1.367.205 2.685.582 3.928.323-.015.65-.026.978-.026 7 0 13.142 3.498 16.633 8.767 5.15-1.906 8.82-6.86 8.82-12.67 0-7.46-6.046-13.507-13.506-13.507" fill="#FABF62"/><path d="M49.764 23.72c-.487 0-.88-.393-.88-.88v-6.286c0-.487.393-.88.88-.88s.88.393.88.88v6.286c0 .487-.393.88-.88.88m-13.766 5.703c-.226 0-.45-.086-.623-.258L30.93 24.72c-.345-.344-.345-.902 0-1.246.343-.344.9-.344 1.245 0l4.446 4.445c.345.343.345.9 0 1.245-.17.172-.397.258-.622.258m27.532 0c-.226 0-.45-.086-.623-.258-.344-.344-.344-.902 0-1.246l4.445-4.446c.344-.344.902-.344 1.246 0s.344.902 0 1.246l-4.445 4.445c-.172.172-.398.258-.623.258M30.295 43.19H24.01c-.488 0-.882-.395-.882-.88 0-.488.394-.882.88-.882h6.287c.487 0 .882.394.882.88 0 .487-.395.88-.882.88m45.223 0h-6.286c-.487 0-.88-.393-.88-.88 0-.486.393-.88.88-.88h6.286c.487 0 .882.394.882.88 0 .487-.395.88-.882.88m-7.543 18.213c-.226 0-.45-.085-.623-.257l-4.445-4.445c-.344-.345-.344-.902 0-1.247.344-.342.902-.342 1.246 0l4.445 4.447c.344.344.344.902 0 1.246-.172.172-.398.258-.623.258M126.237 52.446c-.07 0-.14-.008-.21-.025-.472-.114-.762-.59-.647-1.063l2.465-10.143c.115-.473.593-.76 1.065-.648.473.115.763.592.648 1.064l-2.465 10.143c-.098.403-.46.673-.856.673m-24.446 3.802c-.296 0-.587-.15-.753-.423L95.61 46.91c-.255-.416-.122-.958.293-1.21.416-.254.957-.123 1.21.293l5.43 8.915c.253.416.12.958-.294 1.21-.145.088-.303.13-.46.13m44.42 10.796c-.296 0-.586-.15-.752-.423-.253-.414-.12-.956.294-1.21l8.915-5.428c.416-.253.958-.122 1.21.294.255.415.122.958-.293 1.21l-8.915 5.43c-.144.087-.302.128-.46.128m-59.017 9.178c-.07 0-.14-.008-.21-.025L76.842 73.73c-.472-.114-.762-.59-.647-1.063.115-.473.592-.76 1.064-.648L87.4 74.483c.473.115.763.592.648 1.065-.098.402-.458.672-.855.672m72.963 17.734c-.07 0-.14-.01-.21-.025l-10.142-2.464c-.473-.116-.763-.592-.648-1.065.115-.472.592-.76 1.064-.647l10.143 2.465c.473.116.763.592.648 1.065-.097.403-.457.673-.854.673m-78.077 12.14c-.298 0-.588-.15-.754-.422-.253-.416-.12-.958.294-1.21l8.915-5.43c.416-.253.958-.122 1.21.295.254.414.122.956-.293 1.21l-8.915 5.428c-.143.087-.302.13-.458.13M9.872 64.598h46.732c-.482-9.5-8.724-17.088-18.787-17.088-5.62 0-10.902 2.375-14.493 6.516-.26.3-.685.39-1.044.22-1.188-.566-2.444-.853-3.732-.853-4.91 0-8.904 4.102-8.904 9.144 0 .695.076 1.386.228 2.06m47.636 1.763H9.192c-.39 0-.732-.256-.844-.63-.31-1.034-.467-2.11-.467-3.193 0-6.014 4.786-10.906 10.668-10.906 1.333 0 2.636.254 3.88.756 3.91-4.227 9.48-6.638 15.39-6.638 11.343 0 20.57 8.85 20.57 19.73 0 .487-.394.882-.88.882" fill="#1C3E58"/><g transform="translate(.197 70.236)"><mask id="b" fill="#fff"><use xlink:href="#a"/></mask><path d="M32.938 1.886H.88c-.486 0-.88-.394-.88-.88C0 .52.394.126.88.126H32.94c.487 0 .88.393.88.88 0 .486-.393.88-.88.88" fill="#1C3E58" mask="url(#b)"/></g><g transform="translate(97.947 .878)"><mask id="d" fill="#fff"><use xlink:href="#c"/></mask><path d="M1.96 22.378h49.323C51.12 15.405 46.05 9.79 39.843 9.79c-1.494 0-2.95.323-4.327.96-.224.103-.482.108-.71.012-.23-.096-.406-.283-.49-.516-1.833-5.135-6.023-8.453-10.672-8.453-5.63 0-10.433 4.823-11.42 11.468-.066.44-.427.767-.89.753-.044 0-.088-.004-.132-.007l-.045-.002c-4.952 0-9.002 3.725-9.197 8.374m50.197 1.762H1.1c-.467 0-.853-.365-.88-.83l-.01-.15c-.01-.144-.02-.287-.02-.433 0-5.605 4.625-10.198 10.417-10.473C11.97 5.127 17.352.03 23.644.03c5.132 0 9.757 3.41 11.997 8.76 1.353-.507 2.762-.762 4.202-.762 7.283 0 13.208 6.594 13.208 14.7 0 .188-.006.374-.013.56-.015.475-.405.852-.88.852" fill="#1C3E58" mask="url(#d)"/></g><path d="M133.147 33.182h-27.054c-.487 0-.88-.394-.88-.88 0-.488.393-.882.88-.882h27.054c.487 0 .88.394.88.88 0 .488-.393.882-.88.882M119.326 100.977h-5.31c-.486 0-.88-.394-.88-.88 0-.487.394-.882.88-.882h5.31c2.866 0 5.265-2.148 5.58-4.997l1.922-17.43c.054-.484.49-.83.973-.78.485.054.833.49.78.973l-1.923 17.43c-.413 3.744-3.565 6.567-7.33 6.567" fill="#1C3E58"/><path d="M111.056 87.45s-1.28-10.005 6.163-10.085c7.443-.08 13.752.668 14.647-6.884.72-6.082-3.522-11.044-3.522-11.044s-.88 8.564-12.327 9.365c-11.446.8-14.087 6.724-14.407 12.007-.32 5.282-.24 17.69 5.364 17.13 3.52-.642 2-3.923 1.6-5.364-.4-1.44-1.92-7.364 2.482-5.123" fill="#FABF62"/><path d="M128.704 61.47c-1.036 2.778-4.06 7.61-12.624 8.21-8.726.61-13.17 4.267-13.59 11.18-.338 5.58.084 12.966 2.385 15.412.507.54 1.075.8 1.737.8.08 0 .158-.003.24-.01.667-.127 1.113-.37 1.323-.72.44-.73.012-2.066-.27-2.95-.07-.215-.132-.412-.18-.584-.804-2.896-.812-4.892-.022-5.93.527-.694 1.365-.958 2.39-.73-.037-1.903.208-5.296 2.148-7.524 1.218-1.398 2.89-2.118 4.97-2.14.677-.007 1.346-.008 2.002-.008 7.266-.006 11.09-.28 11.78-6.1.444-3.75-1.157-7.084-2.288-8.906m-22.09 37.365h-.002c-1.158 0-2.174-.456-3.02-1.356-3.378-3.59-3.044-13.71-2.86-16.727.475-7.84 5.597-12.16 15.225-12.832 10.524-.734 11.476-8.258 11.512-8.578.037-.35.28-.644.615-.747.336-.102.7 0 .93.268.183.214 4.484 5.33 3.726 11.722-.904 7.644-7.035 7.648-13.527 7.653-.65 0-1.313 0-1.985.008-1.575.017-2.77.518-3.655 1.532-2.062 2.363-1.727 6.73-1.654 7.458.016.068.025.14.025.214 0 .494-.422.888-.904.88-.13 0-.262-.033-.384-.095-.658-.335-1.046-.405-1.256-.405-.208 0-.258.066-.294.114-.305.4-.405 1.792.317 4.393.042.153.1.327.16.518.38 1.187.952 2.982.103 4.395-.487.81-1.346 1.333-2.555 1.552-.022.005-.045.008-.07.01-.152.016-.3.023-.447.023" fill="#1C3E58"/><path d="M107.145 107.126l11.745 8.72.947-3.224-10.87-7.598c-.7-.074-1.194.037-1.472.335-.402.43-.406 1.264-.35 1.766m12.235 11.06c-.187 0-.37-.058-.525-.173l-13.047-9.685c-.17-.125-.287-.306-.334-.51-.054-.236-.49-2.34.725-3.654.58-.626 1.398-.937 2.424-.924.653-3.13-.592-5.88-.606-5.91-.204-.442-.012-.966.43-1.17.442-.205.965-.01 1.17.43.067.146 1.557 3.438.685 7.22l11.063 7.73c.31.218.447.608.34.97l-1.48 5.044c-.082.277-.293.496-.566.587-.092.032-.186.046-.28.046" fill="#1C3E58"/><path d="M121.878 111.85l2.417 1.475.283-5.796c-.035-.135-.15-.475-.437-.646-.258-.154-.616-.143-.953-.073l-1.31 5.04zm3.225 3.88c-.16 0-.318-.042-.46-.128l-4.24-2.587c-.333-.202-.493-.597-.395-.973l1.562-6.013-.613-6.354c-.047-.484.308-.915.792-.962.482-.046.914.308.96.793l.532 5.512c.696-.076 1.308.047 1.83.368 1.053.646 1.245 1.82 1.264 1.95.007.055.01.11.007.165l-.36 7.39c-.015.31-.193.59-.468.736-.13.067-.27.1-.412.1z" fill="#1C3E58"/><path d="M123.8 125.17c-.396 0-.756-.268-.854-.67l-2.94-12.028c-.117-.473.173-.95.645-1.065.474-.113.95.174 1.067.647l2.94 12.027c.116.474-.174.95-.646 1.066-.07.017-.14.025-.21.025M132.907 173.455c-.043 0-.086-.003-.13-.01l-19.358-2.88c-.327-.05-.6-.277-.705-.59-.52-1.543-12.744-37.912-14.3-49.39-1.656-12.242 7.69-13.82 7.784-13.835.48-.07.93.256 1.004.737.073.48-.255.93-.734 1.004-.317.052-7.727 1.373-6.307 11.86 1.434 10.586 12.53 44.006 14.05 48.55l17.813 2.653v-6.037l-4.823-23.94c-.096-.476.213-.94.69-1.036.478-.093.942.212 1.038.69l4.84 24.024c.012.057.018.115.018.174v7.146c0 .257-.112.5-.306.668-.16.138-.365.213-.575.213M153.077 126.15c-.156 0-.315-.04-.458-.127l-27.615-16.81c-.416-.253-.548-.795-.294-1.21.253-.416.796-.548 1.21-.295l27.615 16.81c.416.253.548.794.295 1.21-.166.273-.456.423-.753.423M136.154 132.444c-.41 0-.775-.285-.862-.7l-1.086-5.214c-.068-.32.05-.653.304-.862.254-.208.604-.256.905-.128l7.564 3.242c.447.192.653.71.462 1.157-.19.447-.71.653-1.157.462l-6.01-2.575.742 3.556c.1.477-.206.943-.682 1.043-.06.012-.122.018-.18.018" fill="#1C3E58"/><path d="M132.906 173.456c-.462 0-.85-.36-.878-.827-.03-.487.34-.905.825-.935l10.632-.658-5.498-26.598c-.098-.478.208-.944.685-1.043.473-.1.942.208 1.04.685l5.704 27.594c.052.25-.008.51-.163.713-.155.202-.39.328-.645.343l-11.647.72c-.017.002-.036.003-.054.003M172.468 115.73c-3.3 0-5.983 2.685-5.983 5.983 0 3.3 2.684 5.983 5.983 5.983 3.298 0 5.982-2.684 5.982-5.983 0-3.298-2.684-5.982-5.982-5.982m0 13.728c-4.27 0-7.745-3.474-7.745-7.745 0-4.27 3.474-7.744 7.745-7.744 4.27 0 7.744 3.473 7.744 7.743 0 4.27-3.474 7.745-7.744 7.745" fill="#1C3E58"/><path d="M137.69 145.375c-5.59 0-29.135-12.272-31.862-13.702-.43-.226-.596-.76-.37-1.19.226-.43.76-.597 1.19-.37 10.766 5.65 27.962 13.9 31.19 13.493 3.365-.43 20.092-10.43 29.368-16.214-1.363-1.26-2.228-2.96-2.435-4.812l-27.594 10.212c-.243.09-.513.068-.738-.058l-26.055-14.66c-.424-.24-.574-.776-.335-1.2.238-.424.776-.574 1.2-.337l25.7 14.46 28.37-10.498c.277-.104.59-.06.83.116.238.177.372.46.356.758l-.01.127c-.003.07-.01.142-.01.213 0 2.033 1.023 3.91 2.736 5.02.253.163.404.445.402.746-.003.3-.158.58-.414.738-2.695 1.69-26.474 16.537-31.146 17.135-.113.015-.238.022-.372.022M161.8 249.455c-.402 0-.765-.278-.858-.688l-17.25-76.72c-.105-.475.193-.946.668-1.052.475-.108.946.19 1.053.666l17.25 76.72c.105.475-.193.947-.667 1.053-.066.015-.13.022-.195.022M153.67 251.87c-.378 0-.726-.242-.843-.62l-21.552-69.76-.738.675c-.287.784-1.402 3.917-2.62 8.524-3.654 14.61-21.8 58.007-21.983 58.444-.188.45-.704.66-1.153.472-.448-.188-.66-.704-.47-1.153.18-.436 18.276-43.708 21.9-58.203 1.438-5.437 2.7-8.765 2.752-8.905.05-.127.127-.242.228-.335l1.92-1.76c.224-.206.535-.282.827-.202.29.078.522.302.61.59l21.964 71.092c.144.465-.116.96-.58 1.102-.088.027-.176.04-.26.04M96.67 250.93c-.093 0-.188-.015-.28-.047-.463-.155-.71-.655-.556-1.116 3.958-11.78 16.72-79.554 16.85-80.237.09-.478.55-.792 1.028-.703.48.09.793.55.703 1.03-.525 2.793-12.914 68.578-16.91 80.472-.125.367-.468.6-.836.6M149.155 213.63c-.402 0-.765-.276-.86-.684l-6.722-29.49c-.108-.474.19-.947.663-1.055.476-.108.947.19 1.055.664l6.724 29.49c.11.475-.19.947-.663 1.055-.065.014-.13.02-.195.02M86.084 145.38c-.056 0-.113-.006-.17-.017-.478-.093-.79-.556-.696-1.033.812-4.16 1.533-15.325 2.114-24.296.095-1.482.187-2.893.273-4.188.636-9.547 7.216-11.18 7.495-11.245.475-.107.948.186 1.058.66.11.473-.184.945-.655 1.056-.232.057-5.594 1.46-6.14 9.648-.086 1.293-.177 2.703-.273 4.184-.583 9.02-1.31 20.248-2.142 24.52-.083.42-.452.712-.864.712" fill="#1C3E58"/><path d="M93.646 209.234c-.122 0-.247-.026-.366-.08-4.755-2.174-8.67-7.153-9.742-12.39-1.13-5.524.952-9.653 1.04-9.826.224-.432.756-.602 1.188-.38.432.223.602.753.38 1.186-.027.053-1.88 3.787-.88 8.666.963 4.713 4.48 9.19 8.747 11.142.443.202.637.725.435 1.167-.148.323-.468.514-.802.514" fill="#FFF"/><path d="M131.707 180.78c-.284 0-.563-.138-.733-.392-.266-.397-.165-.935.224-1.21.06-.046.81-.672.828-2.49.026-2.73 0-4.083 0-4.096-.01-.487.377-.89.864-.898.48.008.888.376.898.863 0 .055.027 1.386 0 4.148-.027 2.797-1.43 3.818-1.59 3.925-.152.1-.322.15-.49.15" fill="#1C3E58"/><path d="M167.394 142.56c0 2.8 2.272 5.072 5.074 5.072 2.8 0 5.073-2.27 5.073-5.073 0-2.803-2.27-5.075-5.072-5.075s-5.074 2.272-5.074 5.074" fill="#25CE9E"/><path d="M172.468 138.366c-2.312 0-4.193 1.88-4.193 4.193 0 2.31 1.88 4.19 4.193 4.19 2.31 0 4.192-1.88 4.192-4.19 0-2.313-1.88-4.194-4.192-4.194m0 10.147c-3.284 0-5.955-2.67-5.955-5.954 0-3.285 2.67-5.956 5.955-5.956 3.283 0 5.954 2.67 5.954 5.955 0 3.282-2.67 5.953-5.954 5.953M161.102 113.97h22.73v-1.986h-22.73v1.985zm23.612 1.76H160.22c-.485 0-.88-.393-.88-.88v-3.747c0-.488.395-.88.88-.88h24.494c.487 0 .88.392.88.88v3.747c0 .487-.393.88-.88.88z" fill="#1C3E58"/><path d="M182.664 112.976c0 1.91 1.547 3.456 3.456 3.456 1.91 0 3.456-1.547 3.456-3.456 0-1.91-1.547-3.456-3.456-3.456-1.91 0-3.456 1.547-3.456 3.456" fill="#25CE9E"/><path d="M186.12 110.4c-1.42 0-2.575 1.156-2.575 2.576 0 1.42 1.155 2.575 2.575 2.575 1.42 0 2.575-1.154 2.575-2.574s-1.155-2.576-2.575-2.576m0 6.913c-2.392 0-4.337-1.946-4.337-4.337 0-2.392 1.945-4.337 4.337-4.337 2.392 0 4.338 1.944 4.338 4.336 0 2.39-1.946 4.337-4.338 4.337" fill="#1C3E58"/><path d="M155.57 112.976c0 1.91 1.547 3.456 3.456 3.456 1.908 0 3.456-1.547 3.456-3.456 0-1.91-1.548-3.456-3.456-3.456-1.91 0-3.457 1.547-3.457 3.456" fill="#25CE9E"/><path d="M159.025 110.4c-1.42 0-2.575 1.156-2.575 2.576 0 1.42 1.155 2.575 2.575 2.575 1.42 0 2.576-1.154 2.576-2.574s-1.154-2.576-2.575-2.576m0 6.913c-2.39 0-4.337-1.946-4.337-4.337 0-2.392 1.946-4.337 4.337-4.337 2.392 0 4.338 1.944 4.338 4.336 0 2.39-1.946 4.337-4.338 4.337M58.235 42.1c-.41 0-.777-.286-.862-.703-.735-3.593-3.936-6.2-7.61-6.2-2.192 0-4.294.933-5.765 2.562-.327.36-.884.388-1.245.062-.36-.326-.39-.883-.063-1.244 1.805-1.998 4.383-3.144 7.074-3.144 4.507 0 8.433 3.2 9.335 7.61.097.476-.21.942-.687 1.04-.06.01-.12.017-.178.017M40.325 72.215c-.46 0-.86-.328-.953-.78-.107-.525.234-1.04.76-1.147.065-.013.13-.02.194-.02.46 0 .86.328.953.78.106.525-.234 1.04-.76 1.147-.066.013-.13.02-.195.02M58.075 47.034c-.46 0-.86-.327-.953-.778-.052-.255-.002-.515.142-.732.143-.217.363-.364.617-.416.067-.013.132-.02.196-.02.46 0 .86.328.953.78.05.253 0 .513-.143.73-.143.217-.363.365-.618.417-.066.013-.13.02-.195.02zM84.748 153.238c-.46 0-.86-.328-.953-.78-.107-.524.234-1.04.76-1.146.065-.013.13-.02.195-.02.46 0 .86.328.952.78.107.525-.233 1.04-.76 1.146-.065.014-.13.02-.194.02M150.376 218.57c-.46 0-.86-.327-.954-.778-.052-.255 0-.514.142-.73.144-.218.363-.366.618-.418.065-.013.13-.02.194-.02.46 0 .86.328.954.78.05.254 0 .514-.142.73-.144.217-.363.365-.618.417-.065.014-.13.02-.194.02" fill="#1C3E58"/><path d="M98.22 211.187c-.46 0-.862-.328-.954-.78-.052-.253 0-.513.142-.73.143-.217.363-.365.617-.416.066-.013.13-.02.194-.02.46 0 .86.328.953.78.052.254 0 .514-.142.73-.142.218-.362.365-.616.417-.066.014-.13.02-.195.02" fill="#FFF"/><path d="M141.21 33.274c-.46 0-.86-.327-.953-.778-.052-.255 0-.515.142-.732.143-.217.363-.364.617-.416.065-.013.13-.02.195-.02.46 0 .86.328.952.78.052.253 0 .513-.14.73-.145.217-.364.365-.62.417-.064.013-.13.02-.194.02" fill="#1C3E58"/></g></svg>