<svg width="1200" height="403" viewBox="0 0 1200 403" xmlns="http://www.w3.org/2000/svg" xmlns:xlink="http://www.w3.org/1999/xlink"><title>Group 535</title><defs><path id="a" d="M.205 128.036H70.71V.24H.204v127.796z"/><path id="c" d="M.488 93.05h43.118V.55H.488z"/><path id="e" d="M.51 93.05h43.118V.55H.51v92.5z"/><path id="g" d="M.225 190.565h108.277V.158H.225v190.407z"/><path id="i" d="M.082 183.866h92.834V.166H.082v183.7z"/><path id="k" d="M.704 40.942h113.61V.026H.705z"/></defs><g fill="none" fill-rule="evenodd"><g transform="translate(555.662 274.775)"><mask id="b" fill="#fff"><use xlink:href="#a"/></mask><path d="M57.29 1.966C57.186.986 56.358.24 55.37.24H15.544c-.987 0-1.814.745-1.92 1.726L.21 127.83c-.007.07 0 .138 0 .206h3.86L17.28 4.1h36.358l13.21 123.936h3.86c0-.068.007-.135 0-.205L57.29 1.967z" fill="#1C3E58" mask="url(#b)"/></g><path d="M529.308 401.986L449.55 233.33c-.455-.964-1.604-1.374-2.57-.92-.963.456-1.374 1.606-.92 2.57l79.37 167.83h4.058c0-.276-.053-.556-.18-.824" fill="#1C3E58"/><path fill="#4088DA" d="M561.612 402.81l-7.903-90.568h-23.463l-7.904 90.57"/><g transform="translate(519.93 309.762)"><mask id="d" fill="#fff"><use xlink:href="#c"/></mask><path d="M35.7 2.313C35.615 1.316 34.78.55 33.78.55H10.315c-1 0-1.836.766-1.923 1.763L.49 92.88c-.005.06.002.114.002.17H4.35l7.735-88.64H32.01l7.734 88.64h3.858c0-.056.007-.11.003-.17L35.7 2.314z" fill="#1C3E58" mask="url(#d)"/></g><path fill="#4088DA" d="M659.894 402.81l-7.903-90.568H628.53l-7.903 90.57"/><g transform="translate(618.19 309.762)"><mask id="f" fill="#fff"><use xlink:href="#e"/></mask><path d="M35.723 2.313C35.636 1.316 34.803.55 33.8.55H10.337c-1 0-1.835.766-1.923 1.763L.512 92.88c-.005.06.002.114.002.17H4.37l7.736-88.64h19.926l7.734 88.64h3.858c0-.056.007-.11.002-.17L35.723 2.314z" fill="#1C3E58" mask="url(#f)"/></g><path d="M591.12 26.332c-19.69 0-35.65 25.87-35.65 57.785v123.938h71.298V84.117c0-31.914-15.96-57.785-35.65-57.785" fill="#FFD102"/><path d="M605.644 250.728V122.706c0-8.023-6.504-14.527-14.528-14.527h.005c-8.023 0-14.526 6.503-14.526 14.526v128.022h29.05z" fill="#FFF"/><path d="M224.23 139.164c-1.066 0-1.93-.865-1.93-1.93V66.42l-8.394 10.01c-.685.816-1.902.924-2.72.24-.816-.686-.923-1.903-.238-2.72l11.803-14.073c.523-.623 1.377-.85 2.14-.574.763.277 1.27 1.002 1.27 1.814v76.116c0 1.066-.864 1.93-1.93 1.93" fill="#1C3E58"/><path d="M224.23 153.646c-1.066 0-1.93-.864-1.93-1.93v-90.6c0-.81.508-1.535 1.27-1.813.763-.277 1.618-.048 2.14.574l11.803 14.073c.685.816.578 2.034-.24 2.72-.816.685-2.032.577-2.718-.24l-8.394-10.01v85.296c0 1.066-.864 1.93-1.93 1.93M1179.363 126.452c-1.066 0-1.93-.864-1.93-1.93V103.98c0-1.066.864-1.93 1.93-1.93h9.758l-25.533-27.468-25.533 27.468h9.758c1.065 0 1.93.864 1.93 1.93v20.542c0 1.066-.865 1.93-1.93 1.93-1.066 0-1.93-.864-1.93-1.93V105.91h-12.257c-.768 0-1.462-.456-1.768-1.16-.308-.703-.168-1.522.355-2.085l29.962-32.232c.73-.785 2.097-.785 2.827 0l29.963 32.232c.523.563.664 1.382.356 2.086-.307.704-1.002 1.16-1.77 1.16h-12.257v18.612c0 1.066-.864 1.93-1.93 1.93" fill="#1C3E58"/><path d="M965.35 354.336c-24.212-.554-30.21-9.86-42.22-9.86-10.025 0-13.647 5.27-21.267 10.41 3.974 20.41 21.94 35.82 43.512 35.82 24.488 0 44.34-19.852 44.34-44.34 0-.554-.013-1.107-.034-1.657-6.754 5.47-15.075 9.84-24.33 9.626" fill="#25CE9E"/><path d="M906.14 189.14h10.375c3.653 0 6.615-2.963 6.615-6.618v-15.216c0-3.655-2.962-6.617-6.615-6.617H906.14c-3.655 0-6.617-2.963-6.617-6.617V143.85c0-3.654-2.962-6.616-6.615-6.616H877.69c-3.654 0-6.616 2.962-6.616 6.616v10.223c0 3.654-2.962 6.616-6.616 6.616h-13.71c.245.53.39 1.117.39 1.74 0 2.32-1.88 4.2-4.2 4.2H828.6c-.008.087-.022.175-.028.264h28.126v63.926h7.76c3.654 0 6.616 2.962 6.616 6.616v6.676c0 3.654 2.962 6.616 6.616 6.616h15.218c3.653 0 6.615-2.962 6.615-6.616v-6.676c0-3.654 2.962-6.616 6.617-6.616h10.375c3.653 0 6.615-2.962 6.615-6.616v-15.218c0-3.653-2.962-6.615-6.615-6.615H906.14c-3.655 0-6.617-2.962-6.617-6.615 0-3.654 2.962-6.616 6.617-6.616" fill="#ECF0F7"/><path d="M858.628 228.89h5.83c4.712 0 8.546 3.834 8.546 8.547v6.675c0 2.585 2.1 4.686 4.686 4.686h15.218c2.584 0 4.686-2.1 4.686-4.686v-6.675c0-4.713 3.833-8.547 8.545-8.547h10.374c2.584 0 4.686-2.102 4.686-4.686v-15.217c0-2.585-2.102-4.686-4.686-4.686H906.14c-4.713 0-8.546-3.833-8.546-8.545s3.833-8.546 8.545-8.546h10.374c2.584 0 4.686-2.104 4.686-4.687v-15.218c0-2.584-2.102-4.685-4.686-4.685H906.14c-4.713 0-8.546-3.835-8.546-8.547V143.85c0-2.585-2.102-4.686-4.686-4.686H877.69c-2.585 0-4.686 2.1-4.686 4.685v10.223c0 4.712-3.834 8.547-8.546 8.547h-11.394c-.025.833-.218 1.626-.546 2.343h4.18c1.066 0 1.93.865 1.93 1.93v61.997zm34.28 23.77H877.69c-4.712 0-8.546-3.836-8.546-8.548v-6.675c0-2.585-2.102-4.687-4.686-4.687h-7.76c-1.065 0-1.93-.864-1.93-1.93v-61.996h-26.195c-.535 0-1.045-.222-1.41-.612s-.552-.914-.516-1.447c.006-.092.016-.182.027-.273.1-.985.936-1.793 1.928-1.793h18.336c1.25 0 2.268-1.02 2.268-2.27 0-.315-.07-.63-.21-.936-.276-.598-.226-1.293.13-1.847.354-.553.966-.888 1.623-.888h13.708c2.584 0 4.686-2.102 4.686-4.687V143.85c0-4.712 3.834-8.547 8.546-8.547h15.218c4.712 0 8.546 3.835 8.546 8.546v10.223c0 2.585 2.1 4.686 4.685 4.686h10.374c4.712 0 8.546 3.833 8.546 8.545v15.218c0 4.712-3.834 8.546-8.546 8.546H906.14c-2.585 0-4.686 2.1-4.686 4.685 0 2.584 2.1 4.686 4.685 4.686h10.374c4.712 0 8.546 3.835 8.546 8.547v15.217c0 4.712-3.834 8.546-8.546 8.546H906.14c-2.585 0-4.686 2.102-4.686 4.687v6.675c0 4.712-3.834 8.547-8.546 8.547zM585.446 372.736c-1.066 0-1.93-.864-1.93-1.93v-81.49c0-1.065.864-1.93 1.93-1.93 1.066 0 1.93.865 1.93 1.93v81.49c0 1.066-.864 1.93-1.93 1.93M641.81 379.546c-1.04 0-1.898-.828-1.928-1.874l-1.552-53.124c-.03-1.066.808-1.955 1.873-1.986 1.103-.044 1.955.81 1.986 1.873l1.55 53.124c.03 1.065-.807 1.954-1.872 1.985h-.058M540.426 377.275c-1.066 0-1.93-.864-1.93-1.93v-48.007c0-1.066.864-1.93 1.93-1.93 1.066 0 1.93.864 1.93 1.93v48.007c0 1.066-.864 1.93-1.93 1.93" fill="#1C3E58"/><path d="M417.398 226.917l5.79-2.777c.417-2.344.642-4.755.642-7.22 0-22.557-18.288-40.845-40.845-40.845-22.558 0-40.845 18.288-40.845 40.845 0 20.51 15.12 37.486 34.82 40.4 2.03-3.903 4.9-7.76 8.962-10.944 10.717-8.402 25.422-7.52 31.045-6.796 1.43-2.14 2.658-4.422 3.668-6.82l-3.237-5.843z" fill="#4088DA"/><path fill="#FABF62" d="M605.34 249.71h-28.444l-12.466 27.236H617.807"/><path d="M567.436 275.016h47.366l-10.7-23.377h-25.967l-10.7 23.376zm50.37 3.86H564.43c-.657 0-1.27-.334-1.624-.888-.355-.552-.405-1.248-.13-1.845l12.465-27.238c.315-.686 1-1.126 1.756-1.126h28.445c.756 0 1.442.44 1.756 1.125l12.466 27.238c.274.597.224 1.293-.13 1.845-.355.554-.968.888-1.625.888zM531.196 294.727h-.015c-1.064-.008-1.922-.878-1.914-1.944L530.55 118c.01-1.06.872-1.915 1.932-1.915h.008l19.067.076c1.058.006 1.914.86 1.922 1.918l1.21 174.705c.007 1.066-.852 1.937-1.917 1.944h-.014c-1.06 0-1.923-.855-1.93-1.917l-1.198-172.796-15.234-.06-1.272 172.857c-.008 1.062-.87 1.917-1.93 1.917" fill="#1C3E58"/><path d="M552.76 250.82h23.628l.206-.45V141.026c-1.322-.08-2.64-.18-3.962-.277-3.075-.225-9.374 1.307-10.566 17.14-1.59 21.11-8.17 71.728-36.545 90.57 0 0 2.864 10.81 27.24 14.12v-11.76z" fill="#25CE9E"/><path d="M527.96 249.12c1.545 2.54 6.818 8.595 22.87 11.222v-9.523c0-1.066.864-1.93 1.93-1.93h21.903V142.83c-.476-.032-.954-.067-1.43-.102l-.74-.054c-4.63-.344-7.742 5.26-8.502 15.36-1.575 20.927-8.23 71.167-36.03 91.085m24.8 15.392c-.086 0-.174-.006-.26-.018-25.36-3.444-28.714-15.05-28.844-15.542-.213-.798.108-1.645.798-2.102 27.532-18.282 34.13-68.404 35.687-89.105 1.342-17.808 9.29-19.16 12.63-18.92l.745.053c1.065.078 2.13.157 3.197.222 1.018.063 1.81.906 1.81 1.927V250.37c0 .278-.058.552-.174.804l-.205.448c-.314.687-1 1.127-1.755 1.127h-21.7v9.83c0 .558-.24 1.09-.66 1.455-.353.308-.804.477-1.27.477" fill="#1C3E58"/><path d="M215.882 365.043c5.483-7.54 8.727-16.813 8.727-26.848 0-10.036-3.245-19.31-8.728-26.85-26.56-13.65-50.362-12.13-69.38-5.37-8.215 8.263-13.294 19.647-13.294 32.22 0 12.572 5.08 23.958 13.294 32.22 19.018 6.76 42.82 8.28 69.38-5.372" fill="#ECF0F7"/><path d="M147.565 368.744c22.322 7.813 44.867 6.06 67.022-5.207 5.295-7.437 8.09-16.19 8.09-25.343 0-9.152-2.795-17.905-8.09-25.34-22.155-11.27-44.7-13.02-67.022-5.208-8.017 8.222-12.427 19.053-12.427 30.548 0 11.497 4.41 22.328 12.427 30.55m27.468 8.66c-9.732 0-19.472-1.72-29.176-5.17-.273-.097-.52-.253-.723-.457-8.935-8.987-13.856-20.914-13.856-33.583 0-12.668 4.92-24.594 13.856-33.58.204-.205.45-.362.723-.458 23.64-8.402 47.496-6.56 70.907 5.475.268.138.5.337.678.582 5.95 8.18 9.097 17.856 9.097 27.982 0 10.128-3.147 19.804-9.098 27.984-.178.245-.41.444-.678.582-13.8 7.093-27.758 10.645-41.73 10.645M170.963 211.817c5.195 0 9.422 4.227 9.422 9.42v17.648c0 3.066 2.493 5.56 5.56 5.56H197.9c3.066 0 5.56-2.494 5.56-5.56v-17.647c0-5.194 4.227-9.42 9.42-9.42h1.44c3.065 0 5.56-2.496 5.56-5.562v-11.954c0-3.066-2.495-5.56-5.56-5.56h-1.44c-5.193 0-9.42-4.227-9.42-9.422v-17.647c0-3.066-2.494-5.56-5.56-5.56h-11.955c-3.067 0-5.56 2.494-5.56 5.56v17.647c0 5.195-4.227 9.42-9.422 9.42-5.194 0-9.42-4.225-9.42-9.42v-17.647c0-3.066-2.494-5.56-5.56-5.56h-11.955c-3.067 0-5.56 2.494-5.56 5.56v17.647c0 5.195-4.228 9.42-9.422 9.42h-5.844c-3.067 0-5.56 2.496-5.56 5.562v11.954c0 3.066 2.493 5.56 5.56 5.56h5.844c5.194 0 9.42 4.228 9.42 9.422v17.647c0 3.066 2.495 5.56 5.562 5.56h11.955c3.066 0 5.56-2.494 5.56-5.56v-17.647c0-5.194 4.226-9.42 9.42-9.42m26.937 36.488h-11.955c-5.194 0-9.42-4.226-9.42-9.42v-17.648c0-3.066-2.495-5.56-5.562-5.56-3.066 0-5.56 2.494-5.56 5.56v17.647c0 5.195-4.226 9.42-9.42 9.42h-11.955c-5.195 0-9.422-4.225-9.422-9.42v-17.647c0-3.066-2.494-5.56-5.56-5.56h-5.844c-5.194 0-9.42-4.227-9.42-9.422v-11.954c0-5.194 4.226-9.42 9.42-9.42h5.844c3.066 0 5.56-2.496 5.56-5.562v-17.647c0-5.194 4.227-9.42 9.422-9.42h11.955c5.194 0 9.42 4.226 9.42 9.42v17.647c0 3.066 2.494 5.56 5.56 5.56 3.067 0 5.56-2.494 5.56-5.56v-17.647c0-5.194 4.228-9.42 9.422-9.42H197.9c5.195 0 9.42 4.226 9.42 9.42v17.647c0 3.066 2.495 5.56 5.56 5.56h1.44c5.193 0 9.42 4.228 9.42 9.422v11.954c0 5.195-4.227 9.42-9.42 9.42h-1.44c-3.065 0-5.56 2.496-5.56 5.562v17.647c0 5.195-4.225 9.42-9.42 9.42" fill="#1C3E58"/><path d="M3.12 284.288l54.98 79.97H3.12v-79.97zM-11.764 236.2v145.274h99.876L-11.763 236.2z" fill="#FFD102"/><path d="M5.05 362.328h49.38L5.05 290.502v71.826zm53.05 3.86H3.117c-1.066 0-1.93-.863-1.93-1.93v-79.97c0-.846.55-1.593 1.358-1.844.807-.25 1.684.054 2.163.75l54.98 79.97c.405.592.45 1.36.117 1.993-.334.634-.992 1.032-1.708 1.032zm-67.933 13.356h94.276l-94.276-137.13v137.13zm97.946 3.86h-99.876c-1.065 0-1.93-.864-1.93-1.93V236.2c0-.845.55-1.59 1.358-1.84.806-.253 1.684.052 2.163.748L89.703 380.38c.406.592.45 1.358.118 1.993-.333.634-.99 1.03-1.707 1.03z" fill="#1C3E58"/><path fill="#ECF0F7" d="M367.056 45.75l5.253 6.17 8.06-.83-4.244 6.902 3.28 7.41-7.876-1.904-6.032 5.41-.625-8.078-7.008-4.066 7.49-3.09"/><path fill="#4088DA" d="M75.674 125.968l5.11 7.864 9.374.25-5.9 7.29 2.658 8.993-8.755-3.36-7.732 5.308.49-9.366-7.437-5.712 9.06-2.428"/><path fill="#FFD102" d="M441.02 22.39l4.563 9.248 10.205 1.483-7.385 7.2 1.743 10.163-9.127-4.8-9.13 4.8 1.744-10.164-7.384-7.2 10.205-1.482M120.648 246.557l4.563 9.247 10.206 1.483-7.384 7.198 1.743 10.163-9.127-4.798-9.127 4.798 1.743-10.163-7.384-7.198 10.204-1.483"/><path fill="#ECF0F7" d="M149.336 72.255l5.114 8.954 10.276.863-6.936 7.63 2.354 10.04-9.4-4.238-8.822 5.34 1.126-10.25-7.806-6.738 10.097-2.096"/><path fill="#4088DA" d="M279.128 36.627l2.05 10.106 9.49 4.04-8.978 5.073-.91 10.272-7.6-6.97-10.05 2.31 4.28-9.383-5.3-8.845 10.244 1.172"/><path fill="#ECF0F7" d="M9.763 89.86l4.564 9.245 10.205 1.483-7.384 7.2 1.743 10.162-9.127-4.8-9.127 4.8 1.743-10.163-7.385-7.2L5.2 99.106"/><path fill="#4088DA" d="M1001.256 8.844l4.564 9.247 10.205 1.483-7.385 7.2 1.744 10.162-9.128-4.798-9.127 4.798 1.742-10.163-7.384-7.2 10.204-1.48"/><path fill="#ECF0F7" d="M642.866 10.15l2.296 7.095 7.148 2.13-6.04 4.377.183 7.456-6.03-4.39-7.034 2.476 2.312-7.09-4.53-5.925 7.46.008"/><path fill="#FFD102" d="M730.024 92.036l5.867 6.455 8.646-1.173-4.327 7.576 3.787 7.858-8.54-1.772-6.305 6.03-.953-8.672-7.684-4.13 7.953-3.586"/><path fill="#4088DA" d="M746.684 22.89l4.564 9.246 10.204 1.483-7.384 7.197 1.743 10.164-9.126-4.798-9.128 4.8 1.744-10.165-7.385-7.198 10.205-1.484"/><path fill="#FFD102" d="M881.998 20.238l1.982 11.346 10.47 4.8-10.178 5.39-1.33 11.443-8.272-8.015-11.292 2.272 5.066-10.345-5.65-10.038 11.404 1.62"/><path fill="#4088DA" d="M929.637 45.684l4.564 9.247 10.205 1.484-7.383 7.198 1.742 10.163-9.127-4.798-9.127 4.798 1.743-10.163-7.384-7.198 10.204-1.483"/><path d="M347.334 206.24c0-41.465-34.103-74.964-75.79-73.98-39.836.942-72.07 33.874-72.207 73.72-.074 21.872 9.347 41.535 24.37 55.123 9.992 9.038 15.732 21.853 15.732 35.326h67.793c0-13.485 5.76-26.3 15.755-35.348 14.95-13.535 24.346-33.087 24.346-54.843" fill="#FFD102"/><path d="M368.67 216.92c0 7.906 6.41 14.314 14.314 14.314 7.906 0 14.314-6.408 14.314-14.314 0-7.905-6.408-14.313-14.314-14.313-7.904 0-14.313 6.408-14.313 14.313" fill="#FFF"/><path d="M382.985 204.537c-6.83 0-12.384 5.555-12.384 12.383 0 6.83 5.556 12.383 12.385 12.383 6.828 0 12.383-5.554 12.383-12.383 0-6.828-5.555-12.383-12.383-12.383m0 28.627c-8.957 0-16.244-7.287-16.244-16.244 0-8.956 7.288-16.244 16.245-16.244 8.956 0 16.243 7.288 16.243 16.244 0 8.957-7.287 16.244-16.243 16.244" fill="#1C3E58"/><path d="M551.538 119.83v-14.488c0-5.955-4.28-10.782-9.56-10.782s-9.562 4.827-9.562 10.782v14.49h19.122z" fill="#25CE9E"/><path d="M534.347 117.9h15.26v-12.558c0-4.88-3.422-8.853-7.63-8.853-4.207 0-7.63 3.97-7.63 8.852v12.56zm17.19 3.862h-19.12c-1.067 0-1.93-.865-1.93-1.93v-14.49c0-7.01 5.154-12.712 11.49-12.712 6.337 0 11.492 5.703 11.492 12.712v14.49c0 1.065-.866 1.93-1.932 1.93z" fill="#1C3E58"/><path d="M1137.03 250.728h53.116c7.145 0 12.938-5.792 12.938-12.938V134.737c0-7.146-5.793-12.94-12.938-12.94h-53.116c-7.145 0-12.938 5.794-12.938 12.94V237.79c0 7.146 5.793 12.938 12.938 12.938M1035.717 208.81c0 3.595 2.914 6.508 6.507 6.508 3.594 0 6.507-2.913 6.507-6.507 0-3.593-2.912-6.506-6.506-6.506-3.593 0-6.507 2.913-6.507 6.507" fill="#4088DA"/><path d="M1042.224 204.234c-2.524 0-4.577 2.054-4.577 4.577 0 2.525 2.053 4.578 4.577 4.578s4.578-2.053 4.578-4.577c0-2.522-2.054-4.576-4.578-4.576m0 13.015c-4.653 0-8.437-3.787-8.437-8.44 0-4.65 3.784-8.436 8.437-8.436 4.652 0 8.437 3.785 8.437 8.437 0 4.653-3.784 8.44-8.436 8.44M1020.433 204.234c-2.523 0-4.577 2.054-4.577 4.577 0 2.525 2.054 4.578 4.577 4.578 2.524 0 4.577-2.053 4.577-4.577 0-2.522-2.053-4.576-4.577-4.576m0 13.015c-4.652 0-8.437-3.787-8.437-8.44 0-4.65 3.785-8.436 8.437-8.436 4.653 0 8.437 3.785 8.437 8.437 0 4.653-3.784 8.44-8.437 8.44M998.642 204.234c-2.523 0-4.577 2.054-4.577 4.577 0 2.525 2.054 4.578 4.577 4.578 2.524 0 4.577-2.053 4.577-4.577 0-2.522-2.054-4.576-4.578-4.576m0 13.015c-4.652 0-8.437-3.787-8.437-8.44 0-4.65 3.785-8.436 8.437-8.436 4.652 0 8.437 3.785 8.437 8.437 0 4.653-3.786 8.44-8.438 8.44" fill="#1C3E58"/><path d="M1071.884 324.424h-35.713V304.69c0-6.317 5.122-11.44 11.44-11.44h24.274v31.174z" fill="#FABF62"/><path fill="#25CE9E" d="M82.97 300.25l-9.918 7.198-82.33-113.463 9.917-7.196"/><path d="M-6.584 194.414L73.48 304.752l6.795-4.93L.21 189.484l-6.794 4.93zm79.638 114.963c-.597 0-1.186-.276-1.564-.796l-82.33-113.46c-.3-.416-.426-.932-.345-1.438.08-.505.358-.958.772-1.26l9.92-7.196c.862-.625 2.07-.434 2.694.43l82.332 113.46c.3.416.424.933.345 1.438-.08.506-.36.96-.773 1.26l-9.918 7.196c-.342.248-.74.367-1.132.367z" fill="#1C3E58"/><path d="M-9.28 195.916c-.828 0-1.594-.538-1.847-1.372l-5.404-17.88c-.24-.787.047-1.64.713-2.122.665-.48 1.563-.49 2.237-.02l15.323 10.683c.874.61 1.09 1.813.48 2.687-.61.875-1.813 1.09-2.688.48l-10.763-7.505 3.796 12.56c.31 1.02-.268 2.097-1.29 2.406-.185.056-.373.083-.558.083M12.46 180.596L85.037 280.62l6.794-4.93-72.58-100.023-6.793 4.93zm72.15 104.65c-.1 0-.202-.01-.303-.025-.505-.08-.958-.357-1.26-.77L8.202 181.3c-.3-.414-.423-.93-.342-1.436.08-.505.357-.96.772-1.26l9.918-7.195c.864-.627 2.07-.435 2.696.427L96.09 274.984c.626.863.434 2.07-.428 2.697l-9.918 7.197c-.332.24-.73.368-1.134.368z" fill="#1C3E58"/><path d="M9.763 182.098c-.83 0-1.595-.538-1.847-1.372l-5.404-17.88c-.238-.787.048-1.64.713-2.122.666-.48 1.564-.49 2.238-.02l15.323 10.684c.874.61 1.09 1.813.48 2.687-.61.875-1.814 1.09-2.688.48l-10.763-7.506 3.796 12.56c.31 1.02-.268 2.096-1.288 2.405-.186.056-.375.083-.56.083" fill="#1C3E58"/><path d="M4.36 164.217c-.596 0-1.185-.276-1.563-.797l-3.886-5.355c-.625-.863-.433-2.07.43-2.696.86-.626 2.07-.435 2.695.428l3.886 5.355c.628.864.435 2.07-.427 2.696-.343.248-.74.367-1.132.367M86.753 267.337c-.38 0-.767-.112-1.103-.348-.873-.61-1.087-1.812-.48-2.685.308-.446 7.084-10.568-1.163-21.936-4.485-6.18-9.305-7.202-14.41-8.283-4.62-.977-9.395-1.99-13.094-7.086-3.765-5.186-4.205-11.82-1.24-18.68.423-.98 1.558-1.43 2.537-1.008.978.423 1.43 1.56 1.006 2.54-1.7 3.93-2.936 9.704.82 14.88 2.827 3.897 6.51 4.677 10.772 5.58 5.332 1.13 11.375 2.41 16.733 9.79 9.905 13.65 1.295 26.285 1.208 26.41-.376.538-.976.825-1.585.825M89.488 282.16l5.217 7.19 2.43-1.762-5.218-7.19-2.43 1.762zm4.79 11.817c-.102 0-.204-.008-.305-.024-.504-.08-.958-.36-1.26-.772l-7.483-10.315c-.3-.414-.425-.932-.344-1.436.08-.507.358-.96.772-1.26l5.554-4.03c.416-.3.933-.422 1.437-.345.505.08.958.36 1.258.773l7.485 10.315c.626.863.434 2.07-.43 2.696l-5.553 4.03c-.33.24-.73.367-1.133.367z" fill="#1C3E58"/><path d="M59.517 211.65c.416.572 1.028.947 1.726 1.06.697.11 1.396-.058 1.968-.473.573-.415.95-1.027 1.06-1.725.11-.698-.056-1.397-.47-1.97-.858-1.18-2.515-1.44-3.695-.586-.572.416-.948 1.027-1.06 1.726-.11.697.058 1.397.472 1.968m2.155 4.952c-.344 0-.69-.026-1.035-.082-1.716-.272-3.223-1.197-4.244-2.603-1.02-1.407-1.43-3.125-1.16-4.84.273-1.718 1.2-3.225 2.605-4.245 1.406-1.02 3.126-1.433 4.84-1.16 1.717.274 3.225 1.198 4.245 2.604 1.02 1.407 1.432 3.126 1.16 4.842-.274 1.716-1.198 3.224-2.605 4.243-1.122.816-2.445 1.242-3.806 1.242M60.646 252.218c-.597 0-1.185-.276-1.564-.797-.625-.86-.434-2.068.43-2.695l9.917-7.197c.862-.625 2.07-.434 2.695.43.626.862.434 2.068-.43 2.695l-9.916 7.197c-.344.25-.74.368-1.134.368M104.898 182.933c-1.066 0-1.93-.865-1.93-1.93v-39.91c0-1.066.864-1.93 1.93-1.93h15.305L78.353 86.54 36.5 139.162h15.306c1.066 0 1.93.864 1.93 1.93v39.91c0 1.065-.864 1.93-1.93 1.93-1.066 0-1.93-.865-1.93-1.93v-37.98H32.5c-.74 0-1.416-.424-1.74-1.092-.32-.666-.232-1.46.23-2.038L76.84 82.236c.365-.46.92-.73 1.51-.73.588 0 1.144.27 1.51.73l45.852 57.656c.462.58.55 1.372.228 2.04-.322.667-.998 1.09-1.738 1.09h-17.376v37.98c0 1.066-.864 1.93-1.93 1.93M95.17 321.814c-.407 0-.817-.128-1.165-.393-.85-.644-1.015-1.852-.372-2.702.283-.373 7.085-9.25 19.995-18.087 11.914-8.154 31.49-17.78 57-17.177 1.067.024 1.91.908 1.887 1.973-.024 1.065-.884 1.933-1.973 1.885-46.837-1.05-73.57 33.393-73.834 33.742-.38.5-.955.762-1.538.762M175.71 390.378c-16.18 0-27.212-3.836-27.416-3.91-1.003-.36-1.524-1.464-1.165-2.466.358-1.004 1.464-1.526 2.466-1.167.367.13 37.17 12.86 74.623-9.673.912-.55 2.1-.254 2.648.66.55.913.254 2.1-.66 2.648-18.233 10.97-36.338 13.908-50.498 13.908M120.648 332.407c-2.524 0-4.577 2.053-4.577 4.577s2.054 4.577 4.578 4.577c2.523 0 4.576-2.052 4.576-4.576 0-2.524-2.053-4.577-4.576-4.577m0 13.015c-4.653 0-8.437-3.786-8.437-8.438 0-4.652 3.785-8.437 8.438-8.437 4.652 0 8.437 3.785 8.437 8.437 0 4.652-3.785 8.438-8.437 8.438" fill="#1C3E58"/><path d="M178.908 334.437c-.664-.068.276-10.927 1.36-21.58-.45-.024-.904-.04-1.36-.04-13.347 0-24.167 10.82-24.167 24.168 0 13.347 10.82 24.166 24.168 24.166 13.347 0 24.167-10.818 24.167-24.165 0-3.092-.587-6.044-1.644-8.76-10.354 3.013-21.814 6.285-22.522 6.212" fill="#2B71B5"/><path d="M184.053 156.112c-1.066 0-1.93-.864-1.93-1.93v-36.915l-8.394 10.01c-.686.815-1.903.92-2.72.237-.817-.685-.924-1.902-.24-2.72l11.804-14.072c.522-.62 1.376-.85 2.14-.573.762.276 1.27 1 1.27 1.812v42.22c0 1.066-.865 1.93-1.93 1.93" fill="#1C3E58"/><path d="M184.053 156.112c-1.066 0-1.93-.864-1.93-1.93v-42.22c0-.81.508-1.536 1.27-1.813.763-.28 1.617-.05 2.14.572l11.802 14.073c.686.817.58 2.034-.238 2.72-.816.683-2.033.577-2.72-.24l-8.394-10.01v36.917c0 1.066-.864 1.93-1.93 1.93M257.75 98.003c-5.612 0-10.177 4.565-10.177 10.176 0 5.61 4.565 10.175 10.176 10.175 5.61 0 10.175-4.564 10.175-10.176s-4.565-10.177-10.176-10.177m0 24.213c-7.74 0-14.037-6.297-14.037-14.037 0-7.74 6.297-14.038 14.036-14.038 7.74 0 14.035 6.297 14.035 14.037 0 7.74-6.296 14.036-14.036 14.036M285.215 83.173c-2.65 0-4.804 2.155-4.804 4.804 0 2.65 2.156 4.804 4.805 4.804 2.65 0 4.804-2.154 4.804-4.803 0-2.65-2.156-4.804-4.805-4.804m0 13.468c-4.777 0-8.664-3.885-8.664-8.663 0-4.777 3.888-8.664 8.665-8.664 4.777 0 8.664 3.887 8.664 8.664 0 4.778-3.888 8.664-8.665 8.664M404.99 88.205c-3.588 0-6.507 2.918-6.507 6.506s2.92 6.507 6.506 6.507c3.587 0 6.506-2.92 6.506-6.506 0-3.587-2.92-6.505-6.507-6.505m0 16.872c-5.717 0-10.367-4.65-10.367-10.366 0-5.715 4.65-10.366 10.366-10.366 5.716 0 10.366 4.65 10.366 10.367 0 5.717-4.65 10.367-10.367 10.367M357.5 125.09c-4.996 0-9.06 4.065-9.06 9.06s4.064 9.06 9.06 9.06c4.995 0 9.06-4.065 9.06-9.06s-4.065-9.06-9.06-9.06m0 21.98c-7.124 0-12.92-5.796-12.92-12.92 0-7.123 5.796-12.92 12.92-12.92s12.92 5.797 12.92 12.92c0 7.124-5.796 12.92-12.92 12.92M516.66 19.523c-8.078 0-14.65 6.572-14.65 14.65 0 8.076 6.572 14.648 14.65 14.648 8.077 0 14.648-6.57 14.648-14.648 0-8.077-6.57-14.65-14.648-14.65m0 33.16c-10.206 0-18.51-8.304-18.51-18.51 0-10.206 8.304-18.51 18.51-18.51 10.205 0 18.508 8.304 18.508 18.51 0 10.206-8.303 18.51-18.508 18.51M792.574 35.657c-4.256 0-7.717 3.462-7.717 7.717 0 4.255 3.46 7.717 7.717 7.717 4.255 0 7.716-3.46 7.716-7.716 0-4.255-3.46-7.717-7.716-7.717m0 19.294c-6.384 0-11.578-5.193-11.578-11.576 0-6.384 5.194-11.578 11.578-11.578 6.383 0 11.577 5.194 11.577 11.578 0 6.383-5.193 11.577-11.576 11.577M770.215 69.25c-5.945 0-10.78 4.837-10.78 10.783 0 5.945 4.835 10.78 10.78 10.78 5.945 0 10.78-4.835 10.78-10.78 0-5.946-4.835-10.782-10.78-10.782m0 25.424c-8.073 0-14.64-6.568-14.64-14.64 0-8.075 6.567-14.643 14.64-14.643s14.642 6.57 14.642 14.643-6.57 14.64-14.642 14.64M886.51 89.226c-3.11 0-5.637 2.528-5.637 5.636 0 3.11 2.528 5.637 5.637 5.637 3.108 0 5.636-2.53 5.636-5.638s-2.528-5.636-5.636-5.636m0 15.133c-5.236 0-9.497-4.262-9.497-9.498s4.26-9.496 9.497-9.496c5.236 0 9.496 4.26 9.496 9.496 0 5.236-4.26 9.497-9.496 9.497M695.15 218.85c-4.997 0-9.063 4.066-9.063 9.063 0 4.998 4.066 9.064 9.064 9.064s9.064-4.066 9.064-9.064c0-4.997-4.066-9.063-9.063-9.063m0 21.987c-7.125 0-12.923-5.797-12.923-12.924 0-7.126 5.798-12.923 12.924-12.923 7.127 0 12.924 5.797 12.924 12.923 0 7.127-5.797 12.924-12.923 12.924M786.706 289.097c-3.11 0-5.637 2.528-5.637 5.636s2.527 5.636 5.636 5.636c3.108 0 5.636-2.53 5.636-5.637 0-3.108-2.528-5.636-5.636-5.636m0 15.133c-5.236 0-9.497-4.26-9.497-9.497 0-5.236 4.26-9.496 9.496-9.496 5.236 0 9.496 4.26 9.496 9.496 0 5.236-4.26 9.497-9.496 9.497M928.32 97.428c-7.806 0-14.155 6.35-14.155 14.156 0 7.805 6.35 14.155 14.155 14.155 7.806 0 14.156-6.35 14.156-14.156 0-7.806-6.35-14.156-14.156-14.156m0 32.17c-9.934 0-18.015-8.08-18.015-18.014s8.08-18.016 18.015-18.016c9.934 0 18.016 8.082 18.016 18.016 0 9.934-8.082 18.015-18.016 18.015M1104.873 78.028c-3.525 0-6.393 2.868-6.393 6.393 0 3.526 2.868 6.394 6.393 6.394s6.393-2.868 6.393-6.393c0-3.524-2.868-6.392-6.393-6.392m0 16.646c-5.654 0-10.253-4.6-10.253-10.253 0-5.653 4.6-10.252 10.253-10.252 5.654 0 10.253 4.6 10.253 10.253 0 5.654-4.6 10.254-10.253 10.254M1187.95 269.305c-2.773 0-5.03 2.257-5.03 5.03 0 2.775 2.257 5.03 5.03 5.03 2.775 0 5.032-2.255 5.032-5.03 0-2.773-2.257-5.03-5.03-5.03m0 13.92c-4.903 0-8.89-3.987-8.89-8.89 0-4.902 3.987-8.89 8.89-8.89 4.9 0 8.89 3.988 8.89 8.89 0 4.903-3.99 8.89-8.89 8.89M1192.793 298.208c-6.78 0-12.294 5.515-12.294 12.294 0 6.78 5.514 12.295 12.293 12.295 6.78 0 12.296-5.516 12.296-12.295 0-6.78-5.517-12.294-12.297-12.294m0 28.45c-8.907 0-16.155-7.25-16.155-16.156 0-8.908 7.248-16.155 16.155-16.155 8.908 0 16.156 7.247 16.156 16.155 0 8.907-7.25 16.155-16.157 16.155M499.853 234.19c-4.88 0-8.85 3.973-8.85 8.854 0 4.88 3.97 8.852 8.85 8.852 4.88 0 8.852-3.97 8.852-8.852 0-4.88-3.97-8.853-8.852-8.853m0 21.566c-7.01 0-12.712-5.702-12.712-12.712s5.704-12.713 12.713-12.713c7.01 0 12.712 5.704 12.712 12.714 0 7.01-5.702 12.712-12.712 12.712M408.697 255.685c-3.733 0-6.77 3.038-6.77 6.77 0 3.734 3.037 6.772 6.77 6.772 3.734 0 6.77-3.038 6.77-6.77 0-3.734-3.036-6.772-6.77-6.772m0 17.402c-5.862 0-10.632-4.77-10.632-10.63 0-5.863 4.77-10.632 10.632-10.632s10.63 4.77 10.63 10.63c0 5.863-4.768 10.632-10.63 10.632M460.66 362.87c-3.86 0-6.998 3.14-6.998 6.998s3.14 6.998 6.998 6.998c3.86 0 6.998-3.14 6.998-6.998 0-3.86-3.14-6.998-6.998-6.998m0 17.856c-5.988 0-10.86-4.87-10.86-10.858 0-5.987 4.872-10.86 10.86-10.86 5.987 0 10.858 4.873 10.858 10.86 0 5.987-4.87 10.858-10.858 10.858M309.712 101.397h65.556c-.373-9.062-9.643-16.343-20.985-16.343-3.43 0-6.84.69-9.863 1.99-.855.367-1.85.074-2.367-.7-3.363-5.023-8.973-8.023-15.008-8.023-9.95 0-18.045 8.095-18.045 18.046 0 1.715.24 3.4.712 5.03m67.432 3.86H308.32c-.808 0-1.53-.5-1.81-1.256-.91-2.445-1.37-5.013-1.37-7.634 0-12.08 9.827-21.906 21.905-21.906 6.8 0 13.154 3.137 17.295 8.463 3.137-1.148 6.474-1.728 9.943-1.728 13.706 0 24.856 9.317 24.856 20.77 0 .468-.024.954-.074 1.53-.086.996-.92 1.762-1.922 1.762" fill="#1C3E58"/><path d="M309.35 313.68h-72.03c-4.764 0-8.625-3.862-8.625-8.625 0-4.764 3.86-8.626 8.625-8.626h72.03c4.766 0 8.627 3.86 8.627 8.624 0 4.764-3.86 8.626-8.626 8.626" fill="#ECF0F7"/><path d="M237.32 298.36c-3.692 0-6.695 3.003-6.695 6.695 0 3.69 3.003 6.695 6.695 6.695h72.03c3.694 0 6.697-3.004 6.697-6.695 0-3.692-3.003-6.696-6.696-6.696h-72.03zm72.03 17.25h-72.03c-5.82 0-10.555-4.735-10.555-10.555 0-5.82 4.735-10.556 10.555-10.556h72.03c5.822 0 10.557 4.734 10.557 10.555 0 5.82-4.735 10.555-10.556 10.555z" fill="#1C3E58"/><path d="M309.35 330.93h-72.03c-4.764 0-8.625-3.86-8.625-8.624 0-4.764 3.86-8.626 8.625-8.626h72.03c4.766 0 8.627 3.862 8.627 8.626 0 4.763-3.86 8.625-8.626 8.625" fill="#ECF0F7"/><path d="M237.32 315.61c-3.692 0-6.695 3.003-6.695 6.696 0 3.692 3.003 6.696 6.695 6.696h72.03c3.694 0 6.697-3.004 6.697-6.696 0-3.693-3.003-6.696-6.696-6.696h-72.03zm72.03 17.25h-72.03c-5.82 0-10.555-4.735-10.555-10.554 0-5.82 4.735-10.557 10.555-10.557h72.03c5.822 0 10.557 4.735 10.557 10.556 0 5.82-4.735 10.555-10.556 10.555z" fill="#1C3E58"/><path d="M306.325 348.183h-65.978c-4.764 0-8.626-3.862-8.626-8.626 0-4.764 3.863-8.626 8.627-8.626h65.978c4.764 0 8.625 3.863 8.625 8.627 0 4.764-3.86 8.626-8.625 8.626" fill="#ECF0F7"/><path d="M240.347 332.862c-3.692 0-6.696 3.003-6.696 6.695s3.005 6.695 6.697 6.695h65.978c3.692 0 6.696-3.003 6.696-6.695s-3.003-6.695-6.695-6.695h-65.978zm65.978 17.25h-65.978c-5.82 0-10.556-4.735-10.556-10.555 0-5.82 4.736-10.556 10.557-10.556h65.978c5.82 0 10.555 4.737 10.555 10.557s-4.735 10.555-10.555 10.555z" fill="#1C3E58"/><path d="M301.936 365.434h-57.2c-4.765 0-8.626-3.862-8.626-8.626 0-4.764 3.86-8.626 8.625-8.626h57.2c4.766 0 8.627 3.862 8.627 8.626 0 4.764-3.86 8.626-8.626 8.626" fill="#ECF0F7"/><path d="M244.735 350.112c-3.692 0-6.695 3.003-6.695 6.696 0 3.692 3.003 6.696 6.695 6.696h57.202c3.69 0 6.695-3.004 6.695-6.696 0-3.693-3.004-6.696-6.695-6.696h-57.202zm57.202 17.252h-57.202c-5.82 0-10.555-4.736-10.555-10.556 0-5.82 4.735-10.556 10.555-10.556h57.202c5.82 0 10.555 4.736 10.555 10.556 0 5.82-4.736 10.556-10.555 10.556z" fill="#1C3E58"/><path d="M102.628 338.193c5.264 5.927 30.004 31.68 64.916 34.974 23.206 2.188 46.327-5.832 68.772-23.854-3.826-1.587-6.525-5.363-6.525-9.755 0-2.985 1.246-5.685 3.244-7.607-3.69-1.645-6.27-5.35-6.27-9.645 0-.71.074-1.42.22-2.12-29.338-19.803-59.217-22.717-88.83-8.66-19.01 9.024-31.897 22.572-35.526 26.668m72.412 39.188c-2.63 0-5.26-.124-7.896-.373-40.926-3.882-67.454-36.225-68.563-37.6-.57-.708-.57-1.717 0-2.424.583-.722 14.528-17.804 37.792-28.886 21.567-10.272 55.373-16.933 93.942 9.686.722.498 1.017 1.42.718 2.246-.27.745-.408 1.51-.408 2.275 0 3.693 3.004 6.696 6.696 6.696h3.027c1.066 0 1.93.866 1.93 1.932 0 1.065-.864 1.93-1.93 1.93-3.692 0-6.696 3.003-6.696 6.696 0 3.69 3.005 6.694 6.697 6.694h.37c.81 0 1.535.506 1.813 1.266.28.76.054 1.614-.564 2.137-21.746 18.422-44.224 27.726-66.926 27.726M273.336 379.795c-15.126 0-26.975-6.308-26.975-14.36 0-1.067.865-1.93 1.93-1.93 1.067 0 1.93.863 1.93 1.93 0 4.965 9.494 10.5 23.116 10.5 13.62 0 23.114-5.535 23.114-10.5 0-1.067.864-1.93 1.93-1.93 1.066 0 1.93.863 1.93 1.93 0 8.052-11.85 14.36-26.974 14.36" fill="#1C3E58"/><path d="M273.336 385.772c-4.57 0-8.286-3.548-8.286-7.908 0-1.065.864-1.93 1.93-1.93 1.066 0 1.93.865 1.93 1.93 0 2.233 1.986 4.048 4.426 4.048 2.44 0 4.425-1.815 4.425-4.048 0-1.065.865-1.93 1.93-1.93 1.067 0 1.932.865 1.932 1.93 0 4.36-3.718 7.908-8.286 7.908M216.475 209.417c-1.066 0-1.93-.864-1.93-1.93 0-26.152 17.55-49.408 42.676-56.554 1.025-.292 2.094.303 2.385 1.328.292 1.027-.303 2.094-1.328 2.385-23.476 6.677-39.872 28.407-39.872 52.842 0 1.066-.864 1.93-1.93 1.93M252.685 196.06c-6.122 0-9.96 1.92-10.3 5.176-.357 3.45 3.328 8.093 9.19 9.237 3.507.685 6.81 1.134 9.73 1.43-.79-5.695-2.278-11.552-4.963-14.316-.98-1.01-2.038-1.508-3.235-1.524l-.422-.003m11.344 102.3c-1.067 0-1.93-.865-1.93-1.93v-72.335c.027-1.89-.05-4.902-.352-8.266-3.216-.303-6.926-.79-10.913-1.568-7.394-1.444-12.907-7.466-12.288-13.425.214-2.07 1.897-8.8 14.614-8.635 2.244.032 4.246.94 5.953 2.697 3.61 3.715 5.32 10.972 6.13 17.327 4.898.316 8.024.18 8.08.18 1.052-.05 1.967.773 2.016 1.838.05 1.065-.775 1.97-1.84 2.018-.22.01-3.19.137-7.852-.136.354 4.354.316 7.656.31 7.998v72.304c0 1.065-.863 1.93-1.93 1.93" fill="#1C3E58"/><path d="M293.986 196.06c-.14 0-.28 0-.42.003-1.2.016-2.257.515-3.237 1.524-2.686 2.764-4.175 8.622-4.962 14.314 2.922-.293 6.225-.743 9.73-1.427 5.86-1.144 9.546-5.786 9.188-9.237-.338-3.255-4.178-5.176-10.3-5.176m-11.344 102.3c-1.066 0-1.93-.865-1.93-1.93v-72.335c-.005-.33-.044-3.622.31-7.968-4.66.272-7.63.146-7.85.136-1.066-.05-1.888-.952-1.84-2.017.05-1.064.955-1.89 2.017-1.84.053.002 3.184.134 8.078-.18.81-6.353 2.522-13.61 6.13-17.327 1.707-1.758 3.71-2.666 5.953-2.698 12.705-.21 14.4 6.565 14.615 8.635.62 5.96-4.894 11.98-12.288 13.425-3.988.778-7.698 1.265-10.915 1.567-.3 3.355-.378 6.358-.35 8.236v72.363c0 1.065-.864 1.93-1.93 1.93M438.584 207.336c-1.066 0-1.93-.864-1.93-1.93V130.54h-24.628c-.758 0-1.446-.445-1.76-1.136-.31-.69-.19-1.5.31-2.07l54.4-61.88c.215-.28.504-.5.847-.63.75-.283 1.6-.082 2.13.52l54.477 61.97c.5.57.622 1.378.31 2.07-.313.69-1 1.134-1.76 1.134h-24.627v62.858c0 1.066-.864 1.93-1.93 1.93-1.066 0-1.93-.864-1.93-1.93v-64.79c0-1.065.864-1.93 1.93-1.93h22.29l-50.2-57.103-50.22 57.125h22.29c1.067 0 1.93.865 1.93 1.93v76.798c0 1.066-.863 1.93-1.93 1.93" fill="#1C3E58"/><path d="M482.015 189.707c-1.066 0-1.93-.865-1.93-1.93V128.76c0-1.066.864-1.93 1.93-1.93 1.066 0 1.93.864 1.93 1.93v59.016c0 1.066-.864 1.93-1.93 1.93M372.093 276.864c-.117 0-.236-.01-.355-.033-28.8-5.373-49.7-30.57-49.7-59.91 0-8.45 1.697-16.63 5.043-24.315.427-.977 1.564-1.423 2.542-1 .977.427 1.424 1.564.998 2.54-3.134 7.196-4.722 14.858-4.722 22.776 0 27.484 19.576 51.084 46.547 56.116 1.048.196 1.74 1.204 1.544 2.252-.175.928-.985 1.576-1.897 1.576M416.187 170.053c-.375 0-.753-.11-1.086-.336-9.483-6.466-20.59-9.884-32.115-9.884-9.78 0-19.427 2.514-27.9 7.27-.93.522-2.107.19-2.628-.738-.52-.93-.19-2.106.738-2.628 9.05-5.08 19.35-7.764 29.79-7.764 12.305 0 24.163 3.65 34.29 10.555.88.6 1.108 1.8.508 2.682-.373.548-.98.843-1.596.843M382.985 244.335c-15.117 0-27.415-12.298-27.415-27.415 0-15.116 12.298-27.415 27.415-27.415 5.313 0 10.468 1.523 14.908 4.404.894.58 1.148 1.775.568 2.67-.58.892-1.774 1.147-2.67.567-3.81-2.474-8.24-3.782-12.805-3.782-12.99 0-23.555 10.567-23.555 23.555s10.566 23.554 23.555 23.554c1.066 0 1.93.865 1.93 1.93 0 1.067-.864 1.93-1.93 1.93" fill="#1C3E58"/><path d="M372.09 279.67c-1.035 0-1.89-.82-1.928-1.863-.03-.855-.556-21.092 14.57-32.95 14.054-11.018 34.107-6.977 34.953-6.8 1.044.22 1.712 1.243 1.494 2.285-.22 1.044-1.24 1.71-2.286 1.494-.19-.04-19.16-3.836-31.78 6.06-13.6 10.66-13.1 29.587-13.094 29.777.037 1.065-.796 1.96-1.86 1.996h-.07M314.925 341.982c-.282 0-.568-.062-.84-.193-.96-.466-1.36-1.62-.896-2.58 6.484-13.4 20.525-22.757 34.144-22.757 1.8 0 3.607.132 5.393.395 1.318-19.197 17.42-34.456 36.907-34.456 7.962 0 15.55 2.492 21.938 7.203.858.633 1.04 1.842.408 2.7-.633.857-1.84 1.04-2.7.407-5.72-4.22-12.514-6.45-19.646-6.45-18.138 0-33.002 14.758-33.133 32.898-.003.578-.267 1.124-.718 1.488-.45.364-1.04.506-1.607.386-2.248-.472-4.55-.71-6.84-.71-12.195 0-24.807 8.462-30.67 20.578-.335.69-1.023 1.09-1.74 1.09M369.012 384.418c.92-.165 1.59-.966 1.59-1.9 0-18.22 17.764-33.04 39.6-33.04 4.207 0 8.367.556 12.365 1.652.578.16 1.195.04 1.672-.32.477-.36.76-.92.768-1.518.054-4.538 2.644-9.362 7.293-13.583 7.51-6.817 18.847-10.866 28.197-10.073 1.063.09 1.996-.698 2.086-1.76.09-1.063-.698-1.997-1.76-2.087-10.364-.87-22.864 3.568-31.118 11.06-4.68 4.25-7.58 9.143-8.35 14-3.638-.82-7.38-1.233-11.153-1.233-23.343 0-42.446 15.707-43.422 35.326-5.714 1.316-24.897 6.85-24.897 21.868h3.86c0-14.043 23.037-18.35 23.27-18.392" fill="#1C3E58"/><path d="M377.172 321.816c-.178 0-.36-.026-.54-.078-1.023-.297-1.612-1.368-1.315-2.392 2.158-7.43 6.14-12.645 11.84-15.504 10.106-5.07 21.83-.78 22.325-.595.998.374 1.505 1.486 1.13 2.485-.373.996-1.482 1.505-2.482 1.13-.152-.056-10.702-3.868-19.266.442-4.686 2.36-7.997 6.773-9.84 13.12-.245.843-1.016 1.39-1.852 1.392M319.493 381.588c-.092 0-.184-.006-.278-.02-1.055-.152-1.787-1.13-1.635-2.185 4.705-32.618 33.09-35.37 33.377-35.393 1.063-.084 1.995.7 2.084 1.762.09 1.06-.698 1.994-1.76 2.084-1.07.095-25.625 2.6-29.88 32.098-.138.96-.963 1.654-1.907 1.654M389.4 387.188c-.996 0-1.842-.768-1.92-1.78-1.323-16.8 16.834-21.792 17.017-21.84 1.032-.275 2.086.343 2.358 1.373.273 1.03-.34 2.086-1.37 2.36-.63.17-15.225 4.24-14.158 17.806.083 1.063-.71 1.992-1.773 2.076-.05.003-.103.006-.153.006M434.954 358.13c-.07 0-.142-.005-.213-.013-1.055-.116-1.82-1.062-1.708-2.12.02-.196 2.384-19.72 27.396-22.745 1.05-.135 2.02.626 2.147 1.684.13 1.058-.626 2.02-1.684 2.148-21.87 2.646-23.942 18.65-24.02 19.33-.112.985-.947 1.715-1.916 1.715M472.862 231.774c-.064 0-.128-.003-.192-.01-1.06-.104-1.835-1.045-1.732-2.104.035-.356.913-8.828 6.802-16.898 5.45-7.464 16.345-15.933 37.3-13.893 1.06.103 1.836 1.046 1.733 2.108-.103 1.06-1.05 1.83-2.108 1.734-36.358-3.547-39.76 26.06-39.885 27.323-.1.995-.94 1.74-1.918 1.74" fill="#1C3E58"/><path fill="#FABF62" d="M553.71 290.527h-23.463l-7.904 21.716H561.612"/><path d="M525.1 310.313h33.756l-6.498-17.856h-20.76l-6.498 17.856zm36.512 3.86h-39.27c-.63 0-1.22-.307-1.58-.823-.36-.516-.448-1.176-.233-1.768l7.902-21.714c.278-.763 1.003-1.27 1.814-1.27h23.463c.81 0 1.535.507 1.813 1.27l7.903 21.714c.215.592.128 1.252-.233 1.768-.36.516-.95.823-1.58.823zM552.532 266.766c-1.06 0-1.925-.858-1.93-1.92l-.064-14.018c-.004-1.066.856-1.934 1.92-1.94h.01c1.063 0 1.926.86 1.93 1.923l.065 14.017c.005 1.066-.856 1.934-1.92 1.94h-.01zM651.042 294.727c-1.06 0-1.922-.855-1.93-1.916l-1.273-172.857-15.235.06-1.197 172.797c-.008 1.062-.87 1.917-1.93 1.917h-.014c-1.066-.007-1.924-.878-1.917-1.944l1.21-174.705c.01-1.057.866-1.912 1.924-1.917l19.068-.075h.007c1.06 0 1.922.855 1.93 1.916l1.287 174.783c.007 1.066-.85 1.936-1.916 1.944h-.014z" fill="#1C3E58"/><path d="M629.478 250.82h-23.63l-.204-.45V141.027c1.32-.08 2.64-.18 3.96-.277 3.076-.225 9.375 1.307 10.567 17.14 1.59 21.11 8.172 71.728 36.546 90.57 0 0-2.863 10.81-27.238 14.122V250.82z" fill="#25CE9E"/><path d="M607.574 248.89h21.903c1.066 0 1.93.864 1.93 1.93v9.522c16.054-2.628 21.328-8.68 22.87-11.22-27.798-19.92-34.455-70.16-36.03-91.087-.76-10.1-3.84-15.706-8.502-15.362l-.746.055-1.426.104V248.89zm21.903 15.62c-.464 0-.915-.166-1.27-.475-.42-.366-.66-.896-.66-1.454v-9.83H605.85c-.756 0-1.443-.44-1.757-1.13l-.204-.448c-.117-.25-.176-.525-.176-.8V141.026c0-1.02.793-1.864 1.812-1.927 1.063-.065 2.126-.144 3.19-.22l.75-.056c3.354-.243 11.29 1.117 12.63 18.92 1.557 20.702 8.153 70.823 35.688 89.106.69.458 1.01 1.303.798 2.102-.13.493-3.484 12.1-28.845 15.54-.087.013-.173.02-.26.02z" fill="#1C3E58"/><path d="M630.647 119.83v-14.488c0-5.955 4.304-10.782 9.613-10.782 5.308 0 9.61 4.827 9.61 10.782v14.49h-19.223z" fill="#25CE9E"/><path d="M632.577 117.9h15.365v-12.56c0-4.88-3.446-8.85-7.682-8.85-4.236 0-7.683 3.97-7.683 8.85v12.56zm17.294 3.862h-19.223c-1.065 0-1.93-.865-1.93-1.93v-14.49c0-7.01 5.178-12.712 11.543-12.712 6.363 0 11.54 5.702 11.54 12.71v14.49c0 1.067-.863 1.932-1.93 1.932z" fill="#1C3E58"/><path fill="#FABF62" d="M628.528 290.527h23.462l7.904 21.716H620.625"/><path d="M623.38 310.313h33.758l-6.498-17.856h-20.76l-6.5 17.856zm36.514 3.86h-39.27c-.628 0-1.22-.307-1.58-.823-.36-.516-.45-1.176-.233-1.768l7.904-21.714c.277-.763 1.002-1.27 1.814-1.27h23.463c.813 0 1.538.507 1.815 1.27l7.903 21.714c.216.592.13 1.252-.232 1.768-.36.516-.953.823-1.582.823zM641.81 252.83h-.008l-36.167-.172c-1.062-.005-1.92-.87-1.92-1.93V122.706c0-6.945-5.65-12.595-12.596-12.597-6.947 0-12.597 5.65-12.597 12.596v128.022c0 1.06-.86 1.925-1.92 1.93l-36.168.17c-1.082.007-1.933-.855-1.938-1.92-.006-1.066.854-1.935 1.92-1.94l34.246-.16V122.705c0-9.073 7.38-16.453 16.452-16.457h.006c9.073.003 16.452 7.383 16.452 16.456v126.1l34.246.162c1.066.005 1.927.874 1.92 1.94-.004 1.062-.867 1.92-1.93 1.92" fill="#1C3E58"/><path d="M629.705 266.766h-.01c-1.065-.005-1.925-.873-1.92-1.94l.064-14.015c.004-1.065.863-1.945 1.938-1.92 1.066.004 1.925.872 1.92 1.938l-.063 14.017c-.005 1.063-.868 1.92-1.93 1.92M568.422 130.424c-1.066 0-1.93-.864-1.93-1.93v-7.036c0-13.643 11.1-24.743 24.742-24.743 3.636 0 7.14.77 10.414 2.293.968.45 1.387 1.597.938 2.564-.448.967-1.595 1.387-2.564.937-2.76-1.284-5.718-1.934-8.788-1.934-11.515 0-20.882 9.368-20.882 20.882v7.036c0 1.066-.864 1.93-1.93 1.93M598.11 128.983c-1.065 0-1.93-.864-1.93-1.93 0-2.834-2.305-5.14-5.14-5.14-2.833 0-5.14 2.306-5.14 5.14 0 1.066-.864 1.93-1.93 1.93-1.065 0-1.93-.864-1.93-1.93 0-4.962 4.038-9 9-9 4.963 0 9 4.038 9 9 0 1.066-.863 1.93-1.93 1.93M598.11 143.553h-14.14c-1.065 0-1.93-.865-1.93-1.93 0-1.067.865-1.93 1.93-1.93h14.14c1.067 0 1.93.863 1.93 1.93 0 1.065-.863 1.93-1.93 1.93M598.11 175.18h-14.14c-1.065 0-1.93-.865-1.93-1.93 0-1.067.865-1.93 1.93-1.93h14.14c1.067 0 1.93.863 1.93 1.93 0 1.065-.863 1.93-1.93 1.93M598.11 206.807h-14.14c-1.065 0-1.93-.865-1.93-1.93 0-1.066.865-1.93 1.93-1.93h14.14c1.067 0 1.93.864 1.93 1.93 0 1.065-.863 1.93-1.93 1.93M598.11 238.434h-14.14c-1.065 0-1.93-.864-1.93-1.93 0-1.066.865-1.93 1.93-1.93h14.14c1.067 0 1.93.864 1.93 1.93 0 1.066-.863 1.93-1.93 1.93M624.11 224.285c-.643 0-1.273-.323-1.64-.91-9.21-14.816-13.786-60.704-13.976-62.65-.104-1.06.672-2.004 1.733-2.108 1.07-.098 2.005.673 2.11 1.733.045.468 4.674 46.932 13.412 60.986.562.905.284 2.095-.62 2.658-.318.197-.67.29-1.02.29M634.51 89.86c-1.065 0-1.93-.864-1.93-1.93 0-37.72-18.598-68.407-41.46-68.407-22.864 0-41.465 30.688-41.465 68.407 0 1.066-.864 1.93-1.93 1.93-1.065 0-1.93-.864-1.93-1.93 0-19.14 4.616-37.164 12.998-50.75 8.56-13.875 20.04-21.517 32.326-21.517 12.284 0 23.764 7.642 32.324 21.518 8.38 13.586 12.997 31.61 12.997 50.75 0 1.066-.863 1.93-1.93 1.93" fill="#1C3E58"/><path d="M562.954 88.15c-1.066 0-1.93-.864-1.93-1.93 0-23.292 9.538-43.655 23.735-50.672.955-.472 2.112-.08 2.585.876.472.955.08 2.112-.875 2.585-12.71 6.28-21.586 25.694-21.586 47.21 0 1.066-.864 1.93-1.93 1.93" fill="#1C3E58"/><g transform="translate(408.27 212.246)"><mask id="h" fill="#fff"><use xlink:href="#g"/></mask><path d="M3.843 1.153C3.328.22 2.153-.117 1.22.4.287.917-.05 2.09.467 3.024l103.908 187.54h4.127c0-.316-.068-.637-.233-.934L3.842 1.153z" fill="#1C3E58" mask="url(#h)"/></g><path d="M422.675 238.37c-.744 0-1.454-.433-1.77-1.16-.427-.976.02-2.114.997-2.54l15.115-6.594c.978-.426 2.115.02 2.54.998.428.977-.02 2.115-.996 2.54l-15.114 6.594c-.25.11-.513.162-.77.162M417.4 228.847c-.712 0-1.396-.395-1.732-1.076-.472-.954-.08-2.112.876-2.583l23.796-11.75c.956-.474 2.113-.08 2.585.874.47.958.08 2.115-.876 2.586l-23.797 11.75c-.275.137-.567.2-.853.2M455.687 252.75c-.76 0-1.48-.45-1.786-1.197-.404-.985.067-2.113 1.052-2.518l20.465-8.415c.986-.406 2.114.065 2.52 1.05.404.987-.067 2.115-1.053 2.52l-20.464 8.414c-.24.1-.488.146-.733.146M460.716 263.385c-.757 0-1.475-.45-1.783-1.19-.41-.986.057-2.115 1.042-2.524l12.712-5.276c.983-.41 2.114.057 2.522 1.043.408.984-.06 2.113-1.044 2.522l-12.71 5.276c-.243.1-.494.15-.74.15M503.275 329.267c-.44 0-.883-.15-1.246-.456-.814-.688-.916-1.906-.228-2.72 3.448-4.074 7.316-6.217 11.493-6.366 6.468-.245 11.14 4.473 11.336 4.675.746.76.732 1.983-.03 2.728-.76.745-1.98.732-2.725-.026-.057-.057-3.754-3.726-8.47-3.52-3.037.12-5.95 1.803-8.656 5.002-.382.45-.927.683-1.475.683M768 352.892c-.9 0-1.702-.63-1.89-1.542-.017-.08-1.127-5.147-5.195-7.562-2.61-1.55-5.972-1.723-9.982-.51-1.02.31-2.097-.27-2.406-1.288-.31-1.02.268-2.098 1.288-2.406 5.11-1.544 9.52-1.24 13.108.907 5.548 3.32 6.914 9.815 6.97 10.09.21 1.045-.465 2.063-1.51 2.274-.13.026-.258.038-.384.038M700.68 193.365c-1.065 0-1.93-.864-1.93-1.93V47.345c0-1.065.865-1.93 1.93-1.93h10.58L684.336 5.838l-26.92 39.58h10.577c1.066 0 1.93.863 1.93 1.93v142.76c0 1.065-.864 1.93-1.93 1.93-1.066 0-1.93-.865-1.93-1.93V49.276H653.77c-.716 0-1.372-.396-1.706-1.028-.335-.633-.292-1.398.11-1.99L682.74 1.32c.36-.53.958-.845 1.597-.845.64 0 1.237.316 1.596.845l30.57 44.94c.4.592.443 1.357.108 1.99-.333.63-.99 1.027-1.704 1.027H702.61v142.158c0 1.066-.863 1.93-1.93 1.93" fill="#1C3E58"/><g transform="translate(702.307 218.946)"><mask id="j" fill="#fff"><use xlink:href="#i"/></mask><path d="M91.834.363c-.956-.47-2.113-.073-2.582.884L.272 183.017c-.134.274-.19.563-.19.85h4.072L92.72 2.944c.468-.958.07-2.114-.886-2.582" fill="#1C3E58" mask="url(#j)"/></g><path d="M786.704 236.427c-.272 0-.548-.057-.812-.18l-17.17-7.98c-.968-.45-1.387-1.598-.938-2.564.45-.966 1.597-1.386 2.564-.937l17.172 7.98c.966.45 1.386 1.598.936 2.565-.327.704-1.024 1.117-1.752 1.117M781.2 247.673c-.26 0-.525-.054-.78-.165l-20.896-9.24c-.976-.43-1.417-1.57-.986-2.544.432-.976 1.573-1.414 2.545-.986l20.898 9.24c.977.43 1.418 1.57.986 2.544-.318.72-1.025 1.15-1.765 1.15M755.115 259.728c-.95-.476-2.112-.092-2.59.86l-70.82 141.36c-.14.277-.198.572-.198.863h4.082l70.386-140.492c.478-.953.092-2.113-.86-2.59" fill="#1C3E58"/><path d="M747.33 277.195c-.287 0-.578-.063-.852-.2l-16.158-7.965c-.29-.144-.542-.358-.728-.624-15.74-22.458-38.425-8.562-39.382-7.958-.868.544-2.01.32-2.604-.516-9.177-12.925-26.237-5.914-26.96-5.61-.98.412-2.11-.044-2.528-1.025-.415-.98.04-2.11 1.02-2.528.2-.087 19.378-8.03 30.564 5.554 5.912-3.037 27.407-11.953 42.763 9.46l15.72 7.75c.955.47 1.35 1.628.877 2.584-.337.682-1.02 1.077-1.732 1.077M743.505 284.83c-.3 0-.603-.07-.886-.218l-13.318-6.898c-.947-.49-1.316-1.655-.827-2.6.49-.95 1.657-1.318 2.602-.828l13.316 6.9c.947.49 1.317 1.654.827 2.6-.343.663-1.017 1.043-1.715 1.043M676.243 393.392c-.145 0-.295-.016-.443-.05-1.04-.246-1.68-1.285-1.437-2.322l27.37-116.197c.246-1.037 1.283-1.684 2.322-1.436 1.037.244 1.68 1.283 1.436 2.32l-27.37 116.197c-.21.89-1 1.488-1.877 1.488" fill="#1C3E58"/><path d="M700.018 292.458c-.218 0-.44-.037-.655-.114l-16.587-5.978c-1.003-.362-1.523-1.468-1.162-2.47.362-1.003 1.47-1.523 2.47-1.162l16.588 5.978c1.003.36 1.522 1.467 1.162 2.47-.284.787-1.026 1.276-1.816 1.276M697.74 302.128c-.208 0-.42-.035-.626-.105l-12.192-4.185c-1.008-.346-1.545-1.443-1.2-2.452.347-1.008 1.444-1.544 2.453-1.2l12.192 4.185c1.008.347 1.544 1.445 1.2 2.453-.276.8-1.025 1.305-1.827 1.305M682.144 321.89c-.54 0-1.08-.227-1.462-.668-7.47-8.652-16.233-3.47-16.6-3.245-.913.552-2.1.266-2.654-.646-.554-.91-.265-2.096.645-2.65 4.095-2.492 13.863-4.86 21.532 4.02.696.805.606 2.024-.2 2.72-.365.316-.814.47-1.26.47M688.424 201.813c-.49 0-.977-.184-1.353-.554-16.77-16.49-35.61-6.012-35.8-5.904-.924.53-2.104.208-2.633-.717-.53-.925-.208-2.104.717-2.635.213-.122 21.59-12.015 40.422 6.502.76.747.77 1.97.024 2.73-.377.384-.877.576-1.376.576" fill="#1C3E58"/><path d="M740.407 233.27c-1.002 0-1.85-.773-1.923-1.788-.792-10.763-5.542-18.943-14.52-25.005-12.298-8.307-25.733-8.726-38.846-1.216-.764.44-1.114.64-1.688.64-1.066 0-1.93-.865-1.93-1.93 0-.837.532-1.55 1.276-1.818.1-.054.243-.137.424-.24 14.274-8.176 29.518-7.69 42.924 1.365 10.022 6.77 15.325 15.902 16.21 27.922.078 1.062-.72 1.987-1.784 2.065-.048.004-.096.005-.143.005M750.695 209.985c-.76 0-1.478-.45-1.785-1.195-7.056-17.106-23.112-21.99-23.274-22.037-1.023-.3-1.61-1.372-1.31-2.394.3-1.025 1.37-1.614 2.396-1.31.732.214 18.002 5.47 25.756 24.268.407.986-.063 2.114-1.048 2.52-.24.1-.49.147-.735.147M718.84 160.922h64.18c-.677-7.914-7.366-14.147-15.49-14.147-.18 0-.36.013-.535.025l-.317.02c-.95.063-1.782-.588-1.988-1.507-1.62-7.253-8.382-12.518-16.077-12.518-8.076 0-15.063 5.815-16.253 13.526-.082.53-.38 1.002-.823 1.303-.443.3-.99.406-1.513.286-.56-.128-1.063-.19-1.538-.19-5.268 0-9.564 5.903-9.645 13.202m66.136 3.86h-67.988c-1.003 0-1.84-.768-1.923-1.768-.057-.673-.085-1.29-.085-1.883 0-9.71 6.325-17.605 13.948-17.26 2.238-8.633 10.38-14.935 19.685-14.935 8.934 0 16.855 5.793 19.43 13.986 10.464.274 18.894 8.838 18.894 19.326 0 .164-.01.325-.02.486l-.012.184c-.034 1.04-.887 1.866-1.93 1.866M868.503 334.677h-.083c-1.065-.046-1.892-.946-1.848-2.01.454-10.73-2.89-20.644-9.176-27.2-4.65-4.852-10.58-7.524-16.7-7.524-4.352 0-8.658 1.14-12.453 3.298-.647.368-1.445.33-2.056-.092-.61-.425-.923-1.162-.803-1.896.174-1.074.263-2.164.263-3.24 0-5.61-2.035-10.606-5.884-14.445-5.466-5.45-14.29-8.328-25.53-8.328h-.184c-1.065 0-1.928-.862-1.93-1.926-.004-1.066.858-1.933 1.924-1.936h.19c12.282 0 22.05 3.268 28.254 9.456 4.592 4.58 7.02 10.52 7.02 17.18 0 .105 0 .21-.003.316 3.54-1.477 7.35-2.247 11.19-2.247 7.18 0 14.102 3.094 19.488 8.713 7.01 7.312 10.744 18.258 10.247 30.032-.044 1.038-.9 1.85-1.927 1.85M847.844 382.043c-1.02 0-1.873-.8-1.926-1.832-.73-14.314-4.79-24.118-12.068-29.14-9.284-6.403-20.93-2.754-21.046-2.717-.513.166-1.07.11-1.537-.152-.468-.262-.81-.706-.934-1.228-2.484-10.256-7.39-17.493-14.582-21.51-12.292-6.87-27.287-2.127-27.435-2.077-1.016.33-2.103-.226-2.432-1.24-.33-1.013.225-2.102 1.238-2.43.68-.222 16.763-5.306 30.515 2.376 7.704 4.306 13.065 11.728 15.955 22.076 4.123-.903 13.91-2.142 22.416 3.704 8.34 5.73 12.97 16.546 13.768 32.144.053 1.065-.766 1.972-1.83 2.026l-.1.003" fill="#1C3E58"/><g transform="translate(754.415 361.87)"><mask id="l" fill="#fff"><use xlink:href="#k"/></mask><path d="M77.454 23.89C61.602 4.224 42.216.026 28.562.026h-.256C13.346.084 2.312 4.924 1.85 5.13.875 5.565.437 6.707.87 7.68c.433.974 1.575 1.408 2.548.977.106-.047 10.745-4.716 24.9-4.77h.262c18.798 0 34.454 7.825 46.53 23.263.45.572 1.18.842 1.893.705.22-.044 21.718-4.016 33.08 13.087h4.23c0-.344-.085-.692-.277-1.007C103.06 21.97 82.59 23.25 77.454 23.89" fill="#1C3E58" mask="url(#l)"/></g><path d="M856.696 334.062c-.984 0-1.824-.75-1.92-1.747-2.082-21.95-19.31-23.758-20.042-23.824-1.06-.095-1.844-1.03-1.752-2.09.094-1.06 1.02-1.84 2.082-1.756.21.018 21.16 2.073 23.556 27.306.1 1.06-.68 2.003-1.74 2.103-.062.006-.123.01-.184.01M881.94 284.83c-5.463 0-9.906 4.44-9.906 9.903 0 5.462 4.443 9.905 9.905 9.905 5.46 0 9.903-4.443 9.903-9.905s-4.443-9.904-9.904-9.904m0 23.668c-7.59 0-13.767-6.175-13.767-13.765 0-7.59 6.176-13.765 13.766-13.765s13.763 6.175 13.763 13.765c0 7.59-6.174 13.765-13.764 13.765M874.372 374.627c-3.108 0-5.636 2.528-5.636 5.637 0 3.108 2.528 5.635 5.636 5.635 3.11 0 5.637-2.528 5.637-5.636 0-3.11-2.53-5.637-5.638-5.637m0 15.133c-5.236 0-9.496-4.26-9.496-9.496 0-5.236 4.26-9.497 9.496-9.497 5.236 0 9.497 4.26 9.497 9.497 0 5.236-4.262 9.496-9.498 9.496M856.698 298.208c-1.066 0-1.93-.865-1.93-1.93V168.823H801.88v90.682c0 1.065-.863 1.93-1.93 1.93-1.064 0-1.93-.865-1.93-1.93v-92.613c0-1.066.866-1.93 1.93-1.93H856.7c1.066 0 1.93.864 1.93 1.93v129.384c0 1.066-.864 1.93-1.93 1.93" fill="#1C3E58"/><path d="M809.71 160.16c-1.25 0-2.268 1.02-2.268 2.27s1.018 2.268 2.27 2.268h37.226c1.25 0 2.27-1.017 2.27-2.27 0-1.25-1.02-2.267-2.27-2.267H809.71zm37.228 8.4H809.71c-3.38 0-6.128-2.75-6.128-6.13s2.75-6.13 6.13-6.13h37.226c3.38 0 6.13 2.75 6.13 6.13s-2.75 6.13-6.13 6.13z" fill="#1C3E58"/><path d="M834.73 185.9c0 3.057 2.478 5.535 5.536 5.535 3.058 0 5.537-2.478 5.537-5.536 0-3.06-2.48-5.538-5.537-5.538-3.058 0-5.537 2.48-5.537 5.537" fill="#FFD102"/><path d="M840.265 182.292c-1.99 0-3.606 1.617-3.606 3.606 0 1.99 1.616 3.607 3.605 3.607 1.99 0 3.608-1.618 3.608-3.607 0-1.99-1.62-3.606-3.608-3.606m0 11.073c-4.117 0-7.467-3.35-7.467-7.467 0-4.117 3.35-7.467 7.467-7.467 4.118 0 7.468 3.35 7.468 7.468s-3.35 7.468-7.468 7.468" fill="#1C3E58"/><path d="M834.73 205.406c0 3.058 2.478 5.537 5.536 5.537 3.058 0 5.537-2.48 5.537-5.537 0-3.058-2.48-5.537-5.537-5.537-3.058 0-5.537 2.478-5.537 5.536" fill="#FFD102"/><path d="M840.265 201.8c-1.99 0-3.606 1.617-3.606 3.606 0 1.99 1.616 3.607 3.605 3.607 1.99 0 3.608-1.618 3.608-3.607 0-1.99-1.62-3.607-3.608-3.607m0 11.073c-4.117 0-7.467-3.35-7.467-7.467 0-4.117 3.35-7.467 7.467-7.467 4.118 0 7.468 3.35 7.468 7.466 0 4.117-3.35 7.467-7.468 7.467M851.856 108.448c-1.066 0-1.93-.865-1.93-1.93V59.602c0-2.565-2.088-4.652-4.654-4.652-2.565 0-4.65 2.088-4.65 4.653v43.242c0 1.066-.866 1.93-1.932 1.93-1.065 0-1.93-.864-1.93-1.93V59.603c0-4.693 3.82-8.512 8.512-8.512 4.695 0 8.514 3.82 8.514 8.513v46.914c0 1.066-.864 1.93-1.93 1.93M804.68 126.907h-.11c-3.19 0-5.98-2.268-6.636-5.39l-2.997-14.306c-.83-3.956.642-7.986 3.75-10.264 1.746-1.28 3.816-1.956 5.986-1.956h4.3c1.067 0 1.93.864 1.93 1.93 0 1.065-.863 1.93-1.93 1.93h-4.3c-1.344 0-2.625.42-3.704 1.21-1.89 1.384-2.775 3.88-2.255 6.36l2.998 14.305c.28 1.345 1.484 2.32 2.858 2.32h.11c2.372 0 4.502-1.32 5.56-3.445.475-.955 1.634-1.344 2.588-.87.954.475 1.343 1.633.868 2.588-1.714 3.447-5.17 5.59-9.017 5.59" fill="#1C3E58"/><path d="M826.87 119.825c-1.306 0-2.6-.388-3.713-1.144-1.81-1.23-2.892-3.27-2.892-5.46V93.197c0-6.988 5.687-12.674 12.674-12.674h1.892c3.192 0 5.79 2.597 5.79 5.79v14.866c0 1.066-.866 1.93-1.93 1.93-1.067 0-1.932-.864-1.932-1.93V86.313c0-1.064-.865-1.93-1.928-1.93h-1.893c-4.86 0-8.814 3.954-8.814 8.815v20.02c0 .925.438 1.752 1.2 2.27.764.52 1.696.622 2.555.283l9.35-3.697c.99-.393 2.112.093 2.504 1.084.392.992-.094 2.113-1.084 2.505l-9.35 3.7c-.785.31-1.61.463-2.43.463" fill="#1C3E58"/><path d="M816.088 86.615c-2.327 0-4.22 1.894-4.22 4.22v24.02c0 2.327 1.893 4.22 4.22 4.22s4.22-1.893 4.22-4.22v-24.02c0-2.326-1.893-4.22-4.22-4.22m0 36.32c-4.455 0-8.08-3.625-8.08-8.08v-24.02c0-4.455 3.625-8.08 8.08-8.08s8.08 3.625 8.08 8.08v24.02c0 4.455-3.625 8.08-8.08 8.08M811.968 160.16c-1.066 0-1.93-.864-1.93-1.93v-2.534c0-.967-.48-1.867-1.282-2.408-4.585-3.084-7.32-8.224-7.32-13.75v-14.715c0-1.066.863-1.93 1.928-1.93 1.066 0 1.93.864 1.93 1.93v14.716c0 4.237 2.1 8.18 5.616 10.546 1.87 1.258 2.988 3.356 2.988 5.61v2.534c0 1.066-.864 1.93-1.93 1.93M846.37 160.16c-1.066 0-1.93-.864-1.93-1.93 0-3.323 1.353-6.572 3.713-8.914l6.818-6.77c2.974-2.95 4.678-7.042 4.678-11.23v-13.054c0-4.528-3.055-8.497-7.432-9.653l-12.928-3.417c-.323-.086-.56.048-.672.135-.113.088-.303.283-.303.616v2.623c0 1.602.893 3.035 2.33 3.742 10.268 5.05 10.268 8.39 10.268 9.49 0 3.92-3.535 5.527-6.956 7.08-1.783.812-3.805 1.73-5.673 3.033-3.936 2.745-1.636 7.05-1.362 7.532.527.922.212 2.1-.706 2.633-.92.532-2.093.225-2.63-.692-1.567-2.678-3.065-8.766 2.49-12.64 2.16-1.504 4.35-2.5 6.286-3.378 3.334-1.516 4.693-2.263 4.693-3.57 0-.566-1.457-2.75-8.11-6.026-2.768-1.36-4.487-4.12-4.487-7.205v-2.623c0-1.45.66-2.79 1.81-3.674 1.147-.885 2.61-1.18 4.012-.81l12.927 3.417c6.068 1.604 10.307 7.107 10.307 13.385v13.054c0 5.21-2.122 10.302-5.82 13.972l-6.82 6.768c-1.633 1.622-2.57 3.873-2.57 6.174 0 1.066-.864 1.93-1.93 1.93M959.464 110.213c-.34 0-.684-.09-.996-.278-.912-.55-1.206-1.736-.655-2.65 13.308-22.054 35.494-36.822 60.87-40.516 4.088-.596 8.27-.897 12.43-.897 1.065 0 1.93.864 1.93 1.93 0 1.065-.865 1.93-1.93 1.93-3.975 0-7.97.288-11.873.856-24.23 3.526-45.413 17.628-58.122 38.69-.362.6-1 .933-1.654.933M1065.68 275.357c-1.066 0-1.93-.864-1.93-1.93v-58.64c0-10.408-8.47-18.876-18.878-18.876H965.35c-1.066 0-1.93-.863-1.93-1.928 0-1.066.864-1.93 1.93-1.93h79.522c12.537 0 22.738 10.198 22.738 22.736v58.64c0 1.065-.865 1.93-1.93 1.93" fill="#1C3E58"/><path d="M1031.112 82.454c-38.09 0-68.968 30.877-68.968 68.966 0 16.067 5.51 30.837 14.72 42.56h68.008c10.29 0 18.83 7.472 20.504 17.284 20.73-11.895 34.703-34.23 34.703-59.844 0-38.09-30.88-68.966-68.968-68.966" fill="#25CE9E"/><path d="M977.81 192.05h67.062c10.18 0 18.943 6.667 21.78 16.2 19.493-12.22 31.496-33.758 31.496-56.83 0-36.964-30.072-67.036-67.036-67.036-36.965 0-67.037 30.072-67.037 67.037 0 14.838 4.746 28.866 13.736 40.63m87.567 21.144c-.28 0-.56-.06-.823-.184-.57-.27-.974-.8-1.08-1.42-1.55-9.086-9.374-15.678-18.602-15.678h-68.007c-.592 0-1.15-.273-1.517-.738-9.9-12.602-15.133-27.73-15.133-43.753 0-39.092 31.804-70.896 70.897-70.896 39.092 0 70.897 31.804 70.897 70.897 0 25.32-13.67 48.892-35.673 61.518-.296.17-.627.256-.96.256M1054.027 225.722H965.35c-1.065 0-1.93-.864-1.93-1.93 0-1.066.865-1.93 1.93-1.93h88.677c1.066 0 1.93.864 1.93 1.93 0 1.066-.864 1.93-1.93 1.93M1054.027 239.342H965.35c-1.065 0-1.93-.864-1.93-1.93 0-1.066.865-1.93 1.93-1.93h88.677c1.066 0 1.93.864 1.93 1.93 0 1.066-.864 1.93-1.93 1.93M1054.027 252.96h-60.53c-1.066 0-1.93-.863-1.93-1.93 0-1.064.864-1.93 1.93-1.93h60.53c1.066 0 1.93.866 1.93 1.93 0 1.067-.864 1.93-1.93 1.93M1054.027 266.58h-60.53c-1.066 0-1.93-.864-1.93-1.93 0-1.066.864-1.93 1.93-1.93h60.53c1.066 0 1.93.864 1.93 1.93 0 1.066-.864 1.93-1.93 1.93" fill="#1C3E58"/><path d="M955.06 260.073h-26.52c-1.065 0-1.93-.864-1.93-1.93 0-1.065.865-1.93 1.93-1.93h26.52c3.36 0 6.09-2.73 6.09-6.09 0-3.358-2.73-6.09-6.09-6.09h-20.353c-4.943 0-8.967-4.023-8.967-8.967 0-4.944 4.024-8.966 8.967-8.966h8.455c3.618 0 6.563-2.945 6.563-6.564v-53.05l-2.738 4.156c-.586.89-1.784 1.136-2.674.55-.89-.587-1.135-1.784-.55-2.674l6.28-9.534c.47-.71 1.35-1.03 2.166-.786.816.244 1.375.996 1.375 1.85v59.488c0 5.748-4.676 10.423-10.423 10.423h-8.455c-2.816 0-5.106 2.29-5.106 5.106s2.29 5.107 5.107 5.107h20.353c5.487 0 9.95 4.463 9.95 9.95 0 5.487-4.463 9.95-9.95 9.95" fill="#1C3E58"/><path d="M957.9 171.907c-.643 0-1.27-.32-1.637-.903l-6.242-9.93c-.566-.903-.294-2.094.608-2.662.902-.567 2.093-.295 2.66.608l6.243 9.93c.57.902.297 2.093-.605 2.66-.32.2-.675.297-1.026.297M1142.1 276.568c7.21 0 13.187 5.377 14.13 12.33h-28.262c.944-6.953 6.922-12.33 14.13-12.33zm16.192 16.192c1.065 0 1.93-.865 1.93-1.93 0-9.992-8.13-18.123-18.123-18.123s-18.122 8.13-18.122 18.123v111.98h3.86V292.76h30.454z" fill="#1C3E58"/><path d="M1031.776 287.347c11.137-10.948 28.563-10.784 28.758-10.78h81.565c1.065 0 1.93-.863 1.93-1.93 0-1.065-.865-1.93-1.93-1.93h-81.53c-.782-.017-19.163-.22-31.477 11.865-7.027 6.896-10.59 16.358-10.59 28.125v90.114h3.86v-90.113c0-10.68 3.167-19.21 9.413-25.35" fill="#1C3E58"/><path d="M1114.406 297.472h-30.113c-1.066 0-1.93-.864-1.93-1.93 0-1.066.864-1.93 1.93-1.93h30.113c1.066 0 1.93.864 1.93 1.93 0 1.066-.864 1.93-1.93 1.93M1114.406 310.767h-30.113c-1.066 0-1.93-.864-1.93-1.93 0-1.066.864-1.93 1.93-1.93h30.113c1.066 0 1.93.864 1.93 1.93 0 1.066-.864 1.93-1.93 1.93M1114.406 324.063h-30.113c-1.066 0-1.93-.864-1.93-1.93 0-1.066.864-1.93 1.93-1.93h30.113c1.066 0 1.93.864 1.93 1.93 0 1.066-.864 1.93-1.93 1.93M1114.406 339.52h-78.235c-1.065 0-1.93-.864-1.93-1.93 0-1.066.865-1.93 1.93-1.93h78.236c1.066 0 1.93.864 1.93 1.93 0 1.066-.864 1.93-1.93 1.93M1114.406 356.267h-78.235c-1.065 0-1.93-.865-1.93-1.93 0-1.067.865-1.93 1.93-1.93h78.236c1.066 0 1.93.863 1.93 1.93 0 1.065-.864 1.93-1.93 1.93M1114.406 373.013h-78.235c-1.065 0-1.93-.864-1.93-1.93 0-1.066.865-1.93 1.93-1.93h78.236c1.066 0 1.93.864 1.93 1.93 0 1.066-.864 1.93-1.93 1.93M1114.406 389.76h-78.235c-1.065 0-1.93-.864-1.93-1.93 0-1.066.865-1.93 1.93-1.93h78.236c1.066 0 1.93.864 1.93 1.93 0 1.066-.864 1.93-1.93 1.93M931.227 282.848v22.2c0 .794-.488 1.508-1.23 1.796-16.42 6.395-27.03 21.91-27.03 39.523 0 23.383 19.025 42.408 42.408 42.408 23.384 0 42.408-19.025 42.408-42.408 0-17.614-10.61-33.128-27.03-39.523-.742-.288-1.23-1.002-1.23-1.797v-22.2h-28.296zm14.148 109.787c-25.512 0-46.268-20.756-46.268-46.268 0-18.775 11.047-35.36 28.26-42.62v-22.83c0-1.064.864-1.93 1.93-1.93h32.156c1.066 0 1.93.866 1.93 1.93v22.83c17.213 7.26 28.26 23.845 28.26 42.62 0 25.512-20.755 46.268-46.268 46.268z" fill="#1C3E58"/><path d="M967.128 280.918h-43.506c-2.654 0-4.804-2.15-4.804-4.805 0-2.653 2.15-4.804 4.804-4.804h43.506c2.654 0 4.805 2.15 4.805 4.803 0 2.654-2.15 4.805-4.805 4.805" fill="#ECF0F7"/><path d="M923.622 273.24c-1.585 0-2.874 1.288-2.874 2.873 0 1.585 1.29 2.875 2.874 2.875h43.506c1.585 0 2.875-1.29 2.875-2.875s-1.29-2.874-2.875-2.874h-43.506zm43.506 9.608h-43.506c-3.714 0-6.735-3.02-6.735-6.735 0-3.713 3.02-6.735 6.735-6.735h43.506c3.714 0 6.735 3.022 6.735 6.735 0 3.714-3.02 6.735-6.735 6.735zM896.764 381.28c-.624 0-1.236-.3-1.608-.86-6.583-9.892-10.062-21.426-10.062-33.357 0-8.223 1.626-16.193 4.834-23.69.42-.982 1.553-1.436 2.533-1.016.98.42 1.435 1.554 1.016 2.533-3 7.015-4.523 14.476-4.523 22.173 0 11.167 3.257 21.962 9.416 31.218.59.89.35 2.088-.538 2.677-.33.22-.7.324-1.068.324M965.026 345.612c-7.122 0-14.908-2.302-23.144-4.737-6.016-1.778-12.237-3.618-18.16-4.478-13.082-1.9-20.72 2.97-20.797 3.02-.89.58-2.086.336-2.67-.55-.585-.89-.346-2.08.54-2.668.355-.237 8.847-5.747 23.483-3.623 6.196.9 12.55 2.78 18.7 4.597 8.068 2.385 15.68 4.61 22.317 4.576 11.24-.104 21.28-9.066 21.38-9.157.79-.714 2.008-.654 2.725.135.715.79.657 2.01-.132 2.725-.452.41-11.205 10.04-23.937 10.158l-.304.002" fill="#1C3E58"/><path d="M920.803 361.915c0 3.134 2.54 5.675 5.675 5.675 3.134 0 5.675-2.54 5.675-5.675 0-3.134-2.54-5.674-5.675-5.674-3.134 0-5.675 2.54-5.675 5.675" fill="#FFF"/><path d="M926.478 358.17c-2.065 0-3.744 1.68-3.744 3.745 0 2.066 1.68 3.745 3.744 3.745 2.065 0 3.744-1.68 3.744-3.745 0-2.065-1.68-3.744-3.744-3.744m0 11.35c-4.194 0-7.605-3.41-7.605-7.605 0-4.193 3.41-7.605 7.605-7.605 4.194 0 7.605 3.412 7.605 7.605 0 4.194-3.41 7.605-7.605 7.605" fill="#1C3E58"/><path d="M942.77 371.638c0 5.145 4.172 9.317 9.317 9.317 5.146 0 9.317-4.172 9.317-9.317 0-5.146-4.17-9.317-9.317-9.317-5.145 0-9.316 4.172-9.316 9.318" fill="#FFF"/><path d="M952.088 364.25c-4.074 0-7.388 3.314-7.388 7.388s3.314 7.387 7.388 7.387c4.073 0 7.386-3.313 7.386-7.387s-3.313-7.387-7.386-7.387m0 18.635c-6.203 0-11.247-5.045-11.247-11.247s5.045-11.247 11.248-11.247c6.2 0 11.247 5.046 11.247 11.248 0 6.202-5.046 11.247-11.247 11.247M1199.306 343.99c-10-1.008-18.425 4.166-22.296 7.077-2.802-7.505-7.306-12.865-13.417-15.955-11.667-5.9-24.84-1.317-25.395-1.118-1.003.358-1.526 1.46-1.17 2.464.357 1.002 1.458 1.527 2.464 1.173.12-.042 12.216-4.22 22.385.94 5.828 2.957 9.983 8.448 12.346 16.32.193.643.704 1.138 1.35 1.31.648.173 1.337 0 1.824-.46.096-.09 9.778-9.095 21.523-7.91 7.34.738 14.013 5.304 19.837 13.57.376.533.973.818 1.578.82v-5.16c-6.14-7.884-13.204-12.284-21.03-13.07M1169.944 379.092c-.757 0-1.474-.447-1.782-1.19-4.915-11.794-12.66-18.814-23.023-20.865-7.74-1.53-14.056.384-14.12.404-1.013.318-2.098-.25-2.415-1.27-.318-1.017.252-2.1 1.27-2.415.285-.09 28.84-8.56 41.85 22.664.41.983-.056 2.113-1.04 2.523-.242.1-.493.15-.74.15" fill="#1C3E58"/><path d="M1182.314 225.987h-37.453c-5.013 0-9.08-4.066-9.08-9.08v-73.772c0-5.014 4.067-9.08 9.08-9.08h37.454c5.015 0 9.08 4.066 9.08 9.08v73.772c0 5.014-4.065 9.08-9.08 9.08" fill="#FFF"/><path d="M1144.86 135.986c-3.942 0-7.148 3.207-7.148 7.15v73.77c0 3.943 3.206 7.15 7.15 7.15h37.452c3.943 0 7.15-3.207 7.15-7.15v-73.77c0-3.943-3.207-7.15-7.15-7.15h-37.453zm37.454 91.93h-37.453c-6.07 0-11.01-4.938-11.01-11.01v-73.77c0-6.07 4.94-11.01 11.01-11.01h37.454c6.07 0 11.01 4.94 11.01 11.01v73.77c0 6.072-4.94 11.01-11.01 11.01z" fill="#1C3E58"/><path d="M1145.73 210.74c-.332 0-.67-.083-.976-.264-.92-.54-1.227-1.722-.687-2.64l6.657-11.35c.337-.574.945-.934 1.61-.953.672-.03 1.292.305 1.66.858l5.533 8.298 11.11-27.774-2.61 1.492c-.924.526-2.105.207-2.635-.72-.53-.924-.207-2.103.718-2.632l7.416-4.237c.715-.408 1.605-.32 2.224.22.62.54.83 1.41.526 2.173l-14.528 36.318c-.266.666-.88 1.13-1.592 1.203-.718.07-1.408-.252-1.805-.848l-5.856-8.784-5.098 8.69c-.36.613-1.004.953-1.666.953" fill="#1C3E58"/><path d="M1176.468 181.952c-.855 0-1.636-.573-1.865-1.44l-1.986-7.527c-.272-1.03.343-2.087 1.374-2.358 1.027-.274 2.087.342 2.36 1.374l1.986 7.53c.27 1.03-.344 2.085-1.375 2.357-.163.044-.33.065-.492.065M1179.59 146.882h-36.432c-1.065 0-1.93-.864-1.93-1.93 0-1.066.865-1.93 1.93-1.93h36.433c1.067 0 1.93.864 1.93 1.93 0 1.066-.863 1.93-1.93 1.93M1165.025 156.642h-21.866c-1.067 0-1.93-.864-1.93-1.93 0-1.066.863-1.93 1.93-1.93h21.865c1.066 0 1.93.864 1.93 1.93 0 1.066-.864 1.93-1.93 1.93M1153.676 166.403h-10.518c-1.065 0-1.93-.864-1.93-1.93 0-1.066.865-1.93 1.93-1.93h10.518c1.066 0 1.93.864 1.93 1.93 0 1.066-.864 1.93-1.93 1.93M328.262 164.49l2.38 2.174-.297-10.988-4.806-4.394 2.722 13.21zm-12.81 4.24l12.106.347-1.948-1.78-14.533-2.567 4.375 4zm19.147 1.553l3.754 3.433.27-10.473-4.32-3.948.295 10.988zm-14.787 2.433l3.926 3.59 11.54-.17-3.36-3.072-12.107-.348zm22.314 4.45l1.768 1.616.572-10.197-2.072-1.893-.268 10.473zm-14.23 2.94l1.692 1.547 11.237-.445-1.39-1.27-11.54.167zm54.854 38.744c-.464 0-.93-.167-1.3-.505l-36.574-33.436-15.927.632c-.512.012-1.005-.16-1.38-.504l-5.85-5.348c-.013-.012-.028-.025-.04-.038L303.57 163.1c-.633-.58-.808-1.51-.43-2.28.38-.77 1.223-1.198 2.068-1.047l18.824 3.325-3.477-16.868c-.17-.82.21-1.655.937-2.068.727-.413 1.638-.312 2.255.254l23.997 21.94c.43.39.658.952.625 1.53l-.8 14.257 36.482 33.353c.416.38.628.9.628 1.425 0 .466-.167.933-.506 1.303-.38.416-.902.627-1.425.627zM187.42 288.65c-1.05 0-1.964-.75-2.173-1.778-.12-.58-.004-1.17.323-1.666.327-.494.827-.83 1.408-.95.145-.03.295-.044.444-.044 1.05 0 1.962.747 2.17 1.775.246 1.198-.53 2.372-1.728 2.617-.15.03-.298.045-.444.045M266.752 153.935c-1.05 0-1.963-.748-2.173-1.776-.12-.582-.004-1.173.323-1.668.327-.494.827-.832 1.408-.95.146-.03.296-.044.444-.044 1.05 0 1.963.747 2.173 1.776.244 1.197-.533 2.37-1.73 2.616-.15.03-.3.045-.445.045M482.013 123.07c-1.05 0-1.962-.748-2.172-1.776-.242-1.2.533-2.372 1.73-2.617.15-.03.3-.045.445-.045 1.05 0 1.964.747 2.173 1.776.12.58.004 1.172-.324 1.667-.326.494-.827.83-1.407.95-.145.03-.295.044-.444.044M231.72 373.108c-1.05 0-1.963-.747-2.173-1.775-.244-1.198.533-2.372 1.73-2.617.15-.03.3-.045.445-.045 1.05 0 1.964.75 2.173 1.777.118.58.003 1.172-.324 1.667-.326.494-.826.832-1.407.95-.145.03-.295.044-.443.044M415.737 364.23c-1.05 0-1.962-.746-2.172-1.774-.244-1.198.532-2.372 1.73-2.617.15-.032.298-.046.444-.046 1.048 0 1.962.747 2.172 1.774.244 1.2-.532 2.373-1.73 2.618-.146.03-.296.045-.445.045M422.756 309.8c-1.05 0-1.964-.748-2.173-1.777-.118-.58-.003-1.17.323-1.666.328-.495.827-.832 1.41-.95.144-.03.293-.044.442-.044 1.05 0 1.962.746 2.172 1.774.245 1.2-.532 2.373-1.73 2.618-.15.03-.298.044-.444.044M607.462 108.34c-1.05 0-1.963-.746-2.17-1.774-.246-1.197.53-2.373 1.728-2.617.15-.03.3-.046.445-.046 1.05 0 1.962.747 2.172 1.774.244 1.2-.533 2.373-1.73 2.618-.146.03-.296.045-.445.045M593.9 37.46c-1.05 0-1.963-.747-2.172-1.776-.12-.58-.004-1.173.323-1.667.328-.494.827-.83 1.408-.95.15-.03.298-.044.445-.044 1.048 0 1.962.746 2.172 1.775.118.58.003 1.172-.323 1.667-.327.494-.827.83-1.408.95-.15.03-.297.044-.444.044M631.178 232.725c-1.05 0-1.963-.746-2.17-1.775-.246-1.197.53-2.372 1.728-2.617.15-.03.3-.044.445-.044 1.05 0 1.964.745 2.174 1.772.118.583.002 1.174-.324 1.67-.327.494-.827.83-1.41.948-.143.03-.293.045-.442.045M740.407 242.268c-1.048 0-1.962-.746-2.172-1.774-.243-1.2.533-2.373 1.73-2.618.147-.03.296-.044.445-.044 1.05 0 1.963.746 2.172 1.775.245 1.197-.532 2.37-1.73 2.617-.146.03-.296.044-.445.044M753.176 219.58c-1.05 0-1.962-.748-2.172-1.775-.244-1.2.533-2.373 1.73-2.618.15-.03.298-.045.444-.045 1.05 0 1.964.748 2.172 1.777.12.578.004 1.17-.322 1.665-.327.495-.828.832-1.408.95-.145.03-.295.044-.444.044M585.445 384.487c-1.05 0-1.963-.746-2.172-1.775-.12-.582-.004-1.173.323-1.668.327-.494.827-.83 1.408-.95.145-.028.295-.043.444-.043 1.05 0 1.962.747 2.172 1.775.243 1.2-.532 2.373-1.73 2.618-.15.03-.3.044-.445.044M747.73 375.37c-1.052 0-1.965-.747-2.173-1.777-.12-.58-.004-1.17.322-1.666.326-.494.827-.83 1.407-.95.145-.03.295-.044.444-.044 1.05 0 1.963.747 2.174 1.774.243 1.2-.534 2.373-1.732 2.618-.15.03-.297.045-.443.045M857.227 341.07c-1.05 0-1.964-.746-2.172-1.776-.12-.58-.004-1.17.322-1.666.328-.494.828-.83 1.41-.95.144-.03.293-.043.442-.043 1.048 0 1.96.746 2.172 1.773.244 1.2-.534 2.374-1.73 2.618-.15.03-.3.045-.445.045M894.226 320.496c-1.05 0-1.963-.747-2.173-1.774-.118-.583-.003-1.174.323-1.67.328-.494.828-.83 1.41-.948.144-.03.294-.045.443-.045 1.048 0 1.96.746 2.17 1.774.12.58.004 1.173-.322 1.666-.327.495-.827.833-1.408.95-.15.03-.298.046-.444.046M1040.71 70.02c-1.05 0-1.962-.745-2.172-1.773-.12-.58-.004-1.174.323-1.668.327-.495.827-.832 1.408-.95.15-.03.297-.045.444-.045 1.05 0 1.962.746 2.173 1.774.243 1.2-.534 2.372-1.73 2.616-.15.03-.3.045-.444.045zM1109.847 246.353c-1.05 0-1.963-.747-2.173-1.774-.243-1.2.533-2.374 1.73-2.62.147-.03.296-.044.445-.044 1.05 0 1.962.747 2.17 1.775.246 1.198-.53 2.373-1.728 2.618-.15.03-.3.045-.445.045" fill="#1C3E58"/><path d="M1163.586 242.016c-1.452 0-2.716-1.032-3.005-2.456-.337-1.656.737-3.28 2.394-3.62.207-.04.414-.06.615-.06 1.45 0 2.713 1.032 3.004 2.454.337 1.66-.737 3.282-2.394 3.62-.206.043-.41.062-.614.062M1175.838 242.015c-1.452 0-2.715-1.033-3.006-2.455-.337-1.66.737-3.282 2.394-3.62.202-.04.408-.062.614-.062 1.452 0 2.715 1.032 3.004 2.456.34 1.656-.735 3.28-2.392 3.62-.207.04-.412.06-.614.06M1151.336 242.015c-1.45 0-2.715-1.033-3.006-2.455-.336-1.66.738-3.282 2.394-3.62.203-.04.41-.062.615-.062 1.45 0 2.714 1.032 3.003 2.456.34 1.656-.736 3.28-2.392 3.62-.207.04-.41.06-.614.06" fill="#FFF"/><path d="M1176.525 388.005c-1.05 0-1.963-.747-2.172-1.774-.245-1.2.533-2.372 1.73-2.617.15-.03.298-.045.444-.045 1.05 0 1.964.748 2.173 1.777.118.58.004 1.17-.324 1.666-.327.496-.827.833-1.408.95-.145.03-.294.045-.443.045" fill="#1C3E58"/><path d="M242.24 227.136c0 5.642-4.573 10.215-10.215 10.215-5.642 0-10.216-4.572-10.216-10.214s4.573-10.215 10.215-10.215c5.642 0 10.215 4.574 10.215 10.216M249.788 248.743c0 3.5-2.838 6.338-6.338 6.338s-6.338-2.837-6.338-6.337c0-3.5 2.838-6.338 6.338-6.338s6.338 2.838 6.338 6.338" fill="#FFF"/><path d="M259.06 377.303c1.02-.3 1.605-1.374 1.304-2.396-.3-1.023-1.374-1.607-2.397-1.306-1.06.312-25.957 7.89-25.957 29.21h3.86c0-18.406 22.93-25.43 23.19-25.507" fill="#1C3E58"/><path d="M598.11 56.258c0 1.93-1.564 3.496-3.495 3.496-1.93 0-3.496-1.565-3.496-3.496 0-1.93 1.564-3.496 3.495-3.496 1.93 0 3.496 1.565 3.496 3.496M615.83 72.593c0 4.893-3.966 8.86-8.86 8.86-4.892 0-8.86-3.967-8.86-8.86 0-4.893 3.968-8.86 8.86-8.86 4.894 0 8.86 3.967 8.86 8.86" fill="#FFF"/><path d="M758.94 388.79c-1.058.137-1.803 1.106-1.666 2.163.137 1.057 1.107 1.808 2.162 1.666 12.243-1.588 27.383-3.547 45.244 10.19h5.023c0-.555-.232-1.107-.695-1.488-19.968-16.43-37.367-14.178-50.068-12.53M417.605 402.32c-1.67-6.336 1.98-10.672 4.305-12.692 5.09-4.423 12.713-5.806 18.537-3.36.982.414 2.115-.05 2.527-1.034.412-.982-.05-2.114-1.033-2.526-7.24-3.04-16.308-1.43-22.563 4.007-4.97 4.32-6.992 10.16-5.616 16.096h3.902c0-.162-.014-.326-.057-.49M870.104 216.612c-1.066 0-1.93-.864-1.93-1.93v-44.705c0-1.066.864-1.93 1.93-1.93 1.066 0 1.93.864 1.93 1.93v44.705c0 1.066-.864 1.93-1.93 1.93M1109.848 235.634c-1.066 0-1.93-.864-1.93-1.93v-57.447c0-1.066.864-1.93 1.93-1.93 1.066 0 1.93.864 1.93 1.93v57.447c0 1.066-.864 1.93-1.93 1.93M983.96 167.667c-1.284 0-2.476-.192-3.592-.577-1.87-.643-3.36-1.768-4.8-2.856-1.155-.87-2.245-1.693-3.416-2.172-2.295-.94-5.204-.46-7.074 1.167-.805.7-2.024.613-2.722-.192-.7-.804-.614-2.024.19-2.722 2.974-2.584 7.42-3.32 11.068-1.827 1.636.67 2.98 1.682 4.278 2.663 1.256.948 2.443 1.844 3.733 2.287 1.75.604 3.934.463 6.674-.432 1.27-.416 1.458-.797 1.46-.8.017-.138-.137-.586-.228-.853-.06-.174-.118-.347-.17-.52-1.237-4.033.766-8.64 4.56-10.485 1.113-.542 2.235-.805 3.32-1.058.77-.18 1.5-.35 2.145-.608 1.09-.434 1.927-1.36 1.792-1.98-.07-.316-.418-.836-1.69-1.508l-.152-.08c-1.187-.624-2.812-1.478-3.36-3.326-.26-.88-.17-1.687-.096-2.335.02-.17.04-.344.048-.514.06-1.15-.82-2.36-1.774-2.442-.83-.063-1.782.495-2.877 1.15-1.27.757-2.707 1.616-4.47 1.724-1.992.118-3.706-.758-4.99-1.537-2.662-1.613-4.15-3.437-4.545-5.575-.397-2.144.38-4.457 2.308-6.873 1.405-1.763 2.933-2.53 4.523-2.285 1.244.19 2.088.957 2.703 1.517l.208.186c1.73 1.53 4.727 2.108 6.145.588.628-.67.98-1.73 1.35-2.85.424-1.28.905-2.727 1.913-3.962 1.885-2.305 4.728-2.938 7.236-3.496.286-.063.57-.127.853-.193 3.154-.735 6.158-1.958 8.928-3.634.395-.24.568-.38.642-.46-.01-.05-.033-.13-.082-.242-.258-.595-.853-1.093-1.593-1.333s-1.514-.183-2.072.15c-.27.16-.58.394-.906.642-1.13.856-2.84 2.155-4.928 1.37-.726-.272-1.24-.73-1.617-1.065-.15-.136-.324-.29-.418-.343-.334-.188-1.2.1-1.965.354-.545.18-1.107.367-1.712.487-3.21.647-6.658-1.113-8.026-4.087-.82-1.783-.822-3.7-.825-5.39-.003-2.037-.05-3.324-.907-4.073-.802-.702-.884-1.922-.184-2.724.703-.802 1.922-.885 2.725-.183 2.22 1.94 2.223 4.73 2.227 6.973.003 1.423.005 2.766.473 3.785.618 1.35 2.3 2.206 3.76 1.918.374-.076.802-.218 1.257-.367 1.37-.454 3.246-1.072 5.058-.06.464.258.82.575 1.106.83.134.12.335.298.413.337.178-.04.836-.538 1.23-.836.396-.3.806-.61 1.263-.883 1.52-.904 3.426-1.09 5.234-.505 1.807.585 3.246 1.85 3.948 3.474.426.985.522 1.927.282 2.8-.425 1.547-1.747 2.35-2.384 2.735-3.12 1.888-6.5 3.265-10.05 4.092-.295.07-.593.135-.892.2-2.08.465-4.047.903-5.084 2.173-.56.682-.888 1.68-1.238 2.735-.464 1.398-.99 2.982-2.195 4.27-3.018 3.23-8.397 2.434-11.524-.333l-.244-.22c-.21-.19-.56-.507-.705-.56.005.017-.318.135-.91.876-1.2 1.504-1.713 2.77-1.53 3.764.182.98 1.107 1.98 2.75 2.978.804.487 1.835 1.032 2.756.984.824-.052 1.746-.603 2.723-1.187 1.458-.872 3.12-1.86 5.185-1.68 3.04.26 5.467 3.23 5.3 6.484-.01.248-.04.5-.066.75-.034.285-.078.675-.04.807.085.286.942.736 1.454 1.006l.16.083c.772.41 3.13 1.654 3.66 4.106.615 2.86-1.615 5.375-4.14 6.38-.913.364-1.818.576-2.692.78-.92.215-1.787.418-2.513.77-2.057 1.002-3.23 3.696-2.56 5.884.042.133.088.267.134.4.236.69.56 1.635.386 2.714-.283 1.77-1.653 3.068-4.073 3.86-2.022.66-3.858.99-5.537.99" fill="#1C3E58"/><path d="M1007.175 186.352c-.64-.45-1.383-.724-2.114-1-2.628-.994-5.32-2.174-7.12-4.33-1.57-1.878-2.455-4.47-4.625-5.605-.163-.084-.34-.162-.524-.155-.244.01-.458.164-.65.318-2.09 1.69-3.573 4.11-5.89 5.474-1.396.822-3.002 1.2-4.58 1.568-4.033.94-8.1 2.013-11.775.105l-.137.163c2.02 3.93 4.4 7.645 7.107 11.09h33.698c-.444-1.464-.608-2.327-1.02-3.8-.41-1.476-1.118-2.945-2.368-3.828" fill="#FFF"/><path d="M977.81 192.05h30.233c-.104-.41-.216-.845-.357-1.354-.373-1.34-.92-2.27-1.624-2.767-.414-.294-.99-.512-1.6-.742l-.084-.03c-2.706-1.025-5.773-2.33-7.92-4.898-.617-.738-1.112-1.525-1.592-2.287-.65-1.03-1.226-1.944-1.948-2.52-.593.534-1.16 1.147-1.75 1.79-1.15 1.244-2.337 2.53-3.938 3.474-1.663.978-3.5 1.406-5.122 1.784l-.505.12c-2.555.598-5.327 1.245-8.098 1.053 1.32 2.216 2.76 4.35 4.306 6.378m32.753 3.862h-33.698c-.592 0-1.15-.273-1.517-.738-2.77-3.524-5.226-7.36-7.307-11.4-.355-.693-.26-1.534.242-2.13l.137-.162c.582-.69 1.563-.882 2.364-.468 2.887 1.502 6.312.698 9.938-.152l.51-.12c1.42-.33 2.886-.673 4.04-1.35 1.108-.654 2.056-1.68 3.058-2.768.796-.863 1.62-1.756 2.598-2.545.268-.217.888-.717 1.8-.747.646-.028 1.15.2 1.48.373 1.895.99 2.973 2.7 3.923 4.21.432.683.84 1.33 1.29 1.868 1.547 1.85 4.075 2.912 6.323 3.762l.082.03c.772.292 1.648.623 2.463 1.2 1.45 1.023 2.498 2.666 3.116 4.884.176.634.31 1.158.435 1.662.167.664.325 1.29.57 2.1.177.585.067 1.22-.297 1.71s-.94.78-1.55.78" fill="#1C3E58"/><path d="M1076.184 113.293c-1.985 1.64-2.986 4.333-5.19 5.666-1.9 1.148-4.512.97-6.24-.425-1.032-.833-1.72-2.006-2.57-3.024-2.407-2.888-6.256-4.51-10.004-4.22-3.75.294-7.3 2.495-9.23 5.722-.717 1.203-1.228 2.54-2.122 3.618-1.915 2.308-5.142 2.958-8.116 3.346-.872.114-1.79.236-2.486.773-.945.728-1.232 2.072-1.013 3.246.218 1.173.854 2.22 1.477 3.237l5.383 8.782c1.34 2.187 4.683 1.698 5.294-.794.308-1.253.505-2.533.585-3.822.04-.65.145-1.298.406-1.895 2.01-4.604 6.39-2.614 8.424.108 1.87 2.508 2.676 6.303.598 8.64-.906 1.02-2.203 1.59-3.312 2.385-1.107.797-2.103 2.043-1.897 3.39.16 1.053 1.015 1.897 1.182 2.948.18 1.142-.524 2.283-1.475 2.94-.952.66-2.114.926-3.25 1.145-6.493 1.253-14.157 1.933-16.5 9.216-1.082 3.36-.563 7.025 1.188 10.09 1.144 2 2.672 5.158 5.37 5.948 1.975.58 4.354-.18 6 1.055 1.24.932 2.032 2.926 3.564 2.683.673-.107 1.19-.664 1.842-.87 1.23-.385 2.497.595 3.13 1.718.63 1.122-1.927 3.62-.988 4.504 0 0 2.122 1.933 2.498 4.58l.153.39c2.383.466 4.62 1.337 6.636 2.54 1.46-6.324 7.19-7.988 7.19-7.988.99-.56 3.153-.21 4.01-.953.81-.703 1.324-1.68 1.818-2.634 1.167-2.247 2.333-4.494 3.498-6.742.426-.82.835-1.877.26-2.6-.252-.318-.64-.486-1.014-.642l-8.78-3.672c-2.742-1.147-5.958-3.006-5.897-5.935.05-2.38 2.16-4.06 4.48-3.525 2.566.593 3.387 3.516 5.413 4.952.982.695 2.18.995 3.35 1.28l4.002.983c.588.144 1.22.285 1.785.07.65-.246 1.054-.917 1.214-1.593.43-1.836-.61-3.732-1.988-5.02-1.378-1.288-3.088-2.163-4.556-3.347-1.518-1.223-2.77-2.775-3.64-4.518-.223-.445-.426-.946-.306-1.43.144-.58.71-.953 1.267-1.17 3.28-1.27 6.756.987 10.192 1.737 2.662.58 5.81.394 7.63 2.422 1.465 1.63 1.446 4.115.936 6.247-.51 2.13-1.43 4.194-1.484 6.386-.133 5.215 4.04 9.114 8.996 10.745 3.965-8.698 6.18-18.36 6.18-28.544 0-15.78-5.303-30.318-14.22-41.94l-.19.026c-2.995 1.662-6.844 1.605-9.484 3.787" fill="#FFF"/><path d="M1050.445 192.743c1.363.344 2.688.812 3.96 1.4 2.13-4.912 6.545-6.66 7.564-7.007.76-.365 1.632-.448 2.41-.52.348-.034.914-.088 1.143-.164.51-.48.913-1.254 1.303-2.005l3.497-6.742c.126-.243.205-.426.25-.557l-.036-.015-8.78-3.672c-4.764-1.992-7.148-4.602-7.08-7.755.034-1.73.82-3.317 2.15-4.355 1.32-1.026 3.03-1.394 4.692-1.01 2.22.513 3.47 2.155 4.476 3.475.54.71 1.05 1.38 1.618 1.78.697.495 1.712.744 2.693.984l4.002.98c.133.032.41.1.585.12.026-.05.054-.123.075-.21.26-1.11-.605-2.4-1.425-3.168-.68-.633-1.49-1.177-2.352-1.754-.692-.464-1.407-.943-2.098-1.5-1.727-1.392-3.164-3.176-4.156-5.16-.354-.707-.725-1.66-.453-2.755.275-1.11 1.143-2 2.443-2.505 2.952-1.143 5.854-.13 8.414.763 1.01.354 1.965.687 2.887.888.613.134 1.277.225 1.98.32 2.275.314 4.853.667 6.678 2.7 1.674 1.865 2.162 4.7 1.375 7.984-.178.743-.397 1.46-.608 2.155-.408 1.34-.793 2.607-.824 3.83-.1 3.956 2.92 6.745 6.05 8.218 3.497-8.256 5.268-17.014 5.268-26.065 0-14.384-4.463-28.033-12.925-39.57-1.072.435-2.167.735-3.238 1.027-1.744.478-3.39.928-4.57 1.904-.698.576-1.295 1.39-1.928 2.25-.908 1.237-1.94 2.64-3.494 3.58-2.605 1.577-6.08 1.34-8.452-.573-.893-.722-1.548-1.6-2.128-2.373-.232-.31-.463-.62-.71-.918-2.02-2.425-5.24-3.782-8.372-3.53-3.144.245-6.103 2.078-7.722 4.786-.23.387-.438.79-.645 1.19-.46.89-.935 1.808-1.65 2.67-2.295 2.767-5.85 3.57-9.35 4.027-.595.077-1.27.165-1.558.387-.274.21-.4.798-.295 1.365.156.838.7 1.724 1.226 2.583l5.382 8.78c.31.504.804.487 1 .457.234-.037.645-.176.775-.7.28-1.145.46-2.316.533-3.484.063-1.002.242-1.812.563-2.547 1.33-3.048 3.51-3.732 4.69-3.868 2.966-.348 5.65 1.722 7.05 3.595 2.343 3.142 3.266 7.956.492 11.076-.793.893-1.75 1.482-2.594 2-.35.217-.7.43-1.033.67-.705.506-1.174 1.152-1.117 1.533.03.198.21.533.384.857.295.548.662 1.232.796 2.078.283 1.78-.614 3.677-2.285 4.83-1.264.877-2.718 1.21-3.98 1.453-.618.12-1.247.234-1.88.35-5.853 1.062-11.38 2.066-13.15 7.563-.883 2.74-.508 5.854 1.028 8.54l.348.616c.93 1.664 2.206 3.945 3.89 4.437.544.16 1.248.173 1.992.188 1.4.027 3.14.06 4.624 1.176.596.448 1.06.998 1.468 1.483.215.255.52.617.72.784l.245-.148c.322-.197.724-.44 1.236-.603 2.287-.715 4.398.85 5.39 2.61.81 1.442.04 2.96-.52 4.07-.083.16-.187.362-.272.545.69.77 1.818 2.25 2.335 4.178m5.076 6.1c-.343 0-.685-.092-.99-.273-1.86-1.112-3.884-1.887-6.016-2.303-.646-.127-1.184-.576-1.424-1.188l-.155-.392c-.055-.14-.093-.287-.114-.436-.27-1.9-1.877-3.414-1.893-3.43-1.555-1.462-.535-3.47.012-4.55.108-.214.266-.527.367-.763-.26-.31-.544-.48-.656-.485-.048.02-.23.132-.365.214-.414.25-.982.596-1.733.716-2.088.33-3.355-1.168-4.19-2.16-.292-.346-.592-.702-.836-.886-.488-.366-1.366-.383-2.38-.404-.922-.017-1.965-.038-3.005-.342-3.196-.936-4.986-4.14-6.17-6.258l-.33-.585c-2.073-3.624-2.565-7.866-1.35-11.637 2.477-7.698 10.048-9.074 16.132-10.18.62-.112 1.235-.223 1.84-.34.917-.177 1.867-.387 2.518-.837.463-.32.706-.795.665-1.05-.032-.202-.21-.535-.383-.857-.298-.556-.67-1.245-.8-2.103-.285-1.875.716-3.836 2.68-5.25.424-.305.85-.567 1.263-.82.678-.417 1.316-.81 1.732-1.278 1.337-1.504.692-4.335-.702-6.205-.97-1.298-2.477-2.195-3.513-2.07-.236.03-.954.11-1.595 1.58-.136.31-.215.706-.248 1.244-.09 1.394-.303 2.795-.64 4.16-.467 1.914-1.973 3.29-3.927 3.596-1.945.303-3.86-.58-4.885-2.252l-5.383-8.783c-.643-1.048-1.443-2.353-1.73-3.89-.375-2.016.306-4.028 1.733-5.13 1.11-.856 2.387-1.024 3.413-1.158 2.722-.355 5.438-.923 6.883-2.664.448-.54.81-1.24 1.19-1.978.246-.472.49-.944.762-1.398 2.25-3.764 6.363-6.314 10.734-6.655 4.374-.343 8.83 1.54 11.636 4.907.29.35.565.714.837 1.078.487.65.946 1.264 1.463 1.682 1.094.883 2.826 1 4.03.274.896-.544 1.617-1.524 2.38-2.563.744-1.012 1.513-2.06 2.578-2.94 1.82-1.504 3.952-2.087 6.014-2.65 1.375-.376 2.674-.73 3.763-1.337.21-.116.44-.192.676-.224l.19-.027c.694-.093 1.373.188 1.794.738 9.564 12.464 14.62 27.375 14.62 43.115 0 10.223-2.14 20.096-6.355 29.345-.41.897-1.425 1.34-2.36 1.033-6.412-2.11-10.464-7.066-10.323-12.628.044-1.75.525-3.328.99-4.856.204-.67.396-1.303.546-1.932.226-.94.628-3.256-.494-4.508-.877-.977-2.477-1.197-4.33-1.45-.744-.102-1.514-.21-2.277-.375-1.15-.252-2.26-.64-3.336-1.015-2.17-.758-4.05-1.416-5.662-.84.745 1.48 1.82 2.808 3.11 3.848.557.45 1.172.862 1.823 1.297.95.637 1.934 1.295 2.84 2.14 2.138 2 3.09 4.57 2.547 6.874-.33 1.405-1.23 2.51-2.407 2.956-1.145.435-2.263.162-2.93 0l-4-.98c-1.21-.297-2.712-.666-4.008-1.584-1.05-.743-1.797-1.726-2.457-2.592-.876-1.15-1.454-1.864-2.276-2.054-.534-.123-1.046-.018-1.45.296-.418.325-.654.818-.666 1.39-.036 1.755 2.543 3.205 4.713 4.114l8.78 3.67c.453.19 1.213.51 1.78 1.222.953 1.2.934 2.78-.058 4.69l-3.498 6.743c-.52 1.002-1.166 2.248-2.267 3.204-.933.808-2.16.925-3.24 1.027-.374.036-.937.09-1.114.163-.13.073-.237.116-.38.157-.18.055-4.675 1.48-5.848 6.57-.14.6-.556 1.098-1.124 1.34-.242.104-.5.155-.757.155" fill="#1C3E58"/><path d="M170.13 323.607c0 5.85-4.74 10.593-10.592 10.593-5.85 0-10.592-4.743-10.592-10.593s4.742-10.592 10.592-10.592c5.85 0 10.593 4.742 10.593 10.592M988.897 164.843c1.21-.396 2.567-1.075 2.767-2.332.122-.76-.233-1.503-.458-2.24-.95-3.097.647-6.768 3.56-8.185 1.672-.814 3.606-.92 5.334-1.608 1.728-.688 3.358-2.363 2.966-4.18-.282-1.307-1.494-2.184-2.675-2.808-1.032-.547-2.228-1.126-2.56-2.247-.21-.71-.01-1.466.028-2.205.108-2.096-1.445-4.284-3.536-4.463-2.748-.235-4.878 2.7-7.63 2.87-1.376.085-2.692-.545-3.872-1.26-1.652-1-3.295-2.377-3.647-4.277-.354-1.912.705-3.797 1.92-5.318.686-.86 1.633-1.748 2.722-1.58.766.118 1.343.727 1.924 1.242 2.444 2.164 6.604 2.846 8.834.46 1.76-1.883 1.716-4.913 3.347-6.908 1.65-2.017 4.496-2.44 7.033-3.03 3.34-.78 6.555-2.09 9.49-3.864.644-.39 1.323-.866 1.523-1.593.138-.503.015-1.045-.192-1.525-1.01-2.336-4.236-3.38-6.423-2.077-1.366.815-2.68 2.423-4.17 1.864-.686-.257-1.13-.93-1.77-1.286-1.51-.842-3.302.296-4.996.636-2.33.467-4.9-.842-5.893-3.003-1.508-3.282.504-7.73-2.212-10.108-17.077 12.553-28.164 32.78-28.164 55.6 0 3.24.235 6.424.668 9.543l1 .81c2.435-2.117 6.086-2.72 9.07-1.497 2.95 1.206 5.1 3.952 8.114 4.99 2.54.875 5.35.41 7.9-.423" fill="#FFF"/><path d="M969.646 157.724c1.355 0 2.71.25 3.968.765 1.636.67 2.98 1.682 4.278 2.663 1.256.948 2.443 1.844 3.733 2.287 1.75.604 3.934.463 6.673-.432 1.272-.416 1.46-.797 1.46-.8.018-.138-.135-.586-.226-.853-.06-.174-.118-.347-.172-.52-1.235-4.034.768-8.64 4.562-10.485 1.113-.542 2.235-.805 3.32-1.058.77-.18 1.5-.35 2.144-.608 1.09-.434 1.928-1.36 1.793-1.98-.07-.316-.418-.836-1.69-1.51l-.153-.078c-1.187-.624-2.812-1.478-3.357-3.326-.262-.88-.17-1.687-.098-2.335.02-.17.04-.344.048-.514.06-1.15-.818-2.36-1.773-2.442-.836-.06-1.783.495-2.878 1.15-1.27.757-2.706 1.616-4.468 1.724-1.978.124-3.708-.758-4.992-1.537-2.663-1.614-4.15-3.438-4.545-5.575-.397-2.144.38-4.457 2.308-6.873 1.404-1.76 2.927-2.533 4.524-2.285 1.242.19 2.086.957 2.702 1.517l.21.186c1.726 1.53 4.722 2.11 6.144.588.627-.67.977-1.73 1.35-2.85.423-1.278.904-2.727 1.912-3.962 1.885-2.305 4.728-2.938 7.236-3.496.286-.063.57-.127.853-.193 3.154-.735 6.158-1.958 8.928-3.634.395-.24.567-.38.642-.46-.01-.05-.033-.13-.082-.242-.258-.595-.853-1.093-1.593-1.333s-1.514-.183-2.072.15c-.27.16-.58.394-.906.642-1.13.856-2.84 2.155-4.928 1.37-.725-.272-1.24-.73-1.616-1.065-.152-.136-.325-.29-.42-.343-.332-.188-1.2.1-1.964.354-.543.18-1.105.367-1.71.487-3.203.647-6.66-1.112-8.026-4.086-.82-1.784-.823-3.7-.826-5.39-.002-1.11-.016-1.997-.168-2.696-16.132 12.664-25.7 32.234-25.7 52.773 0 2.488.146 5.024.433 7.56 1.575-.826 3.36-1.256 5.14-1.256m14.314 9.943c-1.284 0-2.476-.192-3.592-.577-1.87-.643-3.36-1.77-4.8-2.856-1.155-.87-2.245-1.693-3.416-2.172-2.293-.94-5.203-.46-7.074 1.167-.708.614-1.75.63-2.48.043l-1-.81c-.38-.308-.63-.75-.697-1.235-.454-3.282-.686-6.58-.686-9.807 0-22.462 10.823-43.83 28.95-57.156.73-.536 1.734-.494 2.415.104 2.214 1.94 2.218 4.728 2.222 6.97.002 1.42.005 2.764.473 3.783.62 1.348 2.3 2.206 3.76 1.918.374-.076.802-.218 1.256-.367 1.37-.454 3.248-1.072 5.06-.06.464.258.82.575 1.106.83.134.12.335.298.413.337.178-.04.836-.538 1.23-.836.396-.3.806-.61 1.263-.883 1.52-.904 3.426-1.09 5.234-.505 1.807.585 3.246 1.85 3.948 3.474.427.987.522 1.93.282 2.804-.423 1.542-1.747 2.345-2.384 2.73-3.12 1.888-6.5 3.265-10.05 4.092-.295.07-.593.135-.892.2-2.08.465-4.047.903-5.084 2.173-.56.682-.89 1.68-1.24 2.735-.463 1.398-.988 2.982-2.19 4.27-3.02 3.23-8.4 2.434-11.527-.333l-.245-.22c-.21-.19-.558-.507-.704-.56.005.016-.318.134-.91.876-1.2 1.504-1.713 2.77-1.528 3.764.18.98 1.105 1.98 2.75 2.978.803.487 1.833 1.032 2.754.984.823-.052 1.746-.603 2.723-1.187 1.458-.87 3.123-1.865 5.186-1.68 3.04.26 5.466 3.23 5.3 6.484-.012.248-.04.5-.07.75-.03.285-.074.675-.035.807.086.286.942.736 1.454 1.006l.158.083c.774.41 3.13 1.654 3.66 4.106.618 2.86-1.613 5.375-4.138 6.38-.912.364-1.817.576-2.692.78-.92.215-1.787.418-2.512.77-2.057 1.002-3.23 3.696-2.56 5.884.042.133.088.267.134.4.236.69.56 1.635.386 2.714-.283 1.77-1.653 3.068-4.073 3.86-2.022.66-3.858.99-5.536.99" fill="#1C3E58"/></g></svg>